G04 #@! TF.GenerationSoftware,KiCad,Pcbnew,9.0.3-9.0.3-0~ubuntu24.04.1*
G04 #@! TF.CreationDate,2025-09-17T21:15:32+02:00*
G04 #@! TF.ProjectId,PCB_ SEPARATED,5043425f-2053-4455-9041-52415445442e,rev?*
G04 #@! TF.SameCoordinates,Original*
G04 #@! TF.FileFunction,Legend,Top*
G04 #@! TF.FilePolarity,Positive*
%FSLAX46Y46*%
G04 Gerber Fmt 4.6, Leading zero omitted, Abs format (unit mm)*
G04 Created by KiCad (PCBNEW 9.0.3-9.0.3-0~ubuntu24.04.1) date 2025-09-17 21:15:32*
%MOMM*%
%LPD*%
G01*
G04 APERTURE LIST*
G04 Aperture macros list*
%AMRoundRect*
0 Rectangle with rounded corners*
0 $1 Rounding radius*
0 $2 $3 $4 $5 $6 $7 $8 $9 X,Y pos of 4 corners*
0 Add a 4 corners polygon primitive as box body*
4,1,4,$2,$3,$4,$5,$6,$7,$8,$9,$2,$3,0*
0 Add four circle primitives for the rounded corners*
1,1,$1+$1,$2,$3*
1,1,$1+$1,$4,$5*
1,1,$1+$1,$6,$7*
1,1,$1+$1,$8,$9*
0 Add four rect primitives between the rounded corners*
20,1,$1+$1,$2,$3,$4,$5,0*
20,1,$1+$1,$4,$5,$6,$7,0*
20,1,$1+$1,$6,$7,$8,$9,0*
20,1,$1+$1,$8,$9,$2,$3,0*%
%AMFreePoly0*
4,1,37,0.800000,0.796148,0.878414,0.796148,1.032228,0.765552,1.177117,0.705537,1.307515,0.618408,1.418408,0.507515,1.505537,0.377117,1.565552,0.232228,1.596148,0.078414,1.596148,-0.078414,1.565552,-0.232228,1.505537,-0.377117,1.418408,-0.507515,1.307515,-0.618408,1.177117,-0.705537,1.032228,-0.765552,0.878414,-0.796148,0.800000,-0.796148,0.800000,-0.800000,-1.400000,-0.800000,
-1.403843,-0.796157,-1.439018,-0.796157,-1.511114,-0.766294,-1.566294,-0.711114,-1.596157,-0.639018,-1.596157,-0.603843,-1.600000,-0.600000,-1.600000,0.600000,-1.596157,0.603843,-1.596157,0.639018,-1.566294,0.711114,-1.511114,0.766294,-1.439018,0.796157,-1.403843,0.796157,-1.400000,0.800000,0.800000,0.800000,0.800000,0.796148,0.800000,0.796148,$1*%
%AMFreePoly1*
4,1,37,1.403843,0.796157,1.439018,0.796157,1.511114,0.766294,1.566294,0.711114,1.596157,0.639018,1.596157,0.603843,1.600000,0.600000,1.600000,-0.600000,1.596157,-0.603843,1.596157,-0.639018,1.566294,-0.711114,1.511114,-0.766294,1.439018,-0.796157,1.403843,-0.796157,1.400000,-0.800000,-0.800000,-0.800000,-0.800000,-0.796148,-0.878414,-0.796148,-1.032228,-0.765552,-1.177117,-0.705537,
-1.307515,-0.618408,-1.418408,-0.507515,-1.505537,-0.377117,-1.565552,-0.232228,-1.596148,-0.078414,-1.596148,0.078414,-1.565552,0.232228,-1.505537,0.377117,-1.418408,0.507515,-1.307515,0.618408,-1.177117,0.705537,-1.032228,0.765552,-0.878414,0.796148,-0.800000,0.796148,-0.800000,0.800000,1.400000,0.800000,1.403843,0.796157,1.403843,0.796157,$1*%
%AMFreePoly2*
4,1,37,0.603843,0.796157,0.639018,0.796157,0.711114,0.766294,0.766294,0.711114,0.796157,0.639018,0.796157,0.603843,0.800000,0.600000,0.800000,-0.600000,0.796157,-0.603843,0.796157,-0.639018,0.766294,-0.711114,0.711114,-0.766294,0.639018,-0.796157,0.603843,-0.796157,0.600000,-0.800000,0.000000,-0.800000,0.000000,-0.796148,-0.078414,-0.796148,-0.232228,-0.765552,-0.377117,-0.705537,
-0.507515,-0.618408,-0.618408,-0.507515,-0.705537,-0.377117,-0.765552,-0.232228,-0.796148,-0.078414,-0.796148,0.078414,-0.765552,0.232228,-0.705537,0.377117,-0.618408,0.507515,-0.507515,0.618408,-0.377117,0.705537,-0.232228,0.765552,-0.078414,0.796148,0.000000,0.796148,0.000000,0.800000,0.600000,0.800000,0.603843,0.796157,0.603843,0.796157,$1*%
%AMFreePoly3*
4,1,37,0.000000,0.796148,0.078414,0.796148,0.232228,0.765552,0.377117,0.705537,0.507515,0.618408,0.618408,0.507515,0.705537,0.377117,0.765552,0.232228,0.796148,0.078414,0.796148,-0.078414,0.765552,-0.232228,0.705537,-0.377117,0.618408,-0.507515,0.507515,-0.618408,0.377117,-0.705537,0.232228,-0.765552,0.078414,-0.796148,0.000000,-0.796148,0.000000,-0.800000,-0.600000,-0.800000,
-0.603843,-0.796157,-0.639018,-0.796157,-0.711114,-0.766294,-0.766294,-0.711114,-0.796157,-0.639018,-0.796157,-0.603843,-0.800000,-0.600000,-0.800000,0.600000,-0.796157,0.603843,-0.796157,0.639018,-0.766294,0.711114,-0.711114,0.766294,-0.639018,0.796157,-0.603843,0.796157,-0.600000,0.800000,0.000000,0.800000,0.000000,0.796148,0.000000,0.796148,$1*%
G04 Aperture macros list end*
%ADD10C,0.150000*%
%ADD11C,0.120000*%
%ADD12C,2.000000*%
%ADD13C,2.200000*%
%ADD14C,1.850000*%
%ADD15FreePoly0,90.000000*%
%ADD16RoundRect,0.200000X0.600000X-0.600000X0.600000X0.600000X-0.600000X0.600000X-0.600000X-0.600000X0*%
%ADD17RoundRect,0.800000X0.000010X-0.800000X0.000010X0.800000X-0.000010X0.800000X-0.000010X-0.800000X0*%
%ADD18C,1.600000*%
%ADD19FreePoly1,90.000000*%
%ADD20FreePoly2,90.000000*%
%ADD21FreePoly3,90.000000*%
%ADD22O,3.000000X1.500000*%
G04 APERTURE END LIST*
D10*
X116150476Y-178907200D02*
X116293333Y-178954819D01*
X116293333Y-178954819D02*
X116531428Y-178954819D01*
X116531428Y-178954819D02*
X116626666Y-178907200D01*
X116626666Y-178907200D02*
X116674285Y-178859580D01*
X116674285Y-178859580D02*
X116721904Y-178764342D01*
X116721904Y-178764342D02*
X116721904Y-178669104D01*
X116721904Y-178669104D02*
X116674285Y-178573866D01*
X116674285Y-178573866D02*
X116626666Y-178526247D01*
X116626666Y-178526247D02*
X116531428Y-178478628D01*
X116531428Y-178478628D02*
X116340952Y-178431009D01*
X116340952Y-178431009D02*
X116245714Y-178383390D01*
X116245714Y-178383390D02*
X116198095Y-178335771D01*
X116198095Y-178335771D02*
X116150476Y-178240533D01*
X116150476Y-178240533D02*
X116150476Y-178145295D01*
X116150476Y-178145295D02*
X116198095Y-178050057D01*
X116198095Y-178050057D02*
X116245714Y-178002438D01*
X116245714Y-178002438D02*
X116340952Y-177954819D01*
X116340952Y-177954819D02*
X116579047Y-177954819D01*
X116579047Y-177954819D02*
X116721904Y-178002438D01*
X117055238Y-177954819D02*
X117293333Y-178954819D01*
X117293333Y-178954819D02*
X117483809Y-178240533D01*
X117483809Y-178240533D02*
X117674285Y-178954819D01*
X117674285Y-178954819D02*
X117912381Y-177954819D01*
X118198095Y-177954819D02*
X118817142Y-177954819D01*
X118817142Y-177954819D02*
X118483809Y-178335771D01*
X118483809Y-178335771D02*
X118626666Y-178335771D01*
X118626666Y-178335771D02*
X118721904Y-178383390D01*
X118721904Y-178383390D02*
X118769523Y-178431009D01*
X118769523Y-178431009D02*
X118817142Y-178526247D01*
X118817142Y-178526247D02*
X118817142Y-178764342D01*
X118817142Y-178764342D02*
X118769523Y-178859580D01*
X118769523Y-178859580D02*
X118721904Y-178907200D01*
X118721904Y-178907200D02*
X118626666Y-178954819D01*
X118626666Y-178954819D02*
X118340952Y-178954819D01*
X118340952Y-178954819D02*
X118245714Y-178907200D01*
X118245714Y-178907200D02*
X118198095Y-178859580D01*
X119293333Y-178954819D02*
X119483809Y-178954819D01*
X119483809Y-178954819D02*
X119579047Y-178907200D01*
X119579047Y-178907200D02*
X119626666Y-178859580D01*
X119626666Y-178859580D02*
X119721904Y-178716723D01*
X119721904Y-178716723D02*
X119769523Y-178526247D01*
X119769523Y-178526247D02*
X119769523Y-178145295D01*
X119769523Y-178145295D02*
X119721904Y-178050057D01*
X119721904Y-178050057D02*
X119674285Y-178002438D01*
X119674285Y-178002438D02*
X119579047Y-177954819D01*
X119579047Y-177954819D02*
X119388571Y-177954819D01*
X119388571Y-177954819D02*
X119293333Y-178002438D01*
X119293333Y-178002438D02*
X119245714Y-178050057D01*
X119245714Y-178050057D02*
X119198095Y-178145295D01*
X119198095Y-178145295D02*
X119198095Y-178383390D01*
X119198095Y-178383390D02*
X119245714Y-178478628D01*
X119245714Y-178478628D02*
X119293333Y-178526247D01*
X119293333Y-178526247D02*
X119388571Y-178573866D01*
X119388571Y-178573866D02*
X119579047Y-178573866D01*
X119579047Y-178573866D02*
X119674285Y-178526247D01*
X119674285Y-178526247D02*
X119721904Y-178478628D01*
X119721904Y-178478628D02*
X119769523Y-178383390D01*
X102150476Y-167407200D02*
X102293333Y-167454819D01*
X102293333Y-167454819D02*
X102531428Y-167454819D01*
X102531428Y-167454819D02*
X102626666Y-167407200D01*
X102626666Y-167407200D02*
X102674285Y-167359580D01*
X102674285Y-167359580D02*
X102721904Y-167264342D01*
X102721904Y-167264342D02*
X102721904Y-167169104D01*
X102721904Y-167169104D02*
X102674285Y-167073866D01*
X102674285Y-167073866D02*
X102626666Y-167026247D01*
X102626666Y-167026247D02*
X102531428Y-166978628D01*
X102531428Y-166978628D02*
X102340952Y-166931009D01*
X102340952Y-166931009D02*
X102245714Y-166883390D01*
X102245714Y-166883390D02*
X102198095Y-166835771D01*
X102198095Y-166835771D02*
X102150476Y-166740533D01*
X102150476Y-166740533D02*
X102150476Y-166645295D01*
X102150476Y-166645295D02*
X102198095Y-166550057D01*
X102198095Y-166550057D02*
X102245714Y-166502438D01*
X102245714Y-166502438D02*
X102340952Y-166454819D01*
X102340952Y-166454819D02*
X102579047Y-166454819D01*
X102579047Y-166454819D02*
X102721904Y-166502438D01*
X103055238Y-166454819D02*
X103293333Y-167454819D01*
X103293333Y-167454819D02*
X103483809Y-166740533D01*
X103483809Y-166740533D02*
X103674285Y-167454819D01*
X103674285Y-167454819D02*
X103912381Y-166454819D01*
X104198095Y-166454819D02*
X104817142Y-166454819D01*
X104817142Y-166454819D02*
X104483809Y-166835771D01*
X104483809Y-166835771D02*
X104626666Y-166835771D01*
X104626666Y-166835771D02*
X104721904Y-166883390D01*
X104721904Y-166883390D02*
X104769523Y-166931009D01*
X104769523Y-166931009D02*
X104817142Y-167026247D01*
X104817142Y-167026247D02*
X104817142Y-167264342D01*
X104817142Y-167264342D02*
X104769523Y-167359580D01*
X104769523Y-167359580D02*
X104721904Y-167407200D01*
X104721904Y-167407200D02*
X104626666Y-167454819D01*
X104626666Y-167454819D02*
X104340952Y-167454819D01*
X104340952Y-167454819D02*
X104245714Y-167407200D01*
X104245714Y-167407200D02*
X104198095Y-167359580D01*
X105436190Y-166454819D02*
X105531428Y-166454819D01*
X105531428Y-166454819D02*
X105626666Y-166502438D01*
X105626666Y-166502438D02*
X105674285Y-166550057D01*
X105674285Y-166550057D02*
X105721904Y-166645295D01*
X105721904Y-166645295D02*
X105769523Y-166835771D01*
X105769523Y-166835771D02*
X105769523Y-167073866D01*
X105769523Y-167073866D02*
X105721904Y-167264342D01*
X105721904Y-167264342D02*
X105674285Y-167359580D01*
X105674285Y-167359580D02*
X105626666Y-167407200D01*
X105626666Y-167407200D02*
X105531428Y-167454819D01*
X105531428Y-167454819D02*
X105436190Y-167454819D01*
X105436190Y-167454819D02*
X105340952Y-167407200D01*
X105340952Y-167407200D02*
X105293333Y-167359580D01*
X105293333Y-167359580D02*
X105245714Y-167264342D01*
X105245714Y-167264342D02*
X105198095Y-167073866D01*
X105198095Y-167073866D02*
X105198095Y-166835771D01*
X105198095Y-166835771D02*
X105245714Y-166645295D01*
X105245714Y-166645295D02*
X105293333Y-166550057D01*
X105293333Y-166550057D02*
X105340952Y-166502438D01*
X105340952Y-166502438D02*
X105436190Y-166454819D01*
X59126667Y-143907200D02*
X59269524Y-143954819D01*
X59269524Y-143954819D02*
X59507619Y-143954819D01*
X59507619Y-143954819D02*
X59602857Y-143907200D01*
X59602857Y-143907200D02*
X59650476Y-143859580D01*
X59650476Y-143859580D02*
X59698095Y-143764342D01*
X59698095Y-143764342D02*
X59698095Y-143669104D01*
X59698095Y-143669104D02*
X59650476Y-143573866D01*
X59650476Y-143573866D02*
X59602857Y-143526247D01*
X59602857Y-143526247D02*
X59507619Y-143478628D01*
X59507619Y-143478628D02*
X59317143Y-143431009D01*
X59317143Y-143431009D02*
X59221905Y-143383390D01*
X59221905Y-143383390D02*
X59174286Y-143335771D01*
X59174286Y-143335771D02*
X59126667Y-143240533D01*
X59126667Y-143240533D02*
X59126667Y-143145295D01*
X59126667Y-143145295D02*
X59174286Y-143050057D01*
X59174286Y-143050057D02*
X59221905Y-143002438D01*
X59221905Y-143002438D02*
X59317143Y-142954819D01*
X59317143Y-142954819D02*
X59555238Y-142954819D01*
X59555238Y-142954819D02*
X59698095Y-143002438D01*
X60031429Y-142954819D02*
X60269524Y-143954819D01*
X60269524Y-143954819D02*
X60460000Y-143240533D01*
X60460000Y-143240533D02*
X60650476Y-143954819D01*
X60650476Y-143954819D02*
X60888572Y-142954819D01*
X61698095Y-143288152D02*
X61698095Y-143954819D01*
X61460000Y-142907200D02*
X61221905Y-143621485D01*
X61221905Y-143621485D02*
X61840952Y-143621485D01*
X97367200Y-130309523D02*
X97414819Y-130166666D01*
X97414819Y-130166666D02*
X97414819Y-129928571D01*
X97414819Y-129928571D02*
X97367200Y-129833333D01*
X97367200Y-129833333D02*
X97319580Y-129785714D01*
X97319580Y-129785714D02*
X97224342Y-129738095D01*
X97224342Y-129738095D02*
X97129104Y-129738095D01*
X97129104Y-129738095D02*
X97033866Y-129785714D01*
X97033866Y-129785714D02*
X96986247Y-129833333D01*
X96986247Y-129833333D02*
X96938628Y-129928571D01*
X96938628Y-129928571D02*
X96891009Y-130119047D01*
X96891009Y-130119047D02*
X96843390Y-130214285D01*
X96843390Y-130214285D02*
X96795771Y-130261904D01*
X96795771Y-130261904D02*
X96700533Y-130309523D01*
X96700533Y-130309523D02*
X96605295Y-130309523D01*
X96605295Y-130309523D02*
X96510057Y-130261904D01*
X96510057Y-130261904D02*
X96462438Y-130214285D01*
X96462438Y-130214285D02*
X96414819Y-130119047D01*
X96414819Y-130119047D02*
X96414819Y-129880952D01*
X96414819Y-129880952D02*
X96462438Y-129738095D01*
X96414819Y-129404761D02*
X97414819Y-129166666D01*
X97414819Y-129166666D02*
X96700533Y-128976190D01*
X96700533Y-128976190D02*
X97414819Y-128785714D01*
X97414819Y-128785714D02*
X96414819Y-128547619D01*
X96510057Y-128214285D02*
X96462438Y-128166666D01*
X96462438Y-128166666D02*
X96414819Y-128071428D01*
X96414819Y-128071428D02*
X96414819Y-127833333D01*
X96414819Y-127833333D02*
X96462438Y-127738095D01*
X96462438Y-127738095D02*
X96510057Y-127690476D01*
X96510057Y-127690476D02*
X96605295Y-127642857D01*
X96605295Y-127642857D02*
X96700533Y-127642857D01*
X96700533Y-127642857D02*
X96843390Y-127690476D01*
X96843390Y-127690476D02*
X97414819Y-128261904D01*
X97414819Y-128261904D02*
X97414819Y-127642857D01*
X96414819Y-126785714D02*
X96414819Y-126976190D01*
X96414819Y-126976190D02*
X96462438Y-127071428D01*
X96462438Y-127071428D02*
X96510057Y-127119047D01*
X96510057Y-127119047D02*
X96652914Y-127214285D01*
X96652914Y-127214285D02*
X96843390Y-127261904D01*
X96843390Y-127261904D02*
X97224342Y-127261904D01*
X97224342Y-127261904D02*
X97319580Y-127214285D01*
X97319580Y-127214285D02*
X97367200Y-127166666D01*
X97367200Y-127166666D02*
X97414819Y-127071428D01*
X97414819Y-127071428D02*
X97414819Y-126880952D01*
X97414819Y-126880952D02*
X97367200Y-126785714D01*
X97367200Y-126785714D02*
X97319580Y-126738095D01*
X97319580Y-126738095D02*
X97224342Y-126690476D01*
X97224342Y-126690476D02*
X96986247Y-126690476D01*
X96986247Y-126690476D02*
X96891009Y-126738095D01*
X96891009Y-126738095D02*
X96843390Y-126785714D01*
X96843390Y-126785714D02*
X96795771Y-126880952D01*
X96795771Y-126880952D02*
X96795771Y-127071428D01*
X96795771Y-127071428D02*
X96843390Y-127166666D01*
X96843390Y-127166666D02*
X96891009Y-127214285D01*
X96891009Y-127214285D02*
X96986247Y-127261904D01*
X107400476Y-114907200D02*
X107543333Y-114954819D01*
X107543333Y-114954819D02*
X107781428Y-114954819D01*
X107781428Y-114954819D02*
X107876666Y-114907200D01*
X107876666Y-114907200D02*
X107924285Y-114859580D01*
X107924285Y-114859580D02*
X107971904Y-114764342D01*
X107971904Y-114764342D02*
X107971904Y-114669104D01*
X107971904Y-114669104D02*
X107924285Y-114573866D01*
X107924285Y-114573866D02*
X107876666Y-114526247D01*
X107876666Y-114526247D02*
X107781428Y-114478628D01*
X107781428Y-114478628D02*
X107590952Y-114431009D01*
X107590952Y-114431009D02*
X107495714Y-114383390D01*
X107495714Y-114383390D02*
X107448095Y-114335771D01*
X107448095Y-114335771D02*
X107400476Y-114240533D01*
X107400476Y-114240533D02*
X107400476Y-114145295D01*
X107400476Y-114145295D02*
X107448095Y-114050057D01*
X107448095Y-114050057D02*
X107495714Y-114002438D01*
X107495714Y-114002438D02*
X107590952Y-113954819D01*
X107590952Y-113954819D02*
X107829047Y-113954819D01*
X107829047Y-113954819D02*
X107971904Y-114002438D01*
X108305238Y-113954819D02*
X108543333Y-114954819D01*
X108543333Y-114954819D02*
X108733809Y-114240533D01*
X108733809Y-114240533D02*
X108924285Y-114954819D01*
X108924285Y-114954819D02*
X109162381Y-113954819D01*
X109495714Y-114050057D02*
X109543333Y-114002438D01*
X109543333Y-114002438D02*
X109638571Y-113954819D01*
X109638571Y-113954819D02*
X109876666Y-113954819D01*
X109876666Y-113954819D02*
X109971904Y-114002438D01*
X109971904Y-114002438D02*
X110019523Y-114050057D01*
X110019523Y-114050057D02*
X110067142Y-114145295D01*
X110067142Y-114145295D02*
X110067142Y-114240533D01*
X110067142Y-114240533D02*
X110019523Y-114383390D01*
X110019523Y-114383390D02*
X109448095Y-114954819D01*
X109448095Y-114954819D02*
X110067142Y-114954819D01*
X110971904Y-113954819D02*
X110495714Y-113954819D01*
X110495714Y-113954819D02*
X110448095Y-114431009D01*
X110448095Y-114431009D02*
X110495714Y-114383390D01*
X110495714Y-114383390D02*
X110590952Y-114335771D01*
X110590952Y-114335771D02*
X110829047Y-114335771D01*
X110829047Y-114335771D02*
X110924285Y-114383390D01*
X110924285Y-114383390D02*
X110971904Y-114431009D01*
X110971904Y-114431009D02*
X111019523Y-114526247D01*
X111019523Y-114526247D02*
X111019523Y-114764342D01*
X111019523Y-114764342D02*
X110971904Y-114859580D01*
X110971904Y-114859580D02*
X110924285Y-114907200D01*
X110924285Y-114907200D02*
X110829047Y-114954819D01*
X110829047Y-114954819D02*
X110590952Y-114954819D01*
X110590952Y-114954819D02*
X110495714Y-114907200D01*
X110495714Y-114907200D02*
X110448095Y-114859580D01*
X102150476Y-143907200D02*
X102293333Y-143954819D01*
X102293333Y-143954819D02*
X102531428Y-143954819D01*
X102531428Y-143954819D02*
X102626666Y-143907200D01*
X102626666Y-143907200D02*
X102674285Y-143859580D01*
X102674285Y-143859580D02*
X102721904Y-143764342D01*
X102721904Y-143764342D02*
X102721904Y-143669104D01*
X102721904Y-143669104D02*
X102674285Y-143573866D01*
X102674285Y-143573866D02*
X102626666Y-143526247D01*
X102626666Y-143526247D02*
X102531428Y-143478628D01*
X102531428Y-143478628D02*
X102340952Y-143431009D01*
X102340952Y-143431009D02*
X102245714Y-143383390D01*
X102245714Y-143383390D02*
X102198095Y-143335771D01*
X102198095Y-143335771D02*
X102150476Y-143240533D01*
X102150476Y-143240533D02*
X102150476Y-143145295D01*
X102150476Y-143145295D02*
X102198095Y-143050057D01*
X102198095Y-143050057D02*
X102245714Y-143002438D01*
X102245714Y-143002438D02*
X102340952Y-142954819D01*
X102340952Y-142954819D02*
X102579047Y-142954819D01*
X102579047Y-142954819D02*
X102721904Y-143002438D01*
X103055238Y-142954819D02*
X103293333Y-143954819D01*
X103293333Y-143954819D02*
X103483809Y-143240533D01*
X103483809Y-143240533D02*
X103674285Y-143954819D01*
X103674285Y-143954819D02*
X103912381Y-142954819D01*
X104245714Y-143050057D02*
X104293333Y-143002438D01*
X104293333Y-143002438D02*
X104388571Y-142954819D01*
X104388571Y-142954819D02*
X104626666Y-142954819D01*
X104626666Y-142954819D02*
X104721904Y-143002438D01*
X104721904Y-143002438D02*
X104769523Y-143050057D01*
X104769523Y-143050057D02*
X104817142Y-143145295D01*
X104817142Y-143145295D02*
X104817142Y-143240533D01*
X104817142Y-143240533D02*
X104769523Y-143383390D01*
X104769523Y-143383390D02*
X104198095Y-143954819D01*
X104198095Y-143954819D02*
X104817142Y-143954819D01*
X105388571Y-143383390D02*
X105293333Y-143335771D01*
X105293333Y-143335771D02*
X105245714Y-143288152D01*
X105245714Y-143288152D02*
X105198095Y-143192914D01*
X105198095Y-143192914D02*
X105198095Y-143145295D01*
X105198095Y-143145295D02*
X105245714Y-143050057D01*
X105245714Y-143050057D02*
X105293333Y-143002438D01*
X105293333Y-143002438D02*
X105388571Y-142954819D01*
X105388571Y-142954819D02*
X105579047Y-142954819D01*
X105579047Y-142954819D02*
X105674285Y-143002438D01*
X105674285Y-143002438D02*
X105721904Y-143050057D01*
X105721904Y-143050057D02*
X105769523Y-143145295D01*
X105769523Y-143145295D02*
X105769523Y-143192914D01*
X105769523Y-143192914D02*
X105721904Y-143288152D01*
X105721904Y-143288152D02*
X105674285Y-143335771D01*
X105674285Y-143335771D02*
X105579047Y-143383390D01*
X105579047Y-143383390D02*
X105388571Y-143383390D01*
X105388571Y-143383390D02*
X105293333Y-143431009D01*
X105293333Y-143431009D02*
X105245714Y-143478628D01*
X105245714Y-143478628D02*
X105198095Y-143573866D01*
X105198095Y-143573866D02*
X105198095Y-143764342D01*
X105198095Y-143764342D02*
X105245714Y-143859580D01*
X105245714Y-143859580D02*
X105293333Y-143907200D01*
X105293333Y-143907200D02*
X105388571Y-143954819D01*
X105388571Y-143954819D02*
X105579047Y-143954819D01*
X105579047Y-143954819D02*
X105674285Y-143907200D01*
X105674285Y-143907200D02*
X105721904Y-143859580D01*
X105721904Y-143859580D02*
X105769523Y-143764342D01*
X105769523Y-143764342D02*
X105769523Y-143573866D01*
X105769523Y-143573866D02*
X105721904Y-143478628D01*
X105721904Y-143478628D02*
X105674285Y-143431009D01*
X105674285Y-143431009D02*
X105579047Y-143383390D01*
X70900476Y-132157200D02*
X71043333Y-132204819D01*
X71043333Y-132204819D02*
X71281428Y-132204819D01*
X71281428Y-132204819D02*
X71376666Y-132157200D01*
X71376666Y-132157200D02*
X71424285Y-132109580D01*
X71424285Y-132109580D02*
X71471904Y-132014342D01*
X71471904Y-132014342D02*
X71471904Y-131919104D01*
X71471904Y-131919104D02*
X71424285Y-131823866D01*
X71424285Y-131823866D02*
X71376666Y-131776247D01*
X71376666Y-131776247D02*
X71281428Y-131728628D01*
X71281428Y-131728628D02*
X71090952Y-131681009D01*
X71090952Y-131681009D02*
X70995714Y-131633390D01*
X70995714Y-131633390D02*
X70948095Y-131585771D01*
X70948095Y-131585771D02*
X70900476Y-131490533D01*
X70900476Y-131490533D02*
X70900476Y-131395295D01*
X70900476Y-131395295D02*
X70948095Y-131300057D01*
X70948095Y-131300057D02*
X70995714Y-131252438D01*
X70995714Y-131252438D02*
X71090952Y-131204819D01*
X71090952Y-131204819D02*
X71329047Y-131204819D01*
X71329047Y-131204819D02*
X71471904Y-131252438D01*
X71805238Y-131204819D02*
X72043333Y-132204819D01*
X72043333Y-132204819D02*
X72233809Y-131490533D01*
X72233809Y-131490533D02*
X72424285Y-132204819D01*
X72424285Y-132204819D02*
X72662381Y-131204819D01*
X73567142Y-132204819D02*
X72995714Y-132204819D01*
X73281428Y-132204819D02*
X73281428Y-131204819D01*
X73281428Y-131204819D02*
X73186190Y-131347676D01*
X73186190Y-131347676D02*
X73090952Y-131442914D01*
X73090952Y-131442914D02*
X72995714Y-131490533D01*
X74519523Y-132204819D02*
X73948095Y-132204819D01*
X74233809Y-132204819D02*
X74233809Y-131204819D01*
X74233809Y-131204819D02*
X74138571Y-131347676D01*
X74138571Y-131347676D02*
X74043333Y-131442914D01*
X74043333Y-131442914D02*
X73948095Y-131490533D01*
X59126667Y-155657200D02*
X59269524Y-155704819D01*
X59269524Y-155704819D02*
X59507619Y-155704819D01*
X59507619Y-155704819D02*
X59602857Y-155657200D01*
X59602857Y-155657200D02*
X59650476Y-155609580D01*
X59650476Y-155609580D02*
X59698095Y-155514342D01*
X59698095Y-155514342D02*
X59698095Y-155419104D01*
X59698095Y-155419104D02*
X59650476Y-155323866D01*
X59650476Y-155323866D02*
X59602857Y-155276247D01*
X59602857Y-155276247D02*
X59507619Y-155228628D01*
X59507619Y-155228628D02*
X59317143Y-155181009D01*
X59317143Y-155181009D02*
X59221905Y-155133390D01*
X59221905Y-155133390D02*
X59174286Y-155085771D01*
X59174286Y-155085771D02*
X59126667Y-154990533D01*
X59126667Y-154990533D02*
X59126667Y-154895295D01*
X59126667Y-154895295D02*
X59174286Y-154800057D01*
X59174286Y-154800057D02*
X59221905Y-154752438D01*
X59221905Y-154752438D02*
X59317143Y-154704819D01*
X59317143Y-154704819D02*
X59555238Y-154704819D01*
X59555238Y-154704819D02*
X59698095Y-154752438D01*
X60031429Y-154704819D02*
X60269524Y-155704819D01*
X60269524Y-155704819D02*
X60460000Y-154990533D01*
X60460000Y-154990533D02*
X60650476Y-155704819D01*
X60650476Y-155704819D02*
X60888572Y-154704819D01*
X61745714Y-154704819D02*
X61269524Y-154704819D01*
X61269524Y-154704819D02*
X61221905Y-155181009D01*
X61221905Y-155181009D02*
X61269524Y-155133390D01*
X61269524Y-155133390D02*
X61364762Y-155085771D01*
X61364762Y-155085771D02*
X61602857Y-155085771D01*
X61602857Y-155085771D02*
X61698095Y-155133390D01*
X61698095Y-155133390D02*
X61745714Y-155181009D01*
X61745714Y-155181009D02*
X61793333Y-155276247D01*
X61793333Y-155276247D02*
X61793333Y-155514342D01*
X61793333Y-155514342D02*
X61745714Y-155609580D01*
X61745714Y-155609580D02*
X61698095Y-155657200D01*
X61698095Y-155657200D02*
X61602857Y-155704819D01*
X61602857Y-155704819D02*
X61364762Y-155704819D01*
X61364762Y-155704819D02*
X61269524Y-155657200D01*
X61269524Y-155657200D02*
X61221905Y-155609580D01*
X73150476Y-178907200D02*
X73293333Y-178954819D01*
X73293333Y-178954819D02*
X73531428Y-178954819D01*
X73531428Y-178954819D02*
X73626666Y-178907200D01*
X73626666Y-178907200D02*
X73674285Y-178859580D01*
X73674285Y-178859580D02*
X73721904Y-178764342D01*
X73721904Y-178764342D02*
X73721904Y-178669104D01*
X73721904Y-178669104D02*
X73674285Y-178573866D01*
X73674285Y-178573866D02*
X73626666Y-178526247D01*
X73626666Y-178526247D02*
X73531428Y-178478628D01*
X73531428Y-178478628D02*
X73340952Y-178431009D01*
X73340952Y-178431009D02*
X73245714Y-178383390D01*
X73245714Y-178383390D02*
X73198095Y-178335771D01*
X73198095Y-178335771D02*
X73150476Y-178240533D01*
X73150476Y-178240533D02*
X73150476Y-178145295D01*
X73150476Y-178145295D02*
X73198095Y-178050057D01*
X73198095Y-178050057D02*
X73245714Y-178002438D01*
X73245714Y-178002438D02*
X73340952Y-177954819D01*
X73340952Y-177954819D02*
X73579047Y-177954819D01*
X73579047Y-177954819D02*
X73721904Y-178002438D01*
X74055238Y-177954819D02*
X74293333Y-178954819D01*
X74293333Y-178954819D02*
X74483809Y-178240533D01*
X74483809Y-178240533D02*
X74674285Y-178954819D01*
X74674285Y-178954819D02*
X74912381Y-177954819D01*
X75817142Y-178954819D02*
X75245714Y-178954819D01*
X75531428Y-178954819D02*
X75531428Y-177954819D01*
X75531428Y-177954819D02*
X75436190Y-178097676D01*
X75436190Y-178097676D02*
X75340952Y-178192914D01*
X75340952Y-178192914D02*
X75245714Y-178240533D01*
X76721904Y-177954819D02*
X76245714Y-177954819D01*
X76245714Y-177954819D02*
X76198095Y-178431009D01*
X76198095Y-178431009D02*
X76245714Y-178383390D01*
X76245714Y-178383390D02*
X76340952Y-178335771D01*
X76340952Y-178335771D02*
X76579047Y-178335771D01*
X76579047Y-178335771D02*
X76674285Y-178383390D01*
X76674285Y-178383390D02*
X76721904Y-178431009D01*
X76721904Y-178431009D02*
X76769523Y-178526247D01*
X76769523Y-178526247D02*
X76769523Y-178764342D01*
X76769523Y-178764342D02*
X76721904Y-178859580D01*
X76721904Y-178859580D02*
X76674285Y-178907200D01*
X76674285Y-178907200D02*
X76579047Y-178954819D01*
X76579047Y-178954819D02*
X76340952Y-178954819D01*
X76340952Y-178954819D02*
X76245714Y-178907200D01*
X76245714Y-178907200D02*
X76198095Y-178859580D01*
X87650476Y-178907200D02*
X87793333Y-178954819D01*
X87793333Y-178954819D02*
X88031428Y-178954819D01*
X88031428Y-178954819D02*
X88126666Y-178907200D01*
X88126666Y-178907200D02*
X88174285Y-178859580D01*
X88174285Y-178859580D02*
X88221904Y-178764342D01*
X88221904Y-178764342D02*
X88221904Y-178669104D01*
X88221904Y-178669104D02*
X88174285Y-178573866D01*
X88174285Y-178573866D02*
X88126666Y-178526247D01*
X88126666Y-178526247D02*
X88031428Y-178478628D01*
X88031428Y-178478628D02*
X87840952Y-178431009D01*
X87840952Y-178431009D02*
X87745714Y-178383390D01*
X87745714Y-178383390D02*
X87698095Y-178335771D01*
X87698095Y-178335771D02*
X87650476Y-178240533D01*
X87650476Y-178240533D02*
X87650476Y-178145295D01*
X87650476Y-178145295D02*
X87698095Y-178050057D01*
X87698095Y-178050057D02*
X87745714Y-178002438D01*
X87745714Y-178002438D02*
X87840952Y-177954819D01*
X87840952Y-177954819D02*
X88079047Y-177954819D01*
X88079047Y-177954819D02*
X88221904Y-178002438D01*
X88555238Y-177954819D02*
X88793333Y-178954819D01*
X88793333Y-178954819D02*
X88983809Y-178240533D01*
X88983809Y-178240533D02*
X89174285Y-178954819D01*
X89174285Y-178954819D02*
X89412381Y-177954819D01*
X89745714Y-178050057D02*
X89793333Y-178002438D01*
X89793333Y-178002438D02*
X89888571Y-177954819D01*
X89888571Y-177954819D02*
X90126666Y-177954819D01*
X90126666Y-177954819D02*
X90221904Y-178002438D01*
X90221904Y-178002438D02*
X90269523Y-178050057D01*
X90269523Y-178050057D02*
X90317142Y-178145295D01*
X90317142Y-178145295D02*
X90317142Y-178240533D01*
X90317142Y-178240533D02*
X90269523Y-178383390D01*
X90269523Y-178383390D02*
X89698095Y-178954819D01*
X89698095Y-178954819D02*
X90317142Y-178954819D01*
X90650476Y-177954819D02*
X91269523Y-177954819D01*
X91269523Y-177954819D02*
X90936190Y-178335771D01*
X90936190Y-178335771D02*
X91079047Y-178335771D01*
X91079047Y-178335771D02*
X91174285Y-178383390D01*
X91174285Y-178383390D02*
X91221904Y-178431009D01*
X91221904Y-178431009D02*
X91269523Y-178526247D01*
X91269523Y-178526247D02*
X91269523Y-178764342D01*
X91269523Y-178764342D02*
X91221904Y-178859580D01*
X91221904Y-178859580D02*
X91174285Y-178907200D01*
X91174285Y-178907200D02*
X91079047Y-178954819D01*
X91079047Y-178954819D02*
X90793333Y-178954819D01*
X90793333Y-178954819D02*
X90698095Y-178907200D01*
X90698095Y-178907200D02*
X90650476Y-178859580D01*
X59126667Y-190657200D02*
X59269524Y-190704819D01*
X59269524Y-190704819D02*
X59507619Y-190704819D01*
X59507619Y-190704819D02*
X59602857Y-190657200D01*
X59602857Y-190657200D02*
X59650476Y-190609580D01*
X59650476Y-190609580D02*
X59698095Y-190514342D01*
X59698095Y-190514342D02*
X59698095Y-190419104D01*
X59698095Y-190419104D02*
X59650476Y-190323866D01*
X59650476Y-190323866D02*
X59602857Y-190276247D01*
X59602857Y-190276247D02*
X59507619Y-190228628D01*
X59507619Y-190228628D02*
X59317143Y-190181009D01*
X59317143Y-190181009D02*
X59221905Y-190133390D01*
X59221905Y-190133390D02*
X59174286Y-190085771D01*
X59174286Y-190085771D02*
X59126667Y-189990533D01*
X59126667Y-189990533D02*
X59126667Y-189895295D01*
X59126667Y-189895295D02*
X59174286Y-189800057D01*
X59174286Y-189800057D02*
X59221905Y-189752438D01*
X59221905Y-189752438D02*
X59317143Y-189704819D01*
X59317143Y-189704819D02*
X59555238Y-189704819D01*
X59555238Y-189704819D02*
X59698095Y-189752438D01*
X60031429Y-189704819D02*
X60269524Y-190704819D01*
X60269524Y-190704819D02*
X60460000Y-189990533D01*
X60460000Y-189990533D02*
X60650476Y-190704819D01*
X60650476Y-190704819D02*
X60888572Y-189704819D01*
X61412381Y-190133390D02*
X61317143Y-190085771D01*
X61317143Y-190085771D02*
X61269524Y-190038152D01*
X61269524Y-190038152D02*
X61221905Y-189942914D01*
X61221905Y-189942914D02*
X61221905Y-189895295D01*
X61221905Y-189895295D02*
X61269524Y-189800057D01*
X61269524Y-189800057D02*
X61317143Y-189752438D01*
X61317143Y-189752438D02*
X61412381Y-189704819D01*
X61412381Y-189704819D02*
X61602857Y-189704819D01*
X61602857Y-189704819D02*
X61698095Y-189752438D01*
X61698095Y-189752438D02*
X61745714Y-189800057D01*
X61745714Y-189800057D02*
X61793333Y-189895295D01*
X61793333Y-189895295D02*
X61793333Y-189942914D01*
X61793333Y-189942914D02*
X61745714Y-190038152D01*
X61745714Y-190038152D02*
X61698095Y-190085771D01*
X61698095Y-190085771D02*
X61602857Y-190133390D01*
X61602857Y-190133390D02*
X61412381Y-190133390D01*
X61412381Y-190133390D02*
X61317143Y-190181009D01*
X61317143Y-190181009D02*
X61269524Y-190228628D01*
X61269524Y-190228628D02*
X61221905Y-190323866D01*
X61221905Y-190323866D02*
X61221905Y-190514342D01*
X61221905Y-190514342D02*
X61269524Y-190609580D01*
X61269524Y-190609580D02*
X61317143Y-190657200D01*
X61317143Y-190657200D02*
X61412381Y-190704819D01*
X61412381Y-190704819D02*
X61602857Y-190704819D01*
X61602857Y-190704819D02*
X61698095Y-190657200D01*
X61698095Y-190657200D02*
X61745714Y-190609580D01*
X61745714Y-190609580D02*
X61793333Y-190514342D01*
X61793333Y-190514342D02*
X61793333Y-190323866D01*
X61793333Y-190323866D02*
X61745714Y-190228628D01*
X61745714Y-190228628D02*
X61698095Y-190181009D01*
X61698095Y-190181009D02*
X61602857Y-190133390D01*
X87650476Y-143907200D02*
X87793333Y-143954819D01*
X87793333Y-143954819D02*
X88031428Y-143954819D01*
X88031428Y-143954819D02*
X88126666Y-143907200D01*
X88126666Y-143907200D02*
X88174285Y-143859580D01*
X88174285Y-143859580D02*
X88221904Y-143764342D01*
X88221904Y-143764342D02*
X88221904Y-143669104D01*
X88221904Y-143669104D02*
X88174285Y-143573866D01*
X88174285Y-143573866D02*
X88126666Y-143526247D01*
X88126666Y-143526247D02*
X88031428Y-143478628D01*
X88031428Y-143478628D02*
X87840952Y-143431009D01*
X87840952Y-143431009D02*
X87745714Y-143383390D01*
X87745714Y-143383390D02*
X87698095Y-143335771D01*
X87698095Y-143335771D02*
X87650476Y-143240533D01*
X87650476Y-143240533D02*
X87650476Y-143145295D01*
X87650476Y-143145295D02*
X87698095Y-143050057D01*
X87698095Y-143050057D02*
X87745714Y-143002438D01*
X87745714Y-143002438D02*
X87840952Y-142954819D01*
X87840952Y-142954819D02*
X88079047Y-142954819D01*
X88079047Y-142954819D02*
X88221904Y-143002438D01*
X88555238Y-142954819D02*
X88793333Y-143954819D01*
X88793333Y-143954819D02*
X88983809Y-143240533D01*
X88983809Y-143240533D02*
X89174285Y-143954819D01*
X89174285Y-143954819D02*
X89412381Y-142954819D01*
X89745714Y-143050057D02*
X89793333Y-143002438D01*
X89793333Y-143002438D02*
X89888571Y-142954819D01*
X89888571Y-142954819D02*
X90126666Y-142954819D01*
X90126666Y-142954819D02*
X90221904Y-143002438D01*
X90221904Y-143002438D02*
X90269523Y-143050057D01*
X90269523Y-143050057D02*
X90317142Y-143145295D01*
X90317142Y-143145295D02*
X90317142Y-143240533D01*
X90317142Y-143240533D02*
X90269523Y-143383390D01*
X90269523Y-143383390D02*
X89698095Y-143954819D01*
X89698095Y-143954819D02*
X90317142Y-143954819D01*
X90936190Y-142954819D02*
X91031428Y-142954819D01*
X91031428Y-142954819D02*
X91126666Y-143002438D01*
X91126666Y-143002438D02*
X91174285Y-143050057D01*
X91174285Y-143050057D02*
X91221904Y-143145295D01*
X91221904Y-143145295D02*
X91269523Y-143335771D01*
X91269523Y-143335771D02*
X91269523Y-143573866D01*
X91269523Y-143573866D02*
X91221904Y-143764342D01*
X91221904Y-143764342D02*
X91174285Y-143859580D01*
X91174285Y-143859580D02*
X91126666Y-143907200D01*
X91126666Y-143907200D02*
X91031428Y-143954819D01*
X91031428Y-143954819D02*
X90936190Y-143954819D01*
X90936190Y-143954819D02*
X90840952Y-143907200D01*
X90840952Y-143907200D02*
X90793333Y-143859580D01*
X90793333Y-143859580D02*
X90745714Y-143764342D01*
X90745714Y-143764342D02*
X90698095Y-143573866D01*
X90698095Y-143573866D02*
X90698095Y-143335771D01*
X90698095Y-143335771D02*
X90745714Y-143145295D01*
X90745714Y-143145295D02*
X90793333Y-143050057D01*
X90793333Y-143050057D02*
X90840952Y-143002438D01*
X90840952Y-143002438D02*
X90936190Y-142954819D01*
X83150476Y-123657200D02*
X83293333Y-123704819D01*
X83293333Y-123704819D02*
X83531428Y-123704819D01*
X83531428Y-123704819D02*
X83626666Y-123657200D01*
X83626666Y-123657200D02*
X83674285Y-123609580D01*
X83674285Y-123609580D02*
X83721904Y-123514342D01*
X83721904Y-123514342D02*
X83721904Y-123419104D01*
X83721904Y-123419104D02*
X83674285Y-123323866D01*
X83674285Y-123323866D02*
X83626666Y-123276247D01*
X83626666Y-123276247D02*
X83531428Y-123228628D01*
X83531428Y-123228628D02*
X83340952Y-123181009D01*
X83340952Y-123181009D02*
X83245714Y-123133390D01*
X83245714Y-123133390D02*
X83198095Y-123085771D01*
X83198095Y-123085771D02*
X83150476Y-122990533D01*
X83150476Y-122990533D02*
X83150476Y-122895295D01*
X83150476Y-122895295D02*
X83198095Y-122800057D01*
X83198095Y-122800057D02*
X83245714Y-122752438D01*
X83245714Y-122752438D02*
X83340952Y-122704819D01*
X83340952Y-122704819D02*
X83579047Y-122704819D01*
X83579047Y-122704819D02*
X83721904Y-122752438D01*
X84055238Y-122704819D02*
X84293333Y-123704819D01*
X84293333Y-123704819D02*
X84483809Y-122990533D01*
X84483809Y-122990533D02*
X84674285Y-123704819D01*
X84674285Y-123704819D02*
X84912381Y-122704819D01*
X85817142Y-123704819D02*
X85245714Y-123704819D01*
X85531428Y-123704819D02*
X85531428Y-122704819D01*
X85531428Y-122704819D02*
X85436190Y-122847676D01*
X85436190Y-122847676D02*
X85340952Y-122942914D01*
X85340952Y-122942914D02*
X85245714Y-122990533D01*
X86388571Y-123133390D02*
X86293333Y-123085771D01*
X86293333Y-123085771D02*
X86245714Y-123038152D01*
X86245714Y-123038152D02*
X86198095Y-122942914D01*
X86198095Y-122942914D02*
X86198095Y-122895295D01*
X86198095Y-122895295D02*
X86245714Y-122800057D01*
X86245714Y-122800057D02*
X86293333Y-122752438D01*
X86293333Y-122752438D02*
X86388571Y-122704819D01*
X86388571Y-122704819D02*
X86579047Y-122704819D01*
X86579047Y-122704819D02*
X86674285Y-122752438D01*
X86674285Y-122752438D02*
X86721904Y-122800057D01*
X86721904Y-122800057D02*
X86769523Y-122895295D01*
X86769523Y-122895295D02*
X86769523Y-122942914D01*
X86769523Y-122942914D02*
X86721904Y-123038152D01*
X86721904Y-123038152D02*
X86674285Y-123085771D01*
X86674285Y-123085771D02*
X86579047Y-123133390D01*
X86579047Y-123133390D02*
X86388571Y-123133390D01*
X86388571Y-123133390D02*
X86293333Y-123181009D01*
X86293333Y-123181009D02*
X86245714Y-123228628D01*
X86245714Y-123228628D02*
X86198095Y-123323866D01*
X86198095Y-123323866D02*
X86198095Y-123514342D01*
X86198095Y-123514342D02*
X86245714Y-123609580D01*
X86245714Y-123609580D02*
X86293333Y-123657200D01*
X86293333Y-123657200D02*
X86388571Y-123704819D01*
X86388571Y-123704819D02*
X86579047Y-123704819D01*
X86579047Y-123704819D02*
X86674285Y-123657200D01*
X86674285Y-123657200D02*
X86721904Y-123609580D01*
X86721904Y-123609580D02*
X86769523Y-123514342D01*
X86769523Y-123514342D02*
X86769523Y-123323866D01*
X86769523Y-123323866D02*
X86721904Y-123228628D01*
X86721904Y-123228628D02*
X86674285Y-123181009D01*
X86674285Y-123181009D02*
X86579047Y-123133390D01*
X73150476Y-155657200D02*
X73293333Y-155704819D01*
X73293333Y-155704819D02*
X73531428Y-155704819D01*
X73531428Y-155704819D02*
X73626666Y-155657200D01*
X73626666Y-155657200D02*
X73674285Y-155609580D01*
X73674285Y-155609580D02*
X73721904Y-155514342D01*
X73721904Y-155514342D02*
X73721904Y-155419104D01*
X73721904Y-155419104D02*
X73674285Y-155323866D01*
X73674285Y-155323866D02*
X73626666Y-155276247D01*
X73626666Y-155276247D02*
X73531428Y-155228628D01*
X73531428Y-155228628D02*
X73340952Y-155181009D01*
X73340952Y-155181009D02*
X73245714Y-155133390D01*
X73245714Y-155133390D02*
X73198095Y-155085771D01*
X73198095Y-155085771D02*
X73150476Y-154990533D01*
X73150476Y-154990533D02*
X73150476Y-154895295D01*
X73150476Y-154895295D02*
X73198095Y-154800057D01*
X73198095Y-154800057D02*
X73245714Y-154752438D01*
X73245714Y-154752438D02*
X73340952Y-154704819D01*
X73340952Y-154704819D02*
X73579047Y-154704819D01*
X73579047Y-154704819D02*
X73721904Y-154752438D01*
X74055238Y-154704819D02*
X74293333Y-155704819D01*
X74293333Y-155704819D02*
X74483809Y-154990533D01*
X74483809Y-154990533D02*
X74674285Y-155704819D01*
X74674285Y-155704819D02*
X74912381Y-154704819D01*
X75817142Y-155704819D02*
X75245714Y-155704819D01*
X75531428Y-155704819D02*
X75531428Y-154704819D01*
X75531428Y-154704819D02*
X75436190Y-154847676D01*
X75436190Y-154847676D02*
X75340952Y-154942914D01*
X75340952Y-154942914D02*
X75245714Y-154990533D01*
X76150476Y-154704819D02*
X76769523Y-154704819D01*
X76769523Y-154704819D02*
X76436190Y-155085771D01*
X76436190Y-155085771D02*
X76579047Y-155085771D01*
X76579047Y-155085771D02*
X76674285Y-155133390D01*
X76674285Y-155133390D02*
X76721904Y-155181009D01*
X76721904Y-155181009D02*
X76769523Y-155276247D01*
X76769523Y-155276247D02*
X76769523Y-155514342D01*
X76769523Y-155514342D02*
X76721904Y-155609580D01*
X76721904Y-155609580D02*
X76674285Y-155657200D01*
X76674285Y-155657200D02*
X76579047Y-155704819D01*
X76579047Y-155704819D02*
X76293333Y-155704819D01*
X76293333Y-155704819D02*
X76198095Y-155657200D01*
X76198095Y-155657200D02*
X76150476Y-155609580D01*
X87650476Y-155657200D02*
X87793333Y-155704819D01*
X87793333Y-155704819D02*
X88031428Y-155704819D01*
X88031428Y-155704819D02*
X88126666Y-155657200D01*
X88126666Y-155657200D02*
X88174285Y-155609580D01*
X88174285Y-155609580D02*
X88221904Y-155514342D01*
X88221904Y-155514342D02*
X88221904Y-155419104D01*
X88221904Y-155419104D02*
X88174285Y-155323866D01*
X88174285Y-155323866D02*
X88126666Y-155276247D01*
X88126666Y-155276247D02*
X88031428Y-155228628D01*
X88031428Y-155228628D02*
X87840952Y-155181009D01*
X87840952Y-155181009D02*
X87745714Y-155133390D01*
X87745714Y-155133390D02*
X87698095Y-155085771D01*
X87698095Y-155085771D02*
X87650476Y-154990533D01*
X87650476Y-154990533D02*
X87650476Y-154895295D01*
X87650476Y-154895295D02*
X87698095Y-154800057D01*
X87698095Y-154800057D02*
X87745714Y-154752438D01*
X87745714Y-154752438D02*
X87840952Y-154704819D01*
X87840952Y-154704819D02*
X88079047Y-154704819D01*
X88079047Y-154704819D02*
X88221904Y-154752438D01*
X88555238Y-154704819D02*
X88793333Y-155704819D01*
X88793333Y-155704819D02*
X88983809Y-154990533D01*
X88983809Y-154990533D02*
X89174285Y-155704819D01*
X89174285Y-155704819D02*
X89412381Y-154704819D01*
X89745714Y-154800057D02*
X89793333Y-154752438D01*
X89793333Y-154752438D02*
X89888571Y-154704819D01*
X89888571Y-154704819D02*
X90126666Y-154704819D01*
X90126666Y-154704819D02*
X90221904Y-154752438D01*
X90221904Y-154752438D02*
X90269523Y-154800057D01*
X90269523Y-154800057D02*
X90317142Y-154895295D01*
X90317142Y-154895295D02*
X90317142Y-154990533D01*
X90317142Y-154990533D02*
X90269523Y-155133390D01*
X90269523Y-155133390D02*
X89698095Y-155704819D01*
X89698095Y-155704819D02*
X90317142Y-155704819D01*
X91269523Y-155704819D02*
X90698095Y-155704819D01*
X90983809Y-155704819D02*
X90983809Y-154704819D01*
X90983809Y-154704819D02*
X90888571Y-154847676D01*
X90888571Y-154847676D02*
X90793333Y-154942914D01*
X90793333Y-154942914D02*
X90698095Y-154990533D01*
X87650476Y-190657200D02*
X87793333Y-190704819D01*
X87793333Y-190704819D02*
X88031428Y-190704819D01*
X88031428Y-190704819D02*
X88126666Y-190657200D01*
X88126666Y-190657200D02*
X88174285Y-190609580D01*
X88174285Y-190609580D02*
X88221904Y-190514342D01*
X88221904Y-190514342D02*
X88221904Y-190419104D01*
X88221904Y-190419104D02*
X88174285Y-190323866D01*
X88174285Y-190323866D02*
X88126666Y-190276247D01*
X88126666Y-190276247D02*
X88031428Y-190228628D01*
X88031428Y-190228628D02*
X87840952Y-190181009D01*
X87840952Y-190181009D02*
X87745714Y-190133390D01*
X87745714Y-190133390D02*
X87698095Y-190085771D01*
X87698095Y-190085771D02*
X87650476Y-189990533D01*
X87650476Y-189990533D02*
X87650476Y-189895295D01*
X87650476Y-189895295D02*
X87698095Y-189800057D01*
X87698095Y-189800057D02*
X87745714Y-189752438D01*
X87745714Y-189752438D02*
X87840952Y-189704819D01*
X87840952Y-189704819D02*
X88079047Y-189704819D01*
X88079047Y-189704819D02*
X88221904Y-189752438D01*
X88555238Y-189704819D02*
X88793333Y-190704819D01*
X88793333Y-190704819D02*
X88983809Y-189990533D01*
X88983809Y-189990533D02*
X89174285Y-190704819D01*
X89174285Y-190704819D02*
X89412381Y-189704819D01*
X89745714Y-189800057D02*
X89793333Y-189752438D01*
X89793333Y-189752438D02*
X89888571Y-189704819D01*
X89888571Y-189704819D02*
X90126666Y-189704819D01*
X90126666Y-189704819D02*
X90221904Y-189752438D01*
X90221904Y-189752438D02*
X90269523Y-189800057D01*
X90269523Y-189800057D02*
X90317142Y-189895295D01*
X90317142Y-189895295D02*
X90317142Y-189990533D01*
X90317142Y-189990533D02*
X90269523Y-190133390D01*
X90269523Y-190133390D02*
X89698095Y-190704819D01*
X89698095Y-190704819D02*
X90317142Y-190704819D01*
X91174285Y-190038152D02*
X91174285Y-190704819D01*
X90936190Y-189657200D02*
X90698095Y-190371485D01*
X90698095Y-190371485D02*
X91317142Y-190371485D01*
X102150476Y-190657200D02*
X102293333Y-190704819D01*
X102293333Y-190704819D02*
X102531428Y-190704819D01*
X102531428Y-190704819D02*
X102626666Y-190657200D01*
X102626666Y-190657200D02*
X102674285Y-190609580D01*
X102674285Y-190609580D02*
X102721904Y-190514342D01*
X102721904Y-190514342D02*
X102721904Y-190419104D01*
X102721904Y-190419104D02*
X102674285Y-190323866D01*
X102674285Y-190323866D02*
X102626666Y-190276247D01*
X102626666Y-190276247D02*
X102531428Y-190228628D01*
X102531428Y-190228628D02*
X102340952Y-190181009D01*
X102340952Y-190181009D02*
X102245714Y-190133390D01*
X102245714Y-190133390D02*
X102198095Y-190085771D01*
X102198095Y-190085771D02*
X102150476Y-189990533D01*
X102150476Y-189990533D02*
X102150476Y-189895295D01*
X102150476Y-189895295D02*
X102198095Y-189800057D01*
X102198095Y-189800057D02*
X102245714Y-189752438D01*
X102245714Y-189752438D02*
X102340952Y-189704819D01*
X102340952Y-189704819D02*
X102579047Y-189704819D01*
X102579047Y-189704819D02*
X102721904Y-189752438D01*
X103055238Y-189704819D02*
X103293333Y-190704819D01*
X103293333Y-190704819D02*
X103483809Y-189990533D01*
X103483809Y-189990533D02*
X103674285Y-190704819D01*
X103674285Y-190704819D02*
X103912381Y-189704819D01*
X104198095Y-189704819D02*
X104817142Y-189704819D01*
X104817142Y-189704819D02*
X104483809Y-190085771D01*
X104483809Y-190085771D02*
X104626666Y-190085771D01*
X104626666Y-190085771D02*
X104721904Y-190133390D01*
X104721904Y-190133390D02*
X104769523Y-190181009D01*
X104769523Y-190181009D02*
X104817142Y-190276247D01*
X104817142Y-190276247D02*
X104817142Y-190514342D01*
X104817142Y-190514342D02*
X104769523Y-190609580D01*
X104769523Y-190609580D02*
X104721904Y-190657200D01*
X104721904Y-190657200D02*
X104626666Y-190704819D01*
X104626666Y-190704819D02*
X104340952Y-190704819D01*
X104340952Y-190704819D02*
X104245714Y-190657200D01*
X104245714Y-190657200D02*
X104198095Y-190609580D01*
X105198095Y-189800057D02*
X105245714Y-189752438D01*
X105245714Y-189752438D02*
X105340952Y-189704819D01*
X105340952Y-189704819D02*
X105579047Y-189704819D01*
X105579047Y-189704819D02*
X105674285Y-189752438D01*
X105674285Y-189752438D02*
X105721904Y-189800057D01*
X105721904Y-189800057D02*
X105769523Y-189895295D01*
X105769523Y-189895295D02*
X105769523Y-189990533D01*
X105769523Y-189990533D02*
X105721904Y-190133390D01*
X105721904Y-190133390D02*
X105150476Y-190704819D01*
X105150476Y-190704819D02*
X105769523Y-190704819D01*
X59126667Y-114657200D02*
X59269524Y-114704819D01*
X59269524Y-114704819D02*
X59507619Y-114704819D01*
X59507619Y-114704819D02*
X59602857Y-114657200D01*
X59602857Y-114657200D02*
X59650476Y-114609580D01*
X59650476Y-114609580D02*
X59698095Y-114514342D01*
X59698095Y-114514342D02*
X59698095Y-114419104D01*
X59698095Y-114419104D02*
X59650476Y-114323866D01*
X59650476Y-114323866D02*
X59602857Y-114276247D01*
X59602857Y-114276247D02*
X59507619Y-114228628D01*
X59507619Y-114228628D02*
X59317143Y-114181009D01*
X59317143Y-114181009D02*
X59221905Y-114133390D01*
X59221905Y-114133390D02*
X59174286Y-114085771D01*
X59174286Y-114085771D02*
X59126667Y-113990533D01*
X59126667Y-113990533D02*
X59126667Y-113895295D01*
X59126667Y-113895295D02*
X59174286Y-113800057D01*
X59174286Y-113800057D02*
X59221905Y-113752438D01*
X59221905Y-113752438D02*
X59317143Y-113704819D01*
X59317143Y-113704819D02*
X59555238Y-113704819D01*
X59555238Y-113704819D02*
X59698095Y-113752438D01*
X60031429Y-113704819D02*
X60269524Y-114704819D01*
X60269524Y-114704819D02*
X60460000Y-113990533D01*
X60460000Y-113990533D02*
X60650476Y-114704819D01*
X60650476Y-114704819D02*
X60888572Y-113704819D01*
X61793333Y-114704819D02*
X61221905Y-114704819D01*
X61507619Y-114704819D02*
X61507619Y-113704819D01*
X61507619Y-113704819D02*
X61412381Y-113847676D01*
X61412381Y-113847676D02*
X61317143Y-113942914D01*
X61317143Y-113942914D02*
X61221905Y-113990533D01*
X102150476Y-178907200D02*
X102293333Y-178954819D01*
X102293333Y-178954819D02*
X102531428Y-178954819D01*
X102531428Y-178954819D02*
X102626666Y-178907200D01*
X102626666Y-178907200D02*
X102674285Y-178859580D01*
X102674285Y-178859580D02*
X102721904Y-178764342D01*
X102721904Y-178764342D02*
X102721904Y-178669104D01*
X102721904Y-178669104D02*
X102674285Y-178573866D01*
X102674285Y-178573866D02*
X102626666Y-178526247D01*
X102626666Y-178526247D02*
X102531428Y-178478628D01*
X102531428Y-178478628D02*
X102340952Y-178431009D01*
X102340952Y-178431009D02*
X102245714Y-178383390D01*
X102245714Y-178383390D02*
X102198095Y-178335771D01*
X102198095Y-178335771D02*
X102150476Y-178240533D01*
X102150476Y-178240533D02*
X102150476Y-178145295D01*
X102150476Y-178145295D02*
X102198095Y-178050057D01*
X102198095Y-178050057D02*
X102245714Y-178002438D01*
X102245714Y-178002438D02*
X102340952Y-177954819D01*
X102340952Y-177954819D02*
X102579047Y-177954819D01*
X102579047Y-177954819D02*
X102721904Y-178002438D01*
X103055238Y-177954819D02*
X103293333Y-178954819D01*
X103293333Y-178954819D02*
X103483809Y-178240533D01*
X103483809Y-178240533D02*
X103674285Y-178954819D01*
X103674285Y-178954819D02*
X103912381Y-177954819D01*
X104198095Y-177954819D02*
X104817142Y-177954819D01*
X104817142Y-177954819D02*
X104483809Y-178335771D01*
X104483809Y-178335771D02*
X104626666Y-178335771D01*
X104626666Y-178335771D02*
X104721904Y-178383390D01*
X104721904Y-178383390D02*
X104769523Y-178431009D01*
X104769523Y-178431009D02*
X104817142Y-178526247D01*
X104817142Y-178526247D02*
X104817142Y-178764342D01*
X104817142Y-178764342D02*
X104769523Y-178859580D01*
X104769523Y-178859580D02*
X104721904Y-178907200D01*
X104721904Y-178907200D02*
X104626666Y-178954819D01*
X104626666Y-178954819D02*
X104340952Y-178954819D01*
X104340952Y-178954819D02*
X104245714Y-178907200D01*
X104245714Y-178907200D02*
X104198095Y-178859580D01*
X105769523Y-178954819D02*
X105198095Y-178954819D01*
X105483809Y-178954819D02*
X105483809Y-177954819D01*
X105483809Y-177954819D02*
X105388571Y-178097676D01*
X105388571Y-178097676D02*
X105293333Y-178192914D01*
X105293333Y-178192914D02*
X105198095Y-178240533D01*
X116150476Y-190657200D02*
X116293333Y-190704819D01*
X116293333Y-190704819D02*
X116531428Y-190704819D01*
X116531428Y-190704819D02*
X116626666Y-190657200D01*
X116626666Y-190657200D02*
X116674285Y-190609580D01*
X116674285Y-190609580D02*
X116721904Y-190514342D01*
X116721904Y-190514342D02*
X116721904Y-190419104D01*
X116721904Y-190419104D02*
X116674285Y-190323866D01*
X116674285Y-190323866D02*
X116626666Y-190276247D01*
X116626666Y-190276247D02*
X116531428Y-190228628D01*
X116531428Y-190228628D02*
X116340952Y-190181009D01*
X116340952Y-190181009D02*
X116245714Y-190133390D01*
X116245714Y-190133390D02*
X116198095Y-190085771D01*
X116198095Y-190085771D02*
X116150476Y-189990533D01*
X116150476Y-189990533D02*
X116150476Y-189895295D01*
X116150476Y-189895295D02*
X116198095Y-189800057D01*
X116198095Y-189800057D02*
X116245714Y-189752438D01*
X116245714Y-189752438D02*
X116340952Y-189704819D01*
X116340952Y-189704819D02*
X116579047Y-189704819D01*
X116579047Y-189704819D02*
X116721904Y-189752438D01*
X117055238Y-189704819D02*
X117293333Y-190704819D01*
X117293333Y-190704819D02*
X117483809Y-189990533D01*
X117483809Y-189990533D02*
X117674285Y-190704819D01*
X117674285Y-190704819D02*
X117912381Y-189704819D01*
X118721904Y-190038152D02*
X118721904Y-190704819D01*
X118483809Y-189657200D02*
X118245714Y-190371485D01*
X118245714Y-190371485D02*
X118864761Y-190371485D01*
X119436190Y-189704819D02*
X119531428Y-189704819D01*
X119531428Y-189704819D02*
X119626666Y-189752438D01*
X119626666Y-189752438D02*
X119674285Y-189800057D01*
X119674285Y-189800057D02*
X119721904Y-189895295D01*
X119721904Y-189895295D02*
X119769523Y-190085771D01*
X119769523Y-190085771D02*
X119769523Y-190323866D01*
X119769523Y-190323866D02*
X119721904Y-190514342D01*
X119721904Y-190514342D02*
X119674285Y-190609580D01*
X119674285Y-190609580D02*
X119626666Y-190657200D01*
X119626666Y-190657200D02*
X119531428Y-190704819D01*
X119531428Y-190704819D02*
X119436190Y-190704819D01*
X119436190Y-190704819D02*
X119340952Y-190657200D01*
X119340952Y-190657200D02*
X119293333Y-190609580D01*
X119293333Y-190609580D02*
X119245714Y-190514342D01*
X119245714Y-190514342D02*
X119198095Y-190323866D01*
X119198095Y-190323866D02*
X119198095Y-190085771D01*
X119198095Y-190085771D02*
X119245714Y-189895295D01*
X119245714Y-189895295D02*
X119293333Y-189800057D01*
X119293333Y-189800057D02*
X119340952Y-189752438D01*
X119340952Y-189752438D02*
X119436190Y-189704819D01*
X71376667Y-114657200D02*
X71519524Y-114704819D01*
X71519524Y-114704819D02*
X71757619Y-114704819D01*
X71757619Y-114704819D02*
X71852857Y-114657200D01*
X71852857Y-114657200D02*
X71900476Y-114609580D01*
X71900476Y-114609580D02*
X71948095Y-114514342D01*
X71948095Y-114514342D02*
X71948095Y-114419104D01*
X71948095Y-114419104D02*
X71900476Y-114323866D01*
X71900476Y-114323866D02*
X71852857Y-114276247D01*
X71852857Y-114276247D02*
X71757619Y-114228628D01*
X71757619Y-114228628D02*
X71567143Y-114181009D01*
X71567143Y-114181009D02*
X71471905Y-114133390D01*
X71471905Y-114133390D02*
X71424286Y-114085771D01*
X71424286Y-114085771D02*
X71376667Y-113990533D01*
X71376667Y-113990533D02*
X71376667Y-113895295D01*
X71376667Y-113895295D02*
X71424286Y-113800057D01*
X71424286Y-113800057D02*
X71471905Y-113752438D01*
X71471905Y-113752438D02*
X71567143Y-113704819D01*
X71567143Y-113704819D02*
X71805238Y-113704819D01*
X71805238Y-113704819D02*
X71948095Y-113752438D01*
X72281429Y-113704819D02*
X72519524Y-114704819D01*
X72519524Y-114704819D02*
X72710000Y-113990533D01*
X72710000Y-113990533D02*
X72900476Y-114704819D01*
X72900476Y-114704819D02*
X73138572Y-113704819D01*
X73567143Y-114704819D02*
X73757619Y-114704819D01*
X73757619Y-114704819D02*
X73852857Y-114657200D01*
X73852857Y-114657200D02*
X73900476Y-114609580D01*
X73900476Y-114609580D02*
X73995714Y-114466723D01*
X73995714Y-114466723D02*
X74043333Y-114276247D01*
X74043333Y-114276247D02*
X74043333Y-113895295D01*
X74043333Y-113895295D02*
X73995714Y-113800057D01*
X73995714Y-113800057D02*
X73948095Y-113752438D01*
X73948095Y-113752438D02*
X73852857Y-113704819D01*
X73852857Y-113704819D02*
X73662381Y-113704819D01*
X73662381Y-113704819D02*
X73567143Y-113752438D01*
X73567143Y-113752438D02*
X73519524Y-113800057D01*
X73519524Y-113800057D02*
X73471905Y-113895295D01*
X73471905Y-113895295D02*
X73471905Y-114133390D01*
X73471905Y-114133390D02*
X73519524Y-114228628D01*
X73519524Y-114228628D02*
X73567143Y-114276247D01*
X73567143Y-114276247D02*
X73662381Y-114323866D01*
X73662381Y-114323866D02*
X73852857Y-114323866D01*
X73852857Y-114323866D02*
X73948095Y-114276247D01*
X73948095Y-114276247D02*
X73995714Y-114228628D01*
X73995714Y-114228628D02*
X74043333Y-114133390D01*
X113867200Y-130309523D02*
X113914819Y-130166666D01*
X113914819Y-130166666D02*
X113914819Y-129928571D01*
X113914819Y-129928571D02*
X113867200Y-129833333D01*
X113867200Y-129833333D02*
X113819580Y-129785714D01*
X113819580Y-129785714D02*
X113724342Y-129738095D01*
X113724342Y-129738095D02*
X113629104Y-129738095D01*
X113629104Y-129738095D02*
X113533866Y-129785714D01*
X113533866Y-129785714D02*
X113486247Y-129833333D01*
X113486247Y-129833333D02*
X113438628Y-129928571D01*
X113438628Y-129928571D02*
X113391009Y-130119047D01*
X113391009Y-130119047D02*
X113343390Y-130214285D01*
X113343390Y-130214285D02*
X113295771Y-130261904D01*
X113295771Y-130261904D02*
X113200533Y-130309523D01*
X113200533Y-130309523D02*
X113105295Y-130309523D01*
X113105295Y-130309523D02*
X113010057Y-130261904D01*
X113010057Y-130261904D02*
X112962438Y-130214285D01*
X112962438Y-130214285D02*
X112914819Y-130119047D01*
X112914819Y-130119047D02*
X112914819Y-129880952D01*
X112914819Y-129880952D02*
X112962438Y-129738095D01*
X112914819Y-129404761D02*
X113914819Y-129166666D01*
X113914819Y-129166666D02*
X113200533Y-128976190D01*
X113200533Y-128976190D02*
X113914819Y-128785714D01*
X113914819Y-128785714D02*
X112914819Y-128547619D01*
X112914819Y-128261904D02*
X112914819Y-127642857D01*
X112914819Y-127642857D02*
X113295771Y-127976190D01*
X113295771Y-127976190D02*
X113295771Y-127833333D01*
X113295771Y-127833333D02*
X113343390Y-127738095D01*
X113343390Y-127738095D02*
X113391009Y-127690476D01*
X113391009Y-127690476D02*
X113486247Y-127642857D01*
X113486247Y-127642857D02*
X113724342Y-127642857D01*
X113724342Y-127642857D02*
X113819580Y-127690476D01*
X113819580Y-127690476D02*
X113867200Y-127738095D01*
X113867200Y-127738095D02*
X113914819Y-127833333D01*
X113914819Y-127833333D02*
X113914819Y-128119047D01*
X113914819Y-128119047D02*
X113867200Y-128214285D01*
X113867200Y-128214285D02*
X113819580Y-128261904D01*
X113248152Y-126785714D02*
X113914819Y-126785714D01*
X112867200Y-127023809D02*
X113581485Y-127261904D01*
X113581485Y-127261904D02*
X113581485Y-126642857D01*
X110394104Y-72963339D02*
X110394104Y-72487149D01*
X110679819Y-73058577D02*
X109679819Y-72725244D01*
X109679819Y-72725244D02*
X110679819Y-72391911D01*
X110679819Y-71534768D02*
X110679819Y-72106196D01*
X110679819Y-71820482D02*
X109679819Y-71820482D01*
X109679819Y-71820482D02*
X109822676Y-71915720D01*
X109822676Y-71915720D02*
X109917914Y-72010958D01*
X109917914Y-72010958D02*
X109965533Y-72106196D01*
X107400476Y-134157200D02*
X107543333Y-134204819D01*
X107543333Y-134204819D02*
X107781428Y-134204819D01*
X107781428Y-134204819D02*
X107876666Y-134157200D01*
X107876666Y-134157200D02*
X107924285Y-134109580D01*
X107924285Y-134109580D02*
X107971904Y-134014342D01*
X107971904Y-134014342D02*
X107971904Y-133919104D01*
X107971904Y-133919104D02*
X107924285Y-133823866D01*
X107924285Y-133823866D02*
X107876666Y-133776247D01*
X107876666Y-133776247D02*
X107781428Y-133728628D01*
X107781428Y-133728628D02*
X107590952Y-133681009D01*
X107590952Y-133681009D02*
X107495714Y-133633390D01*
X107495714Y-133633390D02*
X107448095Y-133585771D01*
X107448095Y-133585771D02*
X107400476Y-133490533D01*
X107400476Y-133490533D02*
X107400476Y-133395295D01*
X107400476Y-133395295D02*
X107448095Y-133300057D01*
X107448095Y-133300057D02*
X107495714Y-133252438D01*
X107495714Y-133252438D02*
X107590952Y-133204819D01*
X107590952Y-133204819D02*
X107829047Y-133204819D01*
X107829047Y-133204819D02*
X107971904Y-133252438D01*
X108305238Y-133204819D02*
X108543333Y-134204819D01*
X108543333Y-134204819D02*
X108733809Y-133490533D01*
X108733809Y-133490533D02*
X108924285Y-134204819D01*
X108924285Y-134204819D02*
X109162381Y-133204819D01*
X109495714Y-133300057D02*
X109543333Y-133252438D01*
X109543333Y-133252438D02*
X109638571Y-133204819D01*
X109638571Y-133204819D02*
X109876666Y-133204819D01*
X109876666Y-133204819D02*
X109971904Y-133252438D01*
X109971904Y-133252438D02*
X110019523Y-133300057D01*
X110019523Y-133300057D02*
X110067142Y-133395295D01*
X110067142Y-133395295D02*
X110067142Y-133490533D01*
X110067142Y-133490533D02*
X110019523Y-133633390D01*
X110019523Y-133633390D02*
X109448095Y-134204819D01*
X109448095Y-134204819D02*
X110067142Y-134204819D01*
X110400476Y-133204819D02*
X111067142Y-133204819D01*
X111067142Y-133204819D02*
X110638571Y-134204819D01*
X134174819Y-44761904D02*
X134984342Y-44761904D01*
X134984342Y-44761904D02*
X135079580Y-44714285D01*
X135079580Y-44714285D02*
X135127200Y-44666666D01*
X135127200Y-44666666D02*
X135174819Y-44571428D01*
X135174819Y-44571428D02*
X135174819Y-44380952D01*
X135174819Y-44380952D02*
X135127200Y-44285714D01*
X135127200Y-44285714D02*
X135079580Y-44238095D01*
X135079580Y-44238095D02*
X134984342Y-44190476D01*
X134984342Y-44190476D02*
X134174819Y-44190476D01*
X134174819Y-43238095D02*
X134174819Y-43714285D01*
X134174819Y-43714285D02*
X134651009Y-43761904D01*
X134651009Y-43761904D02*
X134603390Y-43714285D01*
X134603390Y-43714285D02*
X134555771Y-43619047D01*
X134555771Y-43619047D02*
X134555771Y-43380952D01*
X134555771Y-43380952D02*
X134603390Y-43285714D01*
X134603390Y-43285714D02*
X134651009Y-43238095D01*
X134651009Y-43238095D02*
X134746247Y-43190476D01*
X134746247Y-43190476D02*
X134984342Y-43190476D01*
X134984342Y-43190476D02*
X135079580Y-43238095D01*
X135079580Y-43238095D02*
X135127200Y-43285714D01*
X135127200Y-43285714D02*
X135174819Y-43380952D01*
X135174819Y-43380952D02*
X135174819Y-43619047D01*
X135174819Y-43619047D02*
X135127200Y-43714285D01*
X135127200Y-43714285D02*
X135079580Y-43761904D01*
X79027438Y-58111144D02*
X79027438Y-56968287D01*
X81027438Y-57539716D02*
X79027438Y-57539716D01*
X79979819Y-55634953D02*
X79979819Y-56301620D01*
X81027438Y-56301620D02*
X79027438Y-56301620D01*
X79027438Y-56301620D02*
X79027438Y-55349239D01*
X79027438Y-54873048D02*
X79027438Y-53730191D01*
X81027438Y-54301620D02*
X79027438Y-54301620D01*
X79027438Y-51730190D02*
X79027438Y-50492095D01*
X79027438Y-50492095D02*
X79789342Y-51158762D01*
X79789342Y-51158762D02*
X79789342Y-50873047D01*
X79789342Y-50873047D02*
X79884580Y-50682571D01*
X79884580Y-50682571D02*
X79979819Y-50587333D01*
X79979819Y-50587333D02*
X80170295Y-50492095D01*
X80170295Y-50492095D02*
X80646485Y-50492095D01*
X80646485Y-50492095D02*
X80836961Y-50587333D01*
X80836961Y-50587333D02*
X80932200Y-50682571D01*
X80932200Y-50682571D02*
X81027438Y-50873047D01*
X81027438Y-50873047D02*
X81027438Y-51444476D01*
X81027438Y-51444476D02*
X80932200Y-51634952D01*
X80932200Y-51634952D02*
X80836961Y-51730190D01*
X79217914Y-49730190D02*
X79122676Y-49634952D01*
X79122676Y-49634952D02*
X79027438Y-49444476D01*
X79027438Y-49444476D02*
X79027438Y-48968285D01*
X79027438Y-48968285D02*
X79122676Y-48777809D01*
X79122676Y-48777809D02*
X79217914Y-48682571D01*
X79217914Y-48682571D02*
X79408390Y-48587333D01*
X79408390Y-48587333D02*
X79598866Y-48587333D01*
X79598866Y-48587333D02*
X79884580Y-48682571D01*
X79884580Y-48682571D02*
X81027438Y-49825428D01*
X81027438Y-49825428D02*
X81027438Y-48587333D01*
X79027438Y-47349238D02*
X79027438Y-47158761D01*
X79027438Y-47158761D02*
X79122676Y-46968285D01*
X79122676Y-46968285D02*
X79217914Y-46873047D01*
X79217914Y-46873047D02*
X79408390Y-46777809D01*
X79408390Y-46777809D02*
X79789342Y-46682571D01*
X79789342Y-46682571D02*
X80265533Y-46682571D01*
X80265533Y-46682571D02*
X80646485Y-46777809D01*
X80646485Y-46777809D02*
X80836961Y-46873047D01*
X80836961Y-46873047D02*
X80932200Y-46968285D01*
X80932200Y-46968285D02*
X81027438Y-47158761D01*
X81027438Y-47158761D02*
X81027438Y-47349238D01*
X81027438Y-47349238D02*
X80932200Y-47539714D01*
X80932200Y-47539714D02*
X80836961Y-47634952D01*
X80836961Y-47634952D02*
X80646485Y-47730190D01*
X80646485Y-47730190D02*
X80265533Y-47825428D01*
X80265533Y-47825428D02*
X79789342Y-47825428D01*
X79789342Y-47825428D02*
X79408390Y-47730190D01*
X79408390Y-47730190D02*
X79217914Y-47634952D01*
X79217914Y-47634952D02*
X79122676Y-47539714D01*
X79122676Y-47539714D02*
X79027438Y-47349238D01*
X81027438Y-46015904D02*
X79694104Y-44968285D01*
X79694104Y-46015904D02*
X81027438Y-44968285D01*
X79217914Y-44301618D02*
X79122676Y-44206380D01*
X79122676Y-44206380D02*
X79027438Y-44015904D01*
X79027438Y-44015904D02*
X79027438Y-43539713D01*
X79027438Y-43539713D02*
X79122676Y-43349237D01*
X79122676Y-43349237D02*
X79217914Y-43253999D01*
X79217914Y-43253999D02*
X79408390Y-43158761D01*
X79408390Y-43158761D02*
X79598866Y-43158761D01*
X79598866Y-43158761D02*
X79884580Y-43253999D01*
X79884580Y-43253999D02*
X81027438Y-44396856D01*
X81027438Y-44396856D02*
X81027438Y-43158761D01*
X79694104Y-41444475D02*
X81027438Y-41444475D01*
X78932200Y-41920666D02*
X80360771Y-42396856D01*
X80360771Y-42396856D02*
X80360771Y-41158761D01*
X79027438Y-40015904D02*
X79027438Y-39825427D01*
X79027438Y-39825427D02*
X79122676Y-39634951D01*
X79122676Y-39634951D02*
X79217914Y-39539713D01*
X79217914Y-39539713D02*
X79408390Y-39444475D01*
X79408390Y-39444475D02*
X79789342Y-39349237D01*
X79789342Y-39349237D02*
X80265533Y-39349237D01*
X80265533Y-39349237D02*
X80646485Y-39444475D01*
X80646485Y-39444475D02*
X80836961Y-39539713D01*
X80836961Y-39539713D02*
X80932200Y-39634951D01*
X80932200Y-39634951D02*
X81027438Y-39825427D01*
X81027438Y-39825427D02*
X81027438Y-40015904D01*
X81027438Y-40015904D02*
X80932200Y-40206380D01*
X80932200Y-40206380D02*
X80836961Y-40301618D01*
X80836961Y-40301618D02*
X80646485Y-40396856D01*
X80646485Y-40396856D02*
X80265533Y-40492094D01*
X80265533Y-40492094D02*
X79789342Y-40492094D01*
X79789342Y-40492094D02*
X79408390Y-40396856D01*
X79408390Y-40396856D02*
X79217914Y-40301618D01*
X79217914Y-40301618D02*
X79122676Y-40206380D01*
X79122676Y-40206380D02*
X79027438Y-40015904D01*
X80932200Y-38396856D02*
X81027438Y-38396856D01*
X81027438Y-38396856D02*
X81217914Y-38492094D01*
X81217914Y-38492094D02*
X81313152Y-38587332D01*
X79217914Y-36111141D02*
X79122676Y-36015903D01*
X79122676Y-36015903D02*
X79027438Y-35825427D01*
X79027438Y-35825427D02*
X79027438Y-35349236D01*
X79027438Y-35349236D02*
X79122676Y-35158760D01*
X79122676Y-35158760D02*
X79217914Y-35063522D01*
X79217914Y-35063522D02*
X79408390Y-34968284D01*
X79408390Y-34968284D02*
X79598866Y-34968284D01*
X79598866Y-34968284D02*
X79884580Y-35063522D01*
X79884580Y-35063522D02*
X81027438Y-36206379D01*
X81027438Y-36206379D02*
X81027438Y-34968284D01*
X80836961Y-34111141D02*
X80932200Y-34015903D01*
X80932200Y-34015903D02*
X81027438Y-34111141D01*
X81027438Y-34111141D02*
X80932200Y-34206379D01*
X80932200Y-34206379D02*
X80836961Y-34111141D01*
X80836961Y-34111141D02*
X81027438Y-34111141D01*
X79884580Y-32873046D02*
X79789342Y-33063522D01*
X79789342Y-33063522D02*
X79694104Y-33158760D01*
X79694104Y-33158760D02*
X79503628Y-33253998D01*
X79503628Y-33253998D02*
X79408390Y-33253998D01*
X79408390Y-33253998D02*
X79217914Y-33158760D01*
X79217914Y-33158760D02*
X79122676Y-33063522D01*
X79122676Y-33063522D02*
X79027438Y-32873046D01*
X79027438Y-32873046D02*
X79027438Y-32492093D01*
X79027438Y-32492093D02*
X79122676Y-32301617D01*
X79122676Y-32301617D02*
X79217914Y-32206379D01*
X79217914Y-32206379D02*
X79408390Y-32111141D01*
X79408390Y-32111141D02*
X79503628Y-32111141D01*
X79503628Y-32111141D02*
X79694104Y-32206379D01*
X79694104Y-32206379D02*
X79789342Y-32301617D01*
X79789342Y-32301617D02*
X79884580Y-32492093D01*
X79884580Y-32492093D02*
X79884580Y-32873046D01*
X79884580Y-32873046D02*
X79979819Y-33063522D01*
X79979819Y-33063522D02*
X80075057Y-33158760D01*
X80075057Y-33158760D02*
X80265533Y-33253998D01*
X80265533Y-33253998D02*
X80646485Y-33253998D01*
X80646485Y-33253998D02*
X80836961Y-33158760D01*
X80836961Y-33158760D02*
X80932200Y-33063522D01*
X80932200Y-33063522D02*
X81027438Y-32873046D01*
X81027438Y-32873046D02*
X81027438Y-32492093D01*
X81027438Y-32492093D02*
X80932200Y-32301617D01*
X80932200Y-32301617D02*
X80836961Y-32206379D01*
X80836961Y-32206379D02*
X80646485Y-32111141D01*
X80646485Y-32111141D02*
X80265533Y-32111141D01*
X80265533Y-32111141D02*
X80075057Y-32206379D01*
X80075057Y-32206379D02*
X79979819Y-32301617D01*
X79979819Y-32301617D02*
X79884580Y-32492093D01*
X79027438Y-31349236D02*
X79408390Y-31349236D01*
X79027438Y-30587331D02*
X79408390Y-30587331D01*
X73150476Y-190657200D02*
X73293333Y-190704819D01*
X73293333Y-190704819D02*
X73531428Y-190704819D01*
X73531428Y-190704819D02*
X73626666Y-190657200D01*
X73626666Y-190657200D02*
X73674285Y-190609580D01*
X73674285Y-190609580D02*
X73721904Y-190514342D01*
X73721904Y-190514342D02*
X73721904Y-190419104D01*
X73721904Y-190419104D02*
X73674285Y-190323866D01*
X73674285Y-190323866D02*
X73626666Y-190276247D01*
X73626666Y-190276247D02*
X73531428Y-190228628D01*
X73531428Y-190228628D02*
X73340952Y-190181009D01*
X73340952Y-190181009D02*
X73245714Y-190133390D01*
X73245714Y-190133390D02*
X73198095Y-190085771D01*
X73198095Y-190085771D02*
X73150476Y-189990533D01*
X73150476Y-189990533D02*
X73150476Y-189895295D01*
X73150476Y-189895295D02*
X73198095Y-189800057D01*
X73198095Y-189800057D02*
X73245714Y-189752438D01*
X73245714Y-189752438D02*
X73340952Y-189704819D01*
X73340952Y-189704819D02*
X73579047Y-189704819D01*
X73579047Y-189704819D02*
X73721904Y-189752438D01*
X74055238Y-189704819D02*
X74293333Y-190704819D01*
X74293333Y-190704819D02*
X74483809Y-189990533D01*
X74483809Y-189990533D02*
X74674285Y-190704819D01*
X74674285Y-190704819D02*
X74912381Y-189704819D01*
X75817142Y-190704819D02*
X75245714Y-190704819D01*
X75531428Y-190704819D02*
X75531428Y-189704819D01*
X75531428Y-189704819D02*
X75436190Y-189847676D01*
X75436190Y-189847676D02*
X75340952Y-189942914D01*
X75340952Y-189942914D02*
X75245714Y-189990533D01*
X76674285Y-189704819D02*
X76483809Y-189704819D01*
X76483809Y-189704819D02*
X76388571Y-189752438D01*
X76388571Y-189752438D02*
X76340952Y-189800057D01*
X76340952Y-189800057D02*
X76245714Y-189942914D01*
X76245714Y-189942914D02*
X76198095Y-190133390D01*
X76198095Y-190133390D02*
X76198095Y-190514342D01*
X76198095Y-190514342D02*
X76245714Y-190609580D01*
X76245714Y-190609580D02*
X76293333Y-190657200D01*
X76293333Y-190657200D02*
X76388571Y-190704819D01*
X76388571Y-190704819D02*
X76579047Y-190704819D01*
X76579047Y-190704819D02*
X76674285Y-190657200D01*
X76674285Y-190657200D02*
X76721904Y-190609580D01*
X76721904Y-190609580D02*
X76769523Y-190514342D01*
X76769523Y-190514342D02*
X76769523Y-190276247D01*
X76769523Y-190276247D02*
X76721904Y-190181009D01*
X76721904Y-190181009D02*
X76674285Y-190133390D01*
X76674285Y-190133390D02*
X76579047Y-190085771D01*
X76579047Y-190085771D02*
X76388571Y-190085771D01*
X76388571Y-190085771D02*
X76293333Y-190133390D01*
X76293333Y-190133390D02*
X76245714Y-190181009D01*
X76245714Y-190181009D02*
X76198095Y-190276247D01*
X83150476Y-114657200D02*
X83293333Y-114704819D01*
X83293333Y-114704819D02*
X83531428Y-114704819D01*
X83531428Y-114704819D02*
X83626666Y-114657200D01*
X83626666Y-114657200D02*
X83674285Y-114609580D01*
X83674285Y-114609580D02*
X83721904Y-114514342D01*
X83721904Y-114514342D02*
X83721904Y-114419104D01*
X83721904Y-114419104D02*
X83674285Y-114323866D01*
X83674285Y-114323866D02*
X83626666Y-114276247D01*
X83626666Y-114276247D02*
X83531428Y-114228628D01*
X83531428Y-114228628D02*
X83340952Y-114181009D01*
X83340952Y-114181009D02*
X83245714Y-114133390D01*
X83245714Y-114133390D02*
X83198095Y-114085771D01*
X83198095Y-114085771D02*
X83150476Y-113990533D01*
X83150476Y-113990533D02*
X83150476Y-113895295D01*
X83150476Y-113895295D02*
X83198095Y-113800057D01*
X83198095Y-113800057D02*
X83245714Y-113752438D01*
X83245714Y-113752438D02*
X83340952Y-113704819D01*
X83340952Y-113704819D02*
X83579047Y-113704819D01*
X83579047Y-113704819D02*
X83721904Y-113752438D01*
X84055238Y-113704819D02*
X84293333Y-114704819D01*
X84293333Y-114704819D02*
X84483809Y-113990533D01*
X84483809Y-113990533D02*
X84674285Y-114704819D01*
X84674285Y-114704819D02*
X84912381Y-113704819D01*
X85817142Y-114704819D02*
X85245714Y-114704819D01*
X85531428Y-114704819D02*
X85531428Y-113704819D01*
X85531428Y-113704819D02*
X85436190Y-113847676D01*
X85436190Y-113847676D02*
X85340952Y-113942914D01*
X85340952Y-113942914D02*
X85245714Y-113990533D01*
X86150476Y-113704819D02*
X86817142Y-113704819D01*
X86817142Y-113704819D02*
X86388571Y-114704819D01*
X116150476Y-167407200D02*
X116293333Y-167454819D01*
X116293333Y-167454819D02*
X116531428Y-167454819D01*
X116531428Y-167454819D02*
X116626666Y-167407200D01*
X116626666Y-167407200D02*
X116674285Y-167359580D01*
X116674285Y-167359580D02*
X116721904Y-167264342D01*
X116721904Y-167264342D02*
X116721904Y-167169104D01*
X116721904Y-167169104D02*
X116674285Y-167073866D01*
X116674285Y-167073866D02*
X116626666Y-167026247D01*
X116626666Y-167026247D02*
X116531428Y-166978628D01*
X116531428Y-166978628D02*
X116340952Y-166931009D01*
X116340952Y-166931009D02*
X116245714Y-166883390D01*
X116245714Y-166883390D02*
X116198095Y-166835771D01*
X116198095Y-166835771D02*
X116150476Y-166740533D01*
X116150476Y-166740533D02*
X116150476Y-166645295D01*
X116150476Y-166645295D02*
X116198095Y-166550057D01*
X116198095Y-166550057D02*
X116245714Y-166502438D01*
X116245714Y-166502438D02*
X116340952Y-166454819D01*
X116340952Y-166454819D02*
X116579047Y-166454819D01*
X116579047Y-166454819D02*
X116721904Y-166502438D01*
X117055238Y-166454819D02*
X117293333Y-167454819D01*
X117293333Y-167454819D02*
X117483809Y-166740533D01*
X117483809Y-166740533D02*
X117674285Y-167454819D01*
X117674285Y-167454819D02*
X117912381Y-166454819D01*
X118198095Y-166454819D02*
X118817142Y-166454819D01*
X118817142Y-166454819D02*
X118483809Y-166835771D01*
X118483809Y-166835771D02*
X118626666Y-166835771D01*
X118626666Y-166835771D02*
X118721904Y-166883390D01*
X118721904Y-166883390D02*
X118769523Y-166931009D01*
X118769523Y-166931009D02*
X118817142Y-167026247D01*
X118817142Y-167026247D02*
X118817142Y-167264342D01*
X118817142Y-167264342D02*
X118769523Y-167359580D01*
X118769523Y-167359580D02*
X118721904Y-167407200D01*
X118721904Y-167407200D02*
X118626666Y-167454819D01*
X118626666Y-167454819D02*
X118340952Y-167454819D01*
X118340952Y-167454819D02*
X118245714Y-167407200D01*
X118245714Y-167407200D02*
X118198095Y-167359580D01*
X119388571Y-166883390D02*
X119293333Y-166835771D01*
X119293333Y-166835771D02*
X119245714Y-166788152D01*
X119245714Y-166788152D02*
X119198095Y-166692914D01*
X119198095Y-166692914D02*
X119198095Y-166645295D01*
X119198095Y-166645295D02*
X119245714Y-166550057D01*
X119245714Y-166550057D02*
X119293333Y-166502438D01*
X119293333Y-166502438D02*
X119388571Y-166454819D01*
X119388571Y-166454819D02*
X119579047Y-166454819D01*
X119579047Y-166454819D02*
X119674285Y-166502438D01*
X119674285Y-166502438D02*
X119721904Y-166550057D01*
X119721904Y-166550057D02*
X119769523Y-166645295D01*
X119769523Y-166645295D02*
X119769523Y-166692914D01*
X119769523Y-166692914D02*
X119721904Y-166788152D01*
X119721904Y-166788152D02*
X119674285Y-166835771D01*
X119674285Y-166835771D02*
X119579047Y-166883390D01*
X119579047Y-166883390D02*
X119388571Y-166883390D01*
X119388571Y-166883390D02*
X119293333Y-166931009D01*
X119293333Y-166931009D02*
X119245714Y-166978628D01*
X119245714Y-166978628D02*
X119198095Y-167073866D01*
X119198095Y-167073866D02*
X119198095Y-167264342D01*
X119198095Y-167264342D02*
X119245714Y-167359580D01*
X119245714Y-167359580D02*
X119293333Y-167407200D01*
X119293333Y-167407200D02*
X119388571Y-167454819D01*
X119388571Y-167454819D02*
X119579047Y-167454819D01*
X119579047Y-167454819D02*
X119674285Y-167407200D01*
X119674285Y-167407200D02*
X119721904Y-167359580D01*
X119721904Y-167359580D02*
X119769523Y-167264342D01*
X119769523Y-167264342D02*
X119769523Y-167073866D01*
X119769523Y-167073866D02*
X119721904Y-166978628D01*
X119721904Y-166978628D02*
X119674285Y-166931009D01*
X119674285Y-166931009D02*
X119579047Y-166883390D01*
X83150476Y-132157200D02*
X83293333Y-132204819D01*
X83293333Y-132204819D02*
X83531428Y-132204819D01*
X83531428Y-132204819D02*
X83626666Y-132157200D01*
X83626666Y-132157200D02*
X83674285Y-132109580D01*
X83674285Y-132109580D02*
X83721904Y-132014342D01*
X83721904Y-132014342D02*
X83721904Y-131919104D01*
X83721904Y-131919104D02*
X83674285Y-131823866D01*
X83674285Y-131823866D02*
X83626666Y-131776247D01*
X83626666Y-131776247D02*
X83531428Y-131728628D01*
X83531428Y-131728628D02*
X83340952Y-131681009D01*
X83340952Y-131681009D02*
X83245714Y-131633390D01*
X83245714Y-131633390D02*
X83198095Y-131585771D01*
X83198095Y-131585771D02*
X83150476Y-131490533D01*
X83150476Y-131490533D02*
X83150476Y-131395295D01*
X83150476Y-131395295D02*
X83198095Y-131300057D01*
X83198095Y-131300057D02*
X83245714Y-131252438D01*
X83245714Y-131252438D02*
X83340952Y-131204819D01*
X83340952Y-131204819D02*
X83579047Y-131204819D01*
X83579047Y-131204819D02*
X83721904Y-131252438D01*
X84055238Y-131204819D02*
X84293333Y-132204819D01*
X84293333Y-132204819D02*
X84483809Y-131490533D01*
X84483809Y-131490533D02*
X84674285Y-132204819D01*
X84674285Y-132204819D02*
X84912381Y-131204819D01*
X85817142Y-132204819D02*
X85245714Y-132204819D01*
X85531428Y-132204819D02*
X85531428Y-131204819D01*
X85531428Y-131204819D02*
X85436190Y-131347676D01*
X85436190Y-131347676D02*
X85340952Y-131442914D01*
X85340952Y-131442914D02*
X85245714Y-131490533D01*
X86293333Y-132204819D02*
X86483809Y-132204819D01*
X86483809Y-132204819D02*
X86579047Y-132157200D01*
X86579047Y-132157200D02*
X86626666Y-132109580D01*
X86626666Y-132109580D02*
X86721904Y-131966723D01*
X86721904Y-131966723D02*
X86769523Y-131776247D01*
X86769523Y-131776247D02*
X86769523Y-131395295D01*
X86769523Y-131395295D02*
X86721904Y-131300057D01*
X86721904Y-131300057D02*
X86674285Y-131252438D01*
X86674285Y-131252438D02*
X86579047Y-131204819D01*
X86579047Y-131204819D02*
X86388571Y-131204819D01*
X86388571Y-131204819D02*
X86293333Y-131252438D01*
X86293333Y-131252438D02*
X86245714Y-131300057D01*
X86245714Y-131300057D02*
X86198095Y-131395295D01*
X86198095Y-131395295D02*
X86198095Y-131633390D01*
X86198095Y-131633390D02*
X86245714Y-131728628D01*
X86245714Y-131728628D02*
X86293333Y-131776247D01*
X86293333Y-131776247D02*
X86388571Y-131823866D01*
X86388571Y-131823866D02*
X86579047Y-131823866D01*
X86579047Y-131823866D02*
X86674285Y-131776247D01*
X86674285Y-131776247D02*
X86721904Y-131728628D01*
X86721904Y-131728628D02*
X86769523Y-131633390D01*
X116150476Y-143907200D02*
X116293333Y-143954819D01*
X116293333Y-143954819D02*
X116531428Y-143954819D01*
X116531428Y-143954819D02*
X116626666Y-143907200D01*
X116626666Y-143907200D02*
X116674285Y-143859580D01*
X116674285Y-143859580D02*
X116721904Y-143764342D01*
X116721904Y-143764342D02*
X116721904Y-143669104D01*
X116721904Y-143669104D02*
X116674285Y-143573866D01*
X116674285Y-143573866D02*
X116626666Y-143526247D01*
X116626666Y-143526247D02*
X116531428Y-143478628D01*
X116531428Y-143478628D02*
X116340952Y-143431009D01*
X116340952Y-143431009D02*
X116245714Y-143383390D01*
X116245714Y-143383390D02*
X116198095Y-143335771D01*
X116198095Y-143335771D02*
X116150476Y-143240533D01*
X116150476Y-143240533D02*
X116150476Y-143145295D01*
X116150476Y-143145295D02*
X116198095Y-143050057D01*
X116198095Y-143050057D02*
X116245714Y-143002438D01*
X116245714Y-143002438D02*
X116340952Y-142954819D01*
X116340952Y-142954819D02*
X116579047Y-142954819D01*
X116579047Y-142954819D02*
X116721904Y-143002438D01*
X117055238Y-142954819D02*
X117293333Y-143954819D01*
X117293333Y-143954819D02*
X117483809Y-143240533D01*
X117483809Y-143240533D02*
X117674285Y-143954819D01*
X117674285Y-143954819D02*
X117912381Y-142954819D01*
X118198095Y-142954819D02*
X118817142Y-142954819D01*
X118817142Y-142954819D02*
X118483809Y-143335771D01*
X118483809Y-143335771D02*
X118626666Y-143335771D01*
X118626666Y-143335771D02*
X118721904Y-143383390D01*
X118721904Y-143383390D02*
X118769523Y-143431009D01*
X118769523Y-143431009D02*
X118817142Y-143526247D01*
X118817142Y-143526247D02*
X118817142Y-143764342D01*
X118817142Y-143764342D02*
X118769523Y-143859580D01*
X118769523Y-143859580D02*
X118721904Y-143907200D01*
X118721904Y-143907200D02*
X118626666Y-143954819D01*
X118626666Y-143954819D02*
X118340952Y-143954819D01*
X118340952Y-143954819D02*
X118245714Y-143907200D01*
X118245714Y-143907200D02*
X118198095Y-143859580D01*
X119674285Y-142954819D02*
X119483809Y-142954819D01*
X119483809Y-142954819D02*
X119388571Y-143002438D01*
X119388571Y-143002438D02*
X119340952Y-143050057D01*
X119340952Y-143050057D02*
X119245714Y-143192914D01*
X119245714Y-143192914D02*
X119198095Y-143383390D01*
X119198095Y-143383390D02*
X119198095Y-143764342D01*
X119198095Y-143764342D02*
X119245714Y-143859580D01*
X119245714Y-143859580D02*
X119293333Y-143907200D01*
X119293333Y-143907200D02*
X119388571Y-143954819D01*
X119388571Y-143954819D02*
X119579047Y-143954819D01*
X119579047Y-143954819D02*
X119674285Y-143907200D01*
X119674285Y-143907200D02*
X119721904Y-143859580D01*
X119721904Y-143859580D02*
X119769523Y-143764342D01*
X119769523Y-143764342D02*
X119769523Y-143526247D01*
X119769523Y-143526247D02*
X119721904Y-143431009D01*
X119721904Y-143431009D02*
X119674285Y-143383390D01*
X119674285Y-143383390D02*
X119579047Y-143335771D01*
X119579047Y-143335771D02*
X119388571Y-143335771D01*
X119388571Y-143335771D02*
X119293333Y-143383390D01*
X119293333Y-143383390D02*
X119245714Y-143431009D01*
X119245714Y-143431009D02*
X119198095Y-143526247D01*
X73150476Y-167407200D02*
X73293333Y-167454819D01*
X73293333Y-167454819D02*
X73531428Y-167454819D01*
X73531428Y-167454819D02*
X73626666Y-167407200D01*
X73626666Y-167407200D02*
X73674285Y-167359580D01*
X73674285Y-167359580D02*
X73721904Y-167264342D01*
X73721904Y-167264342D02*
X73721904Y-167169104D01*
X73721904Y-167169104D02*
X73674285Y-167073866D01*
X73674285Y-167073866D02*
X73626666Y-167026247D01*
X73626666Y-167026247D02*
X73531428Y-166978628D01*
X73531428Y-166978628D02*
X73340952Y-166931009D01*
X73340952Y-166931009D02*
X73245714Y-166883390D01*
X73245714Y-166883390D02*
X73198095Y-166835771D01*
X73198095Y-166835771D02*
X73150476Y-166740533D01*
X73150476Y-166740533D02*
X73150476Y-166645295D01*
X73150476Y-166645295D02*
X73198095Y-166550057D01*
X73198095Y-166550057D02*
X73245714Y-166502438D01*
X73245714Y-166502438D02*
X73340952Y-166454819D01*
X73340952Y-166454819D02*
X73579047Y-166454819D01*
X73579047Y-166454819D02*
X73721904Y-166502438D01*
X74055238Y-166454819D02*
X74293333Y-167454819D01*
X74293333Y-167454819D02*
X74483809Y-166740533D01*
X74483809Y-166740533D02*
X74674285Y-167454819D01*
X74674285Y-167454819D02*
X74912381Y-166454819D01*
X75817142Y-167454819D02*
X75245714Y-167454819D01*
X75531428Y-167454819D02*
X75531428Y-166454819D01*
X75531428Y-166454819D02*
X75436190Y-166597676D01*
X75436190Y-166597676D02*
X75340952Y-166692914D01*
X75340952Y-166692914D02*
X75245714Y-166740533D01*
X76674285Y-166788152D02*
X76674285Y-167454819D01*
X76436190Y-166407200D02*
X76198095Y-167121485D01*
X76198095Y-167121485D02*
X76817142Y-167121485D01*
X59126667Y-123657200D02*
X59269524Y-123704819D01*
X59269524Y-123704819D02*
X59507619Y-123704819D01*
X59507619Y-123704819D02*
X59602857Y-123657200D01*
X59602857Y-123657200D02*
X59650476Y-123609580D01*
X59650476Y-123609580D02*
X59698095Y-123514342D01*
X59698095Y-123514342D02*
X59698095Y-123419104D01*
X59698095Y-123419104D02*
X59650476Y-123323866D01*
X59650476Y-123323866D02*
X59602857Y-123276247D01*
X59602857Y-123276247D02*
X59507619Y-123228628D01*
X59507619Y-123228628D02*
X59317143Y-123181009D01*
X59317143Y-123181009D02*
X59221905Y-123133390D01*
X59221905Y-123133390D02*
X59174286Y-123085771D01*
X59174286Y-123085771D02*
X59126667Y-122990533D01*
X59126667Y-122990533D02*
X59126667Y-122895295D01*
X59126667Y-122895295D02*
X59174286Y-122800057D01*
X59174286Y-122800057D02*
X59221905Y-122752438D01*
X59221905Y-122752438D02*
X59317143Y-122704819D01*
X59317143Y-122704819D02*
X59555238Y-122704819D01*
X59555238Y-122704819D02*
X59698095Y-122752438D01*
X60031429Y-122704819D02*
X60269524Y-123704819D01*
X60269524Y-123704819D02*
X60460000Y-122990533D01*
X60460000Y-122990533D02*
X60650476Y-123704819D01*
X60650476Y-123704819D02*
X60888572Y-122704819D01*
X61221905Y-122800057D02*
X61269524Y-122752438D01*
X61269524Y-122752438D02*
X61364762Y-122704819D01*
X61364762Y-122704819D02*
X61602857Y-122704819D01*
X61602857Y-122704819D02*
X61698095Y-122752438D01*
X61698095Y-122752438D02*
X61745714Y-122800057D01*
X61745714Y-122800057D02*
X61793333Y-122895295D01*
X61793333Y-122895295D02*
X61793333Y-122990533D01*
X61793333Y-122990533D02*
X61745714Y-123133390D01*
X61745714Y-123133390D02*
X61174286Y-123704819D01*
X61174286Y-123704819D02*
X61793333Y-123704819D01*
X87650476Y-167407200D02*
X87793333Y-167454819D01*
X87793333Y-167454819D02*
X88031428Y-167454819D01*
X88031428Y-167454819D02*
X88126666Y-167407200D01*
X88126666Y-167407200D02*
X88174285Y-167359580D01*
X88174285Y-167359580D02*
X88221904Y-167264342D01*
X88221904Y-167264342D02*
X88221904Y-167169104D01*
X88221904Y-167169104D02*
X88174285Y-167073866D01*
X88174285Y-167073866D02*
X88126666Y-167026247D01*
X88126666Y-167026247D02*
X88031428Y-166978628D01*
X88031428Y-166978628D02*
X87840952Y-166931009D01*
X87840952Y-166931009D02*
X87745714Y-166883390D01*
X87745714Y-166883390D02*
X87698095Y-166835771D01*
X87698095Y-166835771D02*
X87650476Y-166740533D01*
X87650476Y-166740533D02*
X87650476Y-166645295D01*
X87650476Y-166645295D02*
X87698095Y-166550057D01*
X87698095Y-166550057D02*
X87745714Y-166502438D01*
X87745714Y-166502438D02*
X87840952Y-166454819D01*
X87840952Y-166454819D02*
X88079047Y-166454819D01*
X88079047Y-166454819D02*
X88221904Y-166502438D01*
X88555238Y-166454819D02*
X88793333Y-167454819D01*
X88793333Y-167454819D02*
X88983809Y-166740533D01*
X88983809Y-166740533D02*
X89174285Y-167454819D01*
X89174285Y-167454819D02*
X89412381Y-166454819D01*
X89745714Y-166550057D02*
X89793333Y-166502438D01*
X89793333Y-166502438D02*
X89888571Y-166454819D01*
X89888571Y-166454819D02*
X90126666Y-166454819D01*
X90126666Y-166454819D02*
X90221904Y-166502438D01*
X90221904Y-166502438D02*
X90269523Y-166550057D01*
X90269523Y-166550057D02*
X90317142Y-166645295D01*
X90317142Y-166645295D02*
X90317142Y-166740533D01*
X90317142Y-166740533D02*
X90269523Y-166883390D01*
X90269523Y-166883390D02*
X89698095Y-167454819D01*
X89698095Y-167454819D02*
X90317142Y-167454819D01*
X90698095Y-166550057D02*
X90745714Y-166502438D01*
X90745714Y-166502438D02*
X90840952Y-166454819D01*
X90840952Y-166454819D02*
X91079047Y-166454819D01*
X91079047Y-166454819D02*
X91174285Y-166502438D01*
X91174285Y-166502438D02*
X91221904Y-166550057D01*
X91221904Y-166550057D02*
X91269523Y-166645295D01*
X91269523Y-166645295D02*
X91269523Y-166740533D01*
X91269523Y-166740533D02*
X91221904Y-166883390D01*
X91221904Y-166883390D02*
X90650476Y-167454819D01*
X90650476Y-167454819D02*
X91269523Y-167454819D01*
X73150476Y-143907200D02*
X73293333Y-143954819D01*
X73293333Y-143954819D02*
X73531428Y-143954819D01*
X73531428Y-143954819D02*
X73626666Y-143907200D01*
X73626666Y-143907200D02*
X73674285Y-143859580D01*
X73674285Y-143859580D02*
X73721904Y-143764342D01*
X73721904Y-143764342D02*
X73721904Y-143669104D01*
X73721904Y-143669104D02*
X73674285Y-143573866D01*
X73674285Y-143573866D02*
X73626666Y-143526247D01*
X73626666Y-143526247D02*
X73531428Y-143478628D01*
X73531428Y-143478628D02*
X73340952Y-143431009D01*
X73340952Y-143431009D02*
X73245714Y-143383390D01*
X73245714Y-143383390D02*
X73198095Y-143335771D01*
X73198095Y-143335771D02*
X73150476Y-143240533D01*
X73150476Y-143240533D02*
X73150476Y-143145295D01*
X73150476Y-143145295D02*
X73198095Y-143050057D01*
X73198095Y-143050057D02*
X73245714Y-143002438D01*
X73245714Y-143002438D02*
X73340952Y-142954819D01*
X73340952Y-142954819D02*
X73579047Y-142954819D01*
X73579047Y-142954819D02*
X73721904Y-143002438D01*
X74055238Y-142954819D02*
X74293333Y-143954819D01*
X74293333Y-143954819D02*
X74483809Y-143240533D01*
X74483809Y-143240533D02*
X74674285Y-143954819D01*
X74674285Y-143954819D02*
X74912381Y-142954819D01*
X75817142Y-143954819D02*
X75245714Y-143954819D01*
X75531428Y-143954819D02*
X75531428Y-142954819D01*
X75531428Y-142954819D02*
X75436190Y-143097676D01*
X75436190Y-143097676D02*
X75340952Y-143192914D01*
X75340952Y-143192914D02*
X75245714Y-143240533D01*
X76198095Y-143050057D02*
X76245714Y-143002438D01*
X76245714Y-143002438D02*
X76340952Y-142954819D01*
X76340952Y-142954819D02*
X76579047Y-142954819D01*
X76579047Y-142954819D02*
X76674285Y-143002438D01*
X76674285Y-143002438D02*
X76721904Y-143050057D01*
X76721904Y-143050057D02*
X76769523Y-143145295D01*
X76769523Y-143145295D02*
X76769523Y-143240533D01*
X76769523Y-143240533D02*
X76721904Y-143383390D01*
X76721904Y-143383390D02*
X76150476Y-143954819D01*
X76150476Y-143954819D02*
X76769523Y-143954819D01*
X59126667Y-132157200D02*
X59269524Y-132204819D01*
X59269524Y-132204819D02*
X59507619Y-132204819D01*
X59507619Y-132204819D02*
X59602857Y-132157200D01*
X59602857Y-132157200D02*
X59650476Y-132109580D01*
X59650476Y-132109580D02*
X59698095Y-132014342D01*
X59698095Y-132014342D02*
X59698095Y-131919104D01*
X59698095Y-131919104D02*
X59650476Y-131823866D01*
X59650476Y-131823866D02*
X59602857Y-131776247D01*
X59602857Y-131776247D02*
X59507619Y-131728628D01*
X59507619Y-131728628D02*
X59317143Y-131681009D01*
X59317143Y-131681009D02*
X59221905Y-131633390D01*
X59221905Y-131633390D02*
X59174286Y-131585771D01*
X59174286Y-131585771D02*
X59126667Y-131490533D01*
X59126667Y-131490533D02*
X59126667Y-131395295D01*
X59126667Y-131395295D02*
X59174286Y-131300057D01*
X59174286Y-131300057D02*
X59221905Y-131252438D01*
X59221905Y-131252438D02*
X59317143Y-131204819D01*
X59317143Y-131204819D02*
X59555238Y-131204819D01*
X59555238Y-131204819D02*
X59698095Y-131252438D01*
X60031429Y-131204819D02*
X60269524Y-132204819D01*
X60269524Y-132204819D02*
X60460000Y-131490533D01*
X60460000Y-131490533D02*
X60650476Y-132204819D01*
X60650476Y-132204819D02*
X60888572Y-131204819D01*
X61174286Y-131204819D02*
X61793333Y-131204819D01*
X61793333Y-131204819D02*
X61460000Y-131585771D01*
X61460000Y-131585771D02*
X61602857Y-131585771D01*
X61602857Y-131585771D02*
X61698095Y-131633390D01*
X61698095Y-131633390D02*
X61745714Y-131681009D01*
X61745714Y-131681009D02*
X61793333Y-131776247D01*
X61793333Y-131776247D02*
X61793333Y-132014342D01*
X61793333Y-132014342D02*
X61745714Y-132109580D01*
X61745714Y-132109580D02*
X61698095Y-132157200D01*
X61698095Y-132157200D02*
X61602857Y-132204819D01*
X61602857Y-132204819D02*
X61317143Y-132204819D01*
X61317143Y-132204819D02*
X61221905Y-132157200D01*
X61221905Y-132157200D02*
X61174286Y-132109580D01*
X59126667Y-178907200D02*
X59269524Y-178954819D01*
X59269524Y-178954819D02*
X59507619Y-178954819D01*
X59507619Y-178954819D02*
X59602857Y-178907200D01*
X59602857Y-178907200D02*
X59650476Y-178859580D01*
X59650476Y-178859580D02*
X59698095Y-178764342D01*
X59698095Y-178764342D02*
X59698095Y-178669104D01*
X59698095Y-178669104D02*
X59650476Y-178573866D01*
X59650476Y-178573866D02*
X59602857Y-178526247D01*
X59602857Y-178526247D02*
X59507619Y-178478628D01*
X59507619Y-178478628D02*
X59317143Y-178431009D01*
X59317143Y-178431009D02*
X59221905Y-178383390D01*
X59221905Y-178383390D02*
X59174286Y-178335771D01*
X59174286Y-178335771D02*
X59126667Y-178240533D01*
X59126667Y-178240533D02*
X59126667Y-178145295D01*
X59126667Y-178145295D02*
X59174286Y-178050057D01*
X59174286Y-178050057D02*
X59221905Y-178002438D01*
X59221905Y-178002438D02*
X59317143Y-177954819D01*
X59317143Y-177954819D02*
X59555238Y-177954819D01*
X59555238Y-177954819D02*
X59698095Y-178002438D01*
X60031429Y-177954819D02*
X60269524Y-178954819D01*
X60269524Y-178954819D02*
X60460000Y-178240533D01*
X60460000Y-178240533D02*
X60650476Y-178954819D01*
X60650476Y-178954819D02*
X60888572Y-177954819D01*
X61174286Y-177954819D02*
X61840952Y-177954819D01*
X61840952Y-177954819D02*
X61412381Y-178954819D01*
X102150476Y-155657200D02*
X102293333Y-155704819D01*
X102293333Y-155704819D02*
X102531428Y-155704819D01*
X102531428Y-155704819D02*
X102626666Y-155657200D01*
X102626666Y-155657200D02*
X102674285Y-155609580D01*
X102674285Y-155609580D02*
X102721904Y-155514342D01*
X102721904Y-155514342D02*
X102721904Y-155419104D01*
X102721904Y-155419104D02*
X102674285Y-155323866D01*
X102674285Y-155323866D02*
X102626666Y-155276247D01*
X102626666Y-155276247D02*
X102531428Y-155228628D01*
X102531428Y-155228628D02*
X102340952Y-155181009D01*
X102340952Y-155181009D02*
X102245714Y-155133390D01*
X102245714Y-155133390D02*
X102198095Y-155085771D01*
X102198095Y-155085771D02*
X102150476Y-154990533D01*
X102150476Y-154990533D02*
X102150476Y-154895295D01*
X102150476Y-154895295D02*
X102198095Y-154800057D01*
X102198095Y-154800057D02*
X102245714Y-154752438D01*
X102245714Y-154752438D02*
X102340952Y-154704819D01*
X102340952Y-154704819D02*
X102579047Y-154704819D01*
X102579047Y-154704819D02*
X102721904Y-154752438D01*
X103055238Y-154704819D02*
X103293333Y-155704819D01*
X103293333Y-155704819D02*
X103483809Y-154990533D01*
X103483809Y-154990533D02*
X103674285Y-155704819D01*
X103674285Y-155704819D02*
X103912381Y-154704819D01*
X104245714Y-154800057D02*
X104293333Y-154752438D01*
X104293333Y-154752438D02*
X104388571Y-154704819D01*
X104388571Y-154704819D02*
X104626666Y-154704819D01*
X104626666Y-154704819D02*
X104721904Y-154752438D01*
X104721904Y-154752438D02*
X104769523Y-154800057D01*
X104769523Y-154800057D02*
X104817142Y-154895295D01*
X104817142Y-154895295D02*
X104817142Y-154990533D01*
X104817142Y-154990533D02*
X104769523Y-155133390D01*
X104769523Y-155133390D02*
X104198095Y-155704819D01*
X104198095Y-155704819D02*
X104817142Y-155704819D01*
X105293333Y-155704819D02*
X105483809Y-155704819D01*
X105483809Y-155704819D02*
X105579047Y-155657200D01*
X105579047Y-155657200D02*
X105626666Y-155609580D01*
X105626666Y-155609580D02*
X105721904Y-155466723D01*
X105721904Y-155466723D02*
X105769523Y-155276247D01*
X105769523Y-155276247D02*
X105769523Y-154895295D01*
X105769523Y-154895295D02*
X105721904Y-154800057D01*
X105721904Y-154800057D02*
X105674285Y-154752438D01*
X105674285Y-154752438D02*
X105579047Y-154704819D01*
X105579047Y-154704819D02*
X105388571Y-154704819D01*
X105388571Y-154704819D02*
X105293333Y-154752438D01*
X105293333Y-154752438D02*
X105245714Y-154800057D01*
X105245714Y-154800057D02*
X105198095Y-154895295D01*
X105198095Y-154895295D02*
X105198095Y-155133390D01*
X105198095Y-155133390D02*
X105245714Y-155228628D01*
X105245714Y-155228628D02*
X105293333Y-155276247D01*
X105293333Y-155276247D02*
X105388571Y-155323866D01*
X105388571Y-155323866D02*
X105579047Y-155323866D01*
X105579047Y-155323866D02*
X105674285Y-155276247D01*
X105674285Y-155276247D02*
X105721904Y-155228628D01*
X105721904Y-155228628D02*
X105769523Y-155133390D01*
X59126667Y-167407200D02*
X59269524Y-167454819D01*
X59269524Y-167454819D02*
X59507619Y-167454819D01*
X59507619Y-167454819D02*
X59602857Y-167407200D01*
X59602857Y-167407200D02*
X59650476Y-167359580D01*
X59650476Y-167359580D02*
X59698095Y-167264342D01*
X59698095Y-167264342D02*
X59698095Y-167169104D01*
X59698095Y-167169104D02*
X59650476Y-167073866D01*
X59650476Y-167073866D02*
X59602857Y-167026247D01*
X59602857Y-167026247D02*
X59507619Y-166978628D01*
X59507619Y-166978628D02*
X59317143Y-166931009D01*
X59317143Y-166931009D02*
X59221905Y-166883390D01*
X59221905Y-166883390D02*
X59174286Y-166835771D01*
X59174286Y-166835771D02*
X59126667Y-166740533D01*
X59126667Y-166740533D02*
X59126667Y-166645295D01*
X59126667Y-166645295D02*
X59174286Y-166550057D01*
X59174286Y-166550057D02*
X59221905Y-166502438D01*
X59221905Y-166502438D02*
X59317143Y-166454819D01*
X59317143Y-166454819D02*
X59555238Y-166454819D01*
X59555238Y-166454819D02*
X59698095Y-166502438D01*
X60031429Y-166454819D02*
X60269524Y-167454819D01*
X60269524Y-167454819D02*
X60460000Y-166740533D01*
X60460000Y-166740533D02*
X60650476Y-167454819D01*
X60650476Y-167454819D02*
X60888572Y-166454819D01*
X61698095Y-166454819D02*
X61507619Y-166454819D01*
X61507619Y-166454819D02*
X61412381Y-166502438D01*
X61412381Y-166502438D02*
X61364762Y-166550057D01*
X61364762Y-166550057D02*
X61269524Y-166692914D01*
X61269524Y-166692914D02*
X61221905Y-166883390D01*
X61221905Y-166883390D02*
X61221905Y-167264342D01*
X61221905Y-167264342D02*
X61269524Y-167359580D01*
X61269524Y-167359580D02*
X61317143Y-167407200D01*
X61317143Y-167407200D02*
X61412381Y-167454819D01*
X61412381Y-167454819D02*
X61602857Y-167454819D01*
X61602857Y-167454819D02*
X61698095Y-167407200D01*
X61698095Y-167407200D02*
X61745714Y-167359580D01*
X61745714Y-167359580D02*
X61793333Y-167264342D01*
X61793333Y-167264342D02*
X61793333Y-167026247D01*
X61793333Y-167026247D02*
X61745714Y-166931009D01*
X61745714Y-166931009D02*
X61698095Y-166883390D01*
X61698095Y-166883390D02*
X61602857Y-166835771D01*
X61602857Y-166835771D02*
X61412381Y-166835771D01*
X61412381Y-166835771D02*
X61317143Y-166883390D01*
X61317143Y-166883390D02*
X61269524Y-166931009D01*
X61269524Y-166931009D02*
X61221905Y-167026247D01*
X113367200Y-130309523D02*
X113414819Y-130166666D01*
X113414819Y-130166666D02*
X113414819Y-129928571D01*
X113414819Y-129928571D02*
X113367200Y-129833333D01*
X113367200Y-129833333D02*
X113319580Y-129785714D01*
X113319580Y-129785714D02*
X113224342Y-129738095D01*
X113224342Y-129738095D02*
X113129104Y-129738095D01*
X113129104Y-129738095D02*
X113033866Y-129785714D01*
X113033866Y-129785714D02*
X112986247Y-129833333D01*
X112986247Y-129833333D02*
X112938628Y-129928571D01*
X112938628Y-129928571D02*
X112891009Y-130119047D01*
X112891009Y-130119047D02*
X112843390Y-130214285D01*
X112843390Y-130214285D02*
X112795771Y-130261904D01*
X112795771Y-130261904D02*
X112700533Y-130309523D01*
X112700533Y-130309523D02*
X112605295Y-130309523D01*
X112605295Y-130309523D02*
X112510057Y-130261904D01*
X112510057Y-130261904D02*
X112462438Y-130214285D01*
X112462438Y-130214285D02*
X112414819Y-130119047D01*
X112414819Y-130119047D02*
X112414819Y-129880952D01*
X112414819Y-129880952D02*
X112462438Y-129738095D01*
X112414819Y-129404761D02*
X113414819Y-129166666D01*
X113414819Y-129166666D02*
X112700533Y-128976190D01*
X112700533Y-128976190D02*
X113414819Y-128785714D01*
X113414819Y-128785714D02*
X112414819Y-128547619D01*
X112414819Y-128261904D02*
X112414819Y-127642857D01*
X112414819Y-127642857D02*
X112795771Y-127976190D01*
X112795771Y-127976190D02*
X112795771Y-127833333D01*
X112795771Y-127833333D02*
X112843390Y-127738095D01*
X112843390Y-127738095D02*
X112891009Y-127690476D01*
X112891009Y-127690476D02*
X112986247Y-127642857D01*
X112986247Y-127642857D02*
X113224342Y-127642857D01*
X113224342Y-127642857D02*
X113319580Y-127690476D01*
X113319580Y-127690476D02*
X113367200Y-127738095D01*
X113367200Y-127738095D02*
X113414819Y-127833333D01*
X113414819Y-127833333D02*
X113414819Y-128119047D01*
X113414819Y-128119047D02*
X113367200Y-128214285D01*
X113367200Y-128214285D02*
X113319580Y-128261904D01*
X112414819Y-126738095D02*
X112414819Y-127214285D01*
X112414819Y-127214285D02*
X112891009Y-127261904D01*
X112891009Y-127261904D02*
X112843390Y-127214285D01*
X112843390Y-127214285D02*
X112795771Y-127119047D01*
X112795771Y-127119047D02*
X112795771Y-126880952D01*
X112795771Y-126880952D02*
X112843390Y-126785714D01*
X112843390Y-126785714D02*
X112891009Y-126738095D01*
X112891009Y-126738095D02*
X112986247Y-126690476D01*
X112986247Y-126690476D02*
X113224342Y-126690476D01*
X113224342Y-126690476D02*
X113319580Y-126738095D01*
X113319580Y-126738095D02*
X113367200Y-126785714D01*
X113367200Y-126785714D02*
X113414819Y-126880952D01*
X113414819Y-126880952D02*
X113414819Y-127119047D01*
X113414819Y-127119047D02*
X113367200Y-127214285D01*
X113367200Y-127214285D02*
X113319580Y-127261904D01*
X70900476Y-123657200D02*
X71043333Y-123704819D01*
X71043333Y-123704819D02*
X71281428Y-123704819D01*
X71281428Y-123704819D02*
X71376666Y-123657200D01*
X71376666Y-123657200D02*
X71424285Y-123609580D01*
X71424285Y-123609580D02*
X71471904Y-123514342D01*
X71471904Y-123514342D02*
X71471904Y-123419104D01*
X71471904Y-123419104D02*
X71424285Y-123323866D01*
X71424285Y-123323866D02*
X71376666Y-123276247D01*
X71376666Y-123276247D02*
X71281428Y-123228628D01*
X71281428Y-123228628D02*
X71090952Y-123181009D01*
X71090952Y-123181009D02*
X70995714Y-123133390D01*
X70995714Y-123133390D02*
X70948095Y-123085771D01*
X70948095Y-123085771D02*
X70900476Y-122990533D01*
X70900476Y-122990533D02*
X70900476Y-122895295D01*
X70900476Y-122895295D02*
X70948095Y-122800057D01*
X70948095Y-122800057D02*
X70995714Y-122752438D01*
X70995714Y-122752438D02*
X71090952Y-122704819D01*
X71090952Y-122704819D02*
X71329047Y-122704819D01*
X71329047Y-122704819D02*
X71471904Y-122752438D01*
X71805238Y-122704819D02*
X72043333Y-123704819D01*
X72043333Y-123704819D02*
X72233809Y-122990533D01*
X72233809Y-122990533D02*
X72424285Y-123704819D01*
X72424285Y-123704819D02*
X72662381Y-122704819D01*
X73567142Y-123704819D02*
X72995714Y-123704819D01*
X73281428Y-123704819D02*
X73281428Y-122704819D01*
X73281428Y-122704819D02*
X73186190Y-122847676D01*
X73186190Y-122847676D02*
X73090952Y-122942914D01*
X73090952Y-122942914D02*
X72995714Y-122990533D01*
X74186190Y-122704819D02*
X74281428Y-122704819D01*
X74281428Y-122704819D02*
X74376666Y-122752438D01*
X74376666Y-122752438D02*
X74424285Y-122800057D01*
X74424285Y-122800057D02*
X74471904Y-122895295D01*
X74471904Y-122895295D02*
X74519523Y-123085771D01*
X74519523Y-123085771D02*
X74519523Y-123323866D01*
X74519523Y-123323866D02*
X74471904Y-123514342D01*
X74471904Y-123514342D02*
X74424285Y-123609580D01*
X74424285Y-123609580D02*
X74376666Y-123657200D01*
X74376666Y-123657200D02*
X74281428Y-123704819D01*
X74281428Y-123704819D02*
X74186190Y-123704819D01*
X74186190Y-123704819D02*
X74090952Y-123657200D01*
X74090952Y-123657200D02*
X74043333Y-123609580D01*
X74043333Y-123609580D02*
X73995714Y-123514342D01*
X73995714Y-123514342D02*
X73948095Y-123323866D01*
X73948095Y-123323866D02*
X73948095Y-123085771D01*
X73948095Y-123085771D02*
X73995714Y-122895295D01*
X73995714Y-122895295D02*
X74043333Y-122800057D01*
X74043333Y-122800057D02*
X74090952Y-122752438D01*
X74090952Y-122752438D02*
X74186190Y-122704819D01*
X116150476Y-155657200D02*
X116293333Y-155704819D01*
X116293333Y-155704819D02*
X116531428Y-155704819D01*
X116531428Y-155704819D02*
X116626666Y-155657200D01*
X116626666Y-155657200D02*
X116674285Y-155609580D01*
X116674285Y-155609580D02*
X116721904Y-155514342D01*
X116721904Y-155514342D02*
X116721904Y-155419104D01*
X116721904Y-155419104D02*
X116674285Y-155323866D01*
X116674285Y-155323866D02*
X116626666Y-155276247D01*
X116626666Y-155276247D02*
X116531428Y-155228628D01*
X116531428Y-155228628D02*
X116340952Y-155181009D01*
X116340952Y-155181009D02*
X116245714Y-155133390D01*
X116245714Y-155133390D02*
X116198095Y-155085771D01*
X116198095Y-155085771D02*
X116150476Y-154990533D01*
X116150476Y-154990533D02*
X116150476Y-154895295D01*
X116150476Y-154895295D02*
X116198095Y-154800057D01*
X116198095Y-154800057D02*
X116245714Y-154752438D01*
X116245714Y-154752438D02*
X116340952Y-154704819D01*
X116340952Y-154704819D02*
X116579047Y-154704819D01*
X116579047Y-154704819D02*
X116721904Y-154752438D01*
X117055238Y-154704819D02*
X117293333Y-155704819D01*
X117293333Y-155704819D02*
X117483809Y-154990533D01*
X117483809Y-154990533D02*
X117674285Y-155704819D01*
X117674285Y-155704819D02*
X117912381Y-154704819D01*
X118198095Y-154704819D02*
X118817142Y-154704819D01*
X118817142Y-154704819D02*
X118483809Y-155085771D01*
X118483809Y-155085771D02*
X118626666Y-155085771D01*
X118626666Y-155085771D02*
X118721904Y-155133390D01*
X118721904Y-155133390D02*
X118769523Y-155181009D01*
X118769523Y-155181009D02*
X118817142Y-155276247D01*
X118817142Y-155276247D02*
X118817142Y-155514342D01*
X118817142Y-155514342D02*
X118769523Y-155609580D01*
X118769523Y-155609580D02*
X118721904Y-155657200D01*
X118721904Y-155657200D02*
X118626666Y-155704819D01*
X118626666Y-155704819D02*
X118340952Y-155704819D01*
X118340952Y-155704819D02*
X118245714Y-155657200D01*
X118245714Y-155657200D02*
X118198095Y-155609580D01*
X119150476Y-154704819D02*
X119817142Y-154704819D01*
X119817142Y-154704819D02*
X119388571Y-155704819D01*
D11*
G04 #@! TO.C,SW39*
X114460000Y-182000000D02*
X114460000Y-183500000D01*
X115710000Y-186000000D02*
X120210000Y-186000000D01*
X120210000Y-179500000D02*
X115710000Y-179500000D01*
X121460000Y-183500000D02*
X121460000Y-182000000D01*
G04 #@! TO.C,SW30*
X100460000Y-170500000D02*
X100460000Y-172000000D01*
X101710000Y-174500000D02*
X106210000Y-174500000D01*
X106210000Y-168000000D02*
X101710000Y-168000000D01*
X107460000Y-172000000D02*
X107460000Y-170500000D01*
G04 #@! TO.C,SW4*
X56960000Y-147000000D02*
X56960000Y-148500000D01*
X58210000Y-151000000D02*
X62710000Y-151000000D01*
X62710000Y-144500000D02*
X58210000Y-144500000D01*
X63960000Y-148500000D02*
X63960000Y-147000000D01*
G04 #@! TO.C,SW26*
X97960000Y-126250000D02*
X97960000Y-130750000D01*
X100460000Y-132000000D02*
X101960000Y-132000000D01*
X101960000Y-125000000D02*
X100460000Y-125000000D01*
X104460000Y-130750000D02*
X104460000Y-126250000D01*
G04 #@! TO.C,SW25*
X105710000Y-118000000D02*
X105710000Y-119500000D01*
X106960000Y-122000000D02*
X111460000Y-122000000D01*
X111460000Y-115500000D02*
X106960000Y-115500000D01*
X112710000Y-119500000D02*
X112710000Y-118000000D01*
G04 #@! TO.C,SW28*
X100460000Y-147000000D02*
X100460000Y-148500000D01*
X101710000Y-151000000D02*
X106210000Y-151000000D01*
X106210000Y-144500000D02*
X101710000Y-144500000D01*
X107460000Y-148500000D02*
X107460000Y-147000000D01*
G04 #@! TO.C,SW11*
X69210000Y-135250000D02*
X69210000Y-136750000D01*
X70460000Y-139250000D02*
X74960000Y-139250000D01*
X74960000Y-132750000D02*
X70460000Y-132750000D01*
X76210000Y-136750000D02*
X76210000Y-135250000D01*
G04 #@! TO.C,SW5*
X56960000Y-158750000D02*
X56960000Y-160250000D01*
X58210000Y-162750000D02*
X62710000Y-162750000D01*
X62710000Y-156250000D02*
X58210000Y-156250000D01*
X63960000Y-160250000D02*
X63960000Y-158750000D01*
G04 #@! TO.C,SW15*
X71460000Y-182000000D02*
X71460000Y-183500000D01*
X72710000Y-186000000D02*
X77210000Y-186000000D01*
X77210000Y-179500000D02*
X72710000Y-179500000D01*
X78460000Y-183500000D02*
X78460000Y-182000000D01*
G04 #@! TO.C,SW23*
X85960000Y-182000000D02*
X85960000Y-183500000D01*
X87210000Y-186000000D02*
X91710000Y-186000000D01*
X91710000Y-179500000D02*
X87210000Y-179500000D01*
X92960000Y-183500000D02*
X92960000Y-182000000D01*
G04 #@! TO.C,SW8*
X56960000Y-193750000D02*
X56960000Y-195250000D01*
X58210000Y-197750000D02*
X62710000Y-197750000D01*
X62710000Y-191250000D02*
X58210000Y-191250000D01*
X63960000Y-195250000D02*
X63960000Y-193750000D01*
G04 #@! TO.C,SW20*
X85960000Y-147000000D02*
X85960000Y-148500000D01*
X87210000Y-151000000D02*
X91710000Y-151000000D01*
X91710000Y-144500000D02*
X87210000Y-144500000D01*
X92960000Y-148500000D02*
X92960000Y-147000000D01*
G04 #@! TO.C,SW18*
X81460000Y-126750000D02*
X81460000Y-128250000D01*
X82710000Y-130750000D02*
X87210000Y-130750000D01*
X87210000Y-124250000D02*
X82710000Y-124250000D01*
X88460000Y-128250000D02*
X88460000Y-126750000D01*
G04 #@! TO.C,SW13*
X71460000Y-158750000D02*
X71460000Y-160250000D01*
X72710000Y-162750000D02*
X77210000Y-162750000D01*
X77210000Y-156250000D02*
X72710000Y-156250000D01*
X78460000Y-160250000D02*
X78460000Y-158750000D01*
G04 #@! TO.C,SW21*
X85960000Y-158750000D02*
X85960000Y-160250000D01*
X87210000Y-162750000D02*
X91710000Y-162750000D01*
X91710000Y-156250000D02*
X87210000Y-156250000D01*
X92960000Y-160250000D02*
X92960000Y-158750000D01*
G04 #@! TO.C,SW24*
X85960000Y-193750000D02*
X85960000Y-195250000D01*
X87210000Y-197750000D02*
X91710000Y-197750000D01*
X91710000Y-191250000D02*
X87210000Y-191250000D01*
X92960000Y-195250000D02*
X92960000Y-193750000D01*
G04 #@! TO.C,SW32*
X100460000Y-193750000D02*
X100460000Y-195250000D01*
X101710000Y-197750000D02*
X106210000Y-197750000D01*
X106210000Y-191250000D02*
X101710000Y-191250000D01*
X107460000Y-195250000D02*
X107460000Y-193750000D01*
G04 #@! TO.C,SW1*
X56960000Y-117750000D02*
X56960000Y-119250000D01*
X58210000Y-121750000D02*
X62710000Y-121750000D01*
X62710000Y-115250000D02*
X58210000Y-115250000D01*
X63960000Y-119250000D02*
X63960000Y-117750000D01*
G04 #@! TO.C,SW31*
X100460000Y-182000000D02*
X100460000Y-183500000D01*
X101710000Y-186000000D02*
X106210000Y-186000000D01*
X106210000Y-179500000D02*
X101710000Y-179500000D01*
X107460000Y-183500000D02*
X107460000Y-182000000D01*
G04 #@! TO.C,SW40*
X114460000Y-193750000D02*
X114460000Y-195250000D01*
X115710000Y-197750000D02*
X120210000Y-197750000D01*
X120210000Y-191250000D02*
X115710000Y-191250000D01*
X121460000Y-195250000D02*
X121460000Y-193750000D01*
G04 #@! TO.C,SW9*
X69210000Y-117750000D02*
X69210000Y-119250000D01*
X70460000Y-121750000D02*
X74960000Y-121750000D01*
X74960000Y-115250000D02*
X70460000Y-115250000D01*
X76210000Y-119250000D02*
X76210000Y-117750000D01*
G04 #@! TO.C,SW34*
X105960000Y-126250000D02*
X105960000Y-130750000D01*
X108460000Y-132000000D02*
X109960000Y-132000000D01*
X109960000Y-125000000D02*
X108460000Y-125000000D01*
X112460000Y-130750000D02*
X112460000Y-126250000D01*
G04 #@! TO.C,A1*
X59850000Y-75000000D02*
X59850000Y-77490000D01*
X59850000Y-77490000D02*
X60763520Y-77490000D01*
X59850000Y-78837939D02*
X59850000Y-77490000D01*
X59850000Y-80765000D02*
X59850000Y-79762061D01*
X59850000Y-81100000D02*
X60766000Y-81100000D01*
X59850000Y-88900000D02*
X60766000Y-88900000D01*
X59850000Y-89235000D02*
X59850000Y-80765000D01*
X59850000Y-90237939D02*
X59850000Y-89235000D01*
X59850000Y-92510000D02*
X59850000Y-91162060D01*
X59850000Y-92510000D02*
X60763520Y-92510000D01*
X59850000Y-95000000D02*
X59850000Y-92510000D01*
X60270000Y-95579676D02*
X60270000Y-96090000D01*
X60270063Y-74730000D02*
X59913000Y-74730000D01*
X60270063Y-95270000D02*
X59913000Y-95270000D01*
X62390000Y-74390000D02*
X62810000Y-74390000D01*
X62390000Y-74730000D02*
X62810000Y-74730000D01*
X62390000Y-95270000D02*
X62810000Y-95270000D01*
X62390000Y-95610000D02*
X62390000Y-96090000D01*
X62390000Y-95610000D02*
X62810000Y-95610000D01*
X63154000Y-81100000D02*
X64370000Y-81100000D01*
X63154000Y-88900000D02*
X64370000Y-88900000D01*
X63156480Y-77490000D02*
X107763520Y-77490000D01*
X63156480Y-92510000D02*
X107763520Y-92510000D01*
X64370000Y-81396090D02*
X64370000Y-81100000D01*
X64370000Y-86246090D02*
X64370000Y-83753910D01*
X64370000Y-88900000D02*
X64370000Y-88603910D01*
X64930000Y-74390000D02*
X65350000Y-74390000D01*
X64930000Y-74730000D02*
X65350000Y-74730000D01*
X64930000Y-95270000D02*
X65350000Y-95270000D01*
X64930000Y-95610000D02*
X65350000Y-95610000D01*
X67470000Y-74390000D02*
X67890000Y-74390000D01*
X67470000Y-74730000D02*
X67890000Y-74730000D01*
X67470000Y-95270000D02*
X67890000Y-95270000D01*
X67470000Y-95610000D02*
X67890000Y-95610000D01*
X70010000Y-74390000D02*
X70430000Y-74390000D01*
X70010000Y-74730000D02*
X70430000Y-74730000D01*
X70010000Y-95270000D02*
X70430000Y-95270000D01*
X70010000Y-95610000D02*
X70430000Y-95610000D01*
X72550000Y-74390000D02*
X72970000Y-74390000D01*
X72550000Y-74730000D02*
X72970000Y-74730000D01*
X72550000Y-95270000D02*
X72970000Y-95270000D01*
X72550000Y-95610000D02*
X72970000Y-95610000D01*
X75090000Y-74390000D02*
X75510000Y-74390000D01*
X75090000Y-74730000D02*
X75510000Y-74730000D01*
X75090000Y-95270000D02*
X75510000Y-95270000D01*
X75090000Y-95610000D02*
X75510000Y-95610000D01*
X77630000Y-74390000D02*
X78050000Y-74390000D01*
X77630000Y-74730000D02*
X78050000Y-74730000D01*
X77630000Y-95270000D02*
X78050000Y-95270000D01*
X77630000Y-95610000D02*
X78050000Y-95610000D01*
X80170000Y-74390000D02*
X80590000Y-74390000D01*
X80170000Y-74730000D02*
X80590000Y-74730000D01*
X80170000Y-95270000D02*
X80590000Y-95270000D01*
X80170000Y-95610000D02*
X80590000Y-95610000D01*
X82710000Y-74390000D02*
X83130000Y-74390000D01*
X82710000Y-74730000D02*
X83130000Y-74730000D01*
X82710000Y-95270000D02*
X83130000Y-95270000D01*
X82710000Y-95610000D02*
X83130000Y-95610000D01*
X85250000Y-74390000D02*
X85670000Y-74390000D01*
X85250000Y-74730000D02*
X85670000Y-74730000D01*
X85250000Y-95270000D02*
X85670000Y-95270000D01*
X85250000Y-95610000D02*
X85670000Y-95610000D01*
X87790000Y-74390000D02*
X88210000Y-74390000D01*
X87790000Y-74730000D02*
X88210000Y-74730000D01*
X87790000Y-95270000D02*
X88210000Y-95270000D01*
X87790000Y-95610000D02*
X88210000Y-95610000D01*
X90330000Y-74390000D02*
X90750000Y-74390000D01*
X90330000Y-74730000D02*
X90750000Y-74730000D01*
X90330000Y-95270000D02*
X90750000Y-95270000D01*
X90330000Y-95610000D02*
X90750000Y-95610000D01*
X92870000Y-74390000D02*
X93290000Y-74390000D01*
X92870000Y-74730000D02*
X93290000Y-74730000D01*
X92870000Y-95270000D02*
X93290000Y-95270000D01*
X92870000Y-95610000D02*
X93290000Y-95610000D01*
X95410000Y-74390000D02*
X95830000Y-74390000D01*
X95410000Y-74730000D02*
X95830000Y-74730000D01*
X95410000Y-95270000D02*
X95830000Y-95270000D01*
X95410000Y-95610000D02*
X95830000Y-95610000D01*
X97950000Y-74390000D02*
X98370000Y-74390000D01*
X97950000Y-74730000D02*
X98370000Y-74730000D01*
X97950000Y-95270000D02*
X98370000Y-95270000D01*
X97950000Y-95610000D02*
X98370000Y-95610000D01*
X100490000Y-74390000D02*
X100910000Y-74390000D01*
X100490000Y-74730000D02*
X100910000Y-74730000D01*
X100490000Y-95270000D02*
X100910000Y-95270000D01*
X100490000Y-95610000D02*
X100910000Y-95610000D01*
X103030000Y-74390000D02*
X103450000Y-74390000D01*
X103030000Y-74730000D02*
X103450000Y-74730000D01*
X103030000Y-95270000D02*
X103450000Y-95270000D01*
X103030000Y-95610000D02*
X103450000Y-95610000D01*
X105570000Y-74390000D02*
X105990000Y-74390000D01*
X105570000Y-74730000D02*
X105990000Y-74730000D01*
X105570000Y-95270000D02*
X105990000Y-95270000D01*
X105570000Y-95610000D02*
X105990000Y-95610000D01*
X108110000Y-74390000D02*
X108530000Y-74390000D01*
X108110000Y-74730000D02*
X108530000Y-74730000D01*
X108110000Y-95270000D02*
X108530000Y-95270000D01*
X108110000Y-95610000D02*
X108530000Y-95610000D01*
X110156480Y-77490000D02*
X111070000Y-77490000D01*
X110156480Y-92510000D02*
X111070000Y-92510000D01*
X110649937Y-74730000D02*
X111007000Y-74730000D01*
X110649937Y-95270000D02*
X111007000Y-95270000D01*
X111070000Y-78837939D02*
X111070000Y-75000000D01*
X111070000Y-79762061D02*
X111070000Y-81400000D01*
X111070000Y-81400000D02*
X111070000Y-88600000D01*
X111070000Y-88600000D02*
X111070000Y-90237939D01*
X111070000Y-95000000D02*
X111070000Y-91162061D01*
X59850000Y-75000000D02*
G75*
G02*
X60270063Y-74420324I610000J0D01*
G01*
X60270000Y-95579676D02*
G75*
G02*
X59850000Y-95000000I190051J579692D01*
G01*
X110649937Y-74420324D02*
G75*
G02*
X111070069Y-75000000I-189837J-579676D01*
G01*
X111070000Y-95000000D02*
G75*
G02*
X110649937Y-95579676I-610002J1D01*
G01*
G04 #@! TO.C,SW27*
X105710000Y-137250000D02*
X105710000Y-138750000D01*
X106960000Y-141250000D02*
X111460000Y-141250000D01*
X111460000Y-134750000D02*
X106960000Y-134750000D01*
X112710000Y-138750000D02*
X112710000Y-137250000D01*
G04 #@! TO.C,U5*
X42010000Y-18600000D02*
X42010000Y-69400000D01*
X42010000Y-69400000D02*
X130910000Y-69400000D01*
X49884000Y-69400000D02*
X49884000Y-18600000D01*
X118210000Y-69400000D02*
X118210000Y-18600000D01*
X124846000Y-61760000D02*
X124846000Y-26240000D01*
X125100000Y-26240000D02*
X129100000Y-26240000D01*
X125100000Y-59240000D02*
X129100000Y-59240000D01*
X129100000Y-26240000D02*
X129100000Y-61760000D01*
X129100000Y-61760000D02*
X125100000Y-61760000D01*
X130910000Y-18600000D02*
X42010000Y-18600000D01*
X130910000Y-69400000D02*
X130910000Y-18600000D01*
X47616051Y-21902000D02*
G75*
G02*
X44023949Y-21902000I-1796051J0D01*
G01*
X44023949Y-21902000D02*
G75*
G02*
X47616051Y-21902000I1796051J0D01*
G01*
X47616051Y-65844000D02*
G75*
G02*
X44023949Y-65844000I-1796051J0D01*
G01*
X44023949Y-65844000D02*
G75*
G02*
X47616051Y-65844000I1796051J0D01*
G01*
X124197051Y-21775000D02*
G75*
G02*
X120604949Y-21775000I-1796051J0D01*
G01*
X120604949Y-21775000D02*
G75*
G02*
X124197051Y-21775000I1796051J0D01*
G01*
X124197051Y-66225000D02*
G75*
G02*
X120604949Y-66225000I-1796051J0D01*
G01*
X120604949Y-66225000D02*
G75*
G02*
X124197051Y-66225000I1796051J0D01*
G01*
G04 #@! TO.C,SW16*
X71460000Y-193750000D02*
X71460000Y-195250000D01*
X72710000Y-197750000D02*
X77210000Y-197750000D01*
X77210000Y-191250000D02*
X72710000Y-191250000D01*
X78460000Y-195250000D02*
X78460000Y-193750000D01*
G04 #@! TO.C,SW17*
X81460000Y-117750000D02*
X81460000Y-119250000D01*
X82710000Y-121750000D02*
X87210000Y-121750000D01*
X87210000Y-115250000D02*
X82710000Y-115250000D01*
X88460000Y-119250000D02*
X88460000Y-117750000D01*
G04 #@! TO.C,SW38*
X114460000Y-170500000D02*
X114460000Y-172000000D01*
X115710000Y-174500000D02*
X120210000Y-174500000D01*
X120210000Y-168000000D02*
X115710000Y-168000000D01*
X121460000Y-172000000D02*
X121460000Y-170500000D01*
G04 #@! TO.C,SW19*
X81460000Y-135250000D02*
X81460000Y-136750000D01*
X82710000Y-139250000D02*
X87210000Y-139250000D01*
X87210000Y-132750000D02*
X82710000Y-132750000D01*
X88460000Y-136750000D02*
X88460000Y-135250000D01*
G04 #@! TO.C,SW36*
X114460000Y-147000000D02*
X114460000Y-148500000D01*
X115710000Y-151000000D02*
X120210000Y-151000000D01*
X120210000Y-144500000D02*
X115710000Y-144500000D01*
X121460000Y-148500000D02*
X121460000Y-147000000D01*
G04 #@! TO.C,SW14*
X71460000Y-170500000D02*
X71460000Y-172000000D01*
X72710000Y-174500000D02*
X77210000Y-174500000D01*
X77210000Y-168000000D02*
X72710000Y-168000000D01*
X78460000Y-172000000D02*
X78460000Y-170500000D01*
G04 #@! TO.C,SW2*
X56960000Y-126750000D02*
X56960000Y-128250000D01*
X58210000Y-130750000D02*
X62710000Y-130750000D01*
X62710000Y-124250000D02*
X58210000Y-124250000D01*
X63960000Y-128250000D02*
X63960000Y-126750000D01*
G04 #@! TO.C,SW22*
X85960000Y-170500000D02*
X85960000Y-172000000D01*
X87210000Y-174500000D02*
X91710000Y-174500000D01*
X91710000Y-168000000D02*
X87210000Y-168000000D01*
X92960000Y-172000000D02*
X92960000Y-170500000D01*
G04 #@! TO.C,SW12*
X71460000Y-147000000D02*
X71460000Y-148500000D01*
X72710000Y-151000000D02*
X77210000Y-151000000D01*
X77210000Y-144500000D02*
X72710000Y-144500000D01*
X78460000Y-148500000D02*
X78460000Y-147000000D01*
G04 #@! TO.C,SW3*
X56960000Y-135250000D02*
X56960000Y-136750000D01*
X58210000Y-139250000D02*
X62710000Y-139250000D01*
X62710000Y-132750000D02*
X58210000Y-132750000D01*
X63960000Y-136750000D02*
X63960000Y-135250000D01*
G04 #@! TO.C,SW7*
X56960000Y-182000000D02*
X56960000Y-183500000D01*
X58210000Y-186000000D02*
X62710000Y-186000000D01*
X62710000Y-179500000D02*
X58210000Y-179500000D01*
X63960000Y-183500000D02*
X63960000Y-182000000D01*
G04 #@! TO.C,SW29*
X100460000Y-158750000D02*
X100460000Y-160250000D01*
X101710000Y-162750000D02*
X106210000Y-162750000D01*
X106210000Y-156250000D02*
X101710000Y-156250000D01*
X107460000Y-160250000D02*
X107460000Y-158750000D01*
G04 #@! TO.C,SW6*
X56960000Y-170500000D02*
X56960000Y-172000000D01*
X58210000Y-174500000D02*
X62710000Y-174500000D01*
X62710000Y-168000000D02*
X58210000Y-168000000D01*
X63960000Y-172000000D02*
X63960000Y-170500000D01*
G04 #@! TO.C,SW35*
X113960000Y-126250000D02*
X113960000Y-130750000D01*
X116460000Y-132000000D02*
X117960000Y-132000000D01*
X117960000Y-125000000D02*
X116460000Y-125000000D01*
X120460000Y-130750000D02*
X120460000Y-126250000D01*
G04 #@! TO.C,SW10*
X69210000Y-126750000D02*
X69210000Y-128250000D01*
X70460000Y-130750000D02*
X74960000Y-130750000D01*
X74960000Y-124250000D02*
X70460000Y-124250000D01*
X76210000Y-128250000D02*
X76210000Y-126750000D01*
G04 #@! TO.C,SW37*
X114460000Y-158750000D02*
X114460000Y-160250000D01*
X115710000Y-162750000D02*
X120210000Y-162750000D01*
X120210000Y-156250000D02*
X115710000Y-156250000D01*
X121460000Y-160250000D02*
X121460000Y-158750000D01*
G04 #@! TD*
%LPC*%
D12*
G04 #@! TO.C,SW39*
X114710000Y-180500000D03*
X121210000Y-180500000D03*
X114710000Y-185000000D03*
X121210000Y-185000000D03*
G04 #@! TD*
G04 #@! TO.C,SW30*
X100710000Y-169000000D03*
X107210000Y-169000000D03*
X100710000Y-173500000D03*
X107210000Y-173500000D03*
G04 #@! TD*
G04 #@! TO.C,SW4*
X57210000Y-145500000D03*
X63710000Y-145500000D03*
X57210000Y-150000000D03*
X63710000Y-150000000D03*
G04 #@! TD*
G04 #@! TO.C,SW26*
X98960000Y-131750000D03*
X98960000Y-125250000D03*
X103460000Y-131750000D03*
X103460000Y-125250000D03*
G04 #@! TD*
G04 #@! TO.C,SW25*
X105960000Y-116500000D03*
X112460000Y-116500000D03*
X105960000Y-121000000D03*
X112460000Y-121000000D03*
G04 #@! TD*
G04 #@! TO.C,SW28*
X100710000Y-145500000D03*
X107210000Y-145500000D03*
X100710000Y-150000000D03*
X107210000Y-150000000D03*
G04 #@! TD*
G04 #@! TO.C,SW11*
X69460000Y-133750000D03*
X75960000Y-133750000D03*
X69460000Y-138250000D03*
X75960000Y-138250000D03*
G04 #@! TD*
G04 #@! TO.C,SW5*
X57210000Y-157250000D03*
X63710000Y-157250000D03*
X57210000Y-161750000D03*
X63710000Y-161750000D03*
G04 #@! TD*
G04 #@! TO.C,SW15*
X71710000Y-180500000D03*
X78210000Y-180500000D03*
X71710000Y-185000000D03*
X78210000Y-185000000D03*
G04 #@! TD*
G04 #@! TO.C,SW23*
X86210000Y-180500000D03*
X92710000Y-180500000D03*
X86210000Y-185000000D03*
X92710000Y-185000000D03*
G04 #@! TD*
G04 #@! TO.C,SW8*
X57210000Y-192250000D03*
X63710000Y-192250000D03*
X57210000Y-196750000D03*
X63710000Y-196750000D03*
G04 #@! TD*
G04 #@! TO.C,SW20*
X86210000Y-145500000D03*
X92710000Y-145500000D03*
X86210000Y-150000000D03*
X92710000Y-150000000D03*
G04 #@! TD*
G04 #@! TO.C,SW18*
X81710000Y-125250000D03*
X88210000Y-125250000D03*
X81710000Y-129750000D03*
X88210000Y-129750000D03*
G04 #@! TD*
G04 #@! TO.C,SW13*
X71710000Y-157250000D03*
X78210000Y-157250000D03*
X71710000Y-161750000D03*
X78210000Y-161750000D03*
G04 #@! TD*
G04 #@! TO.C,SW21*
X86210000Y-157250000D03*
X92710000Y-157250000D03*
X86210000Y-161750000D03*
X92710000Y-161750000D03*
G04 #@! TD*
G04 #@! TO.C,SW24*
X86210000Y-192250000D03*
X92710000Y-192250000D03*
X86210000Y-196750000D03*
X92710000Y-196750000D03*
G04 #@! TD*
G04 #@! TO.C,SW32*
X100710000Y-192250000D03*
X107210000Y-192250000D03*
X100710000Y-196750000D03*
X107210000Y-196750000D03*
G04 #@! TD*
G04 #@! TO.C,SW1*
X57210000Y-116250000D03*
X63710000Y-116250000D03*
X57210000Y-120750000D03*
X63710000Y-120750000D03*
G04 #@! TD*
G04 #@! TO.C,SW31*
X100710000Y-180500000D03*
X107210000Y-180500000D03*
X100710000Y-185000000D03*
X107210000Y-185000000D03*
G04 #@! TD*
G04 #@! TO.C,SW40*
X114710000Y-192250000D03*
X121210000Y-192250000D03*
X114710000Y-196750000D03*
X121210000Y-196750000D03*
G04 #@! TD*
G04 #@! TO.C,SW9*
X69460000Y-116250000D03*
X75960000Y-116250000D03*
X69460000Y-120750000D03*
X75960000Y-120750000D03*
G04 #@! TD*
G04 #@! TO.C,SW34*
X111460000Y-125250000D03*
X111460000Y-131750000D03*
X106960000Y-125250000D03*
X106960000Y-131750000D03*
G04 #@! TD*
D13*
G04 #@! TO.C,A1*
X61460000Y-87725000D03*
D14*
X64490000Y-87425000D03*
X64490000Y-82575000D03*
D13*
X61460000Y-82275000D03*
D15*
X61330000Y-94690000D03*
D16*
X61330000Y-93890000D03*
D17*
X63870000Y-94690000D03*
D18*
X63870000Y-93890000D03*
D19*
X66410000Y-94690000D03*
D20*
X66410000Y-93890000D03*
D17*
X68950000Y-94690000D03*
D18*
X68950000Y-93890000D03*
D17*
X71490000Y-94690000D03*
D18*
X71490000Y-93890000D03*
D17*
X74030000Y-94690000D03*
D18*
X74030000Y-93890000D03*
D17*
X76570000Y-94690000D03*
D18*
X76570000Y-93890000D03*
D19*
X79110000Y-94690000D03*
D20*
X79110000Y-93890000D03*
D17*
X81650000Y-94690000D03*
D18*
X81650000Y-93890000D03*
D17*
X84190000Y-94690000D03*
D18*
X84190000Y-93890000D03*
D17*
X86730000Y-94690000D03*
D18*
X86730000Y-93890000D03*
D17*
X89270000Y-94690000D03*
D18*
X89270000Y-93890000D03*
D19*
X91810000Y-94690000D03*
D20*
X91810000Y-93890000D03*
D17*
X94350000Y-94690000D03*
D18*
X94350000Y-93890000D03*
D17*
X96890000Y-94690000D03*
D18*
X96890000Y-93890000D03*
D17*
X99430000Y-94690000D03*
D18*
X99430000Y-93890000D03*
D17*
X101970000Y-94690000D03*
D18*
X101970000Y-93890000D03*
D19*
X104510000Y-94690000D03*
D20*
X104510000Y-93890000D03*
D17*
X107050000Y-94690000D03*
D18*
X107050000Y-93890000D03*
D17*
X109590000Y-94690000D03*
D18*
X109590000Y-93890000D03*
X109590000Y-76110000D03*
D17*
X109590000Y-75310000D03*
D18*
X107050000Y-76110000D03*
D17*
X107050000Y-75310000D03*
D21*
X104510000Y-76110000D03*
D15*
X104510000Y-75310000D03*
D18*
X101970000Y-76110000D03*
D17*
X101970000Y-75310000D03*
D18*
X99430000Y-76110000D03*
D17*
X99430000Y-75310000D03*
D18*
X96890000Y-76110000D03*
D17*
X96890000Y-75310000D03*
D18*
X94350000Y-76110000D03*
D17*
X94350000Y-75310000D03*
D21*
X91810000Y-76110000D03*
D15*
X91810000Y-75310000D03*
D18*
X89270000Y-76110000D03*
D17*
X89270000Y-75310000D03*
D18*
X86730000Y-76110000D03*
D17*
X86730000Y-75310000D03*
D18*
X84190000Y-76110000D03*
D17*
X84190000Y-75310000D03*
D18*
X81650000Y-76110000D03*
D17*
X81650000Y-75310000D03*
D21*
X79110000Y-76110000D03*
D15*
X79110000Y-75310000D03*
D18*
X76570000Y-76110000D03*
D17*
X76570000Y-75310000D03*
D18*
X74030000Y-76110000D03*
D17*
X74030000Y-75310000D03*
D18*
X71490000Y-76110000D03*
D17*
X71490000Y-75310000D03*
D18*
X68950000Y-76110000D03*
D17*
X68950000Y-75310000D03*
D21*
X66410000Y-76110000D03*
D15*
X66410000Y-75310000D03*
D18*
X63870000Y-76110000D03*
D17*
X63870000Y-75310000D03*
D18*
X61330000Y-76110000D03*
D17*
X61330000Y-75310000D03*
G04 #@! TD*
D12*
G04 #@! TO.C,SW27*
X105960000Y-135750000D03*
X112460000Y-135750000D03*
X105960000Y-140250000D03*
X112460000Y-140250000D03*
G04 #@! TD*
D22*
G04 #@! TO.C,U5*
X127100000Y-60510000D03*
X127100000Y-57970000D03*
X127100000Y-55430000D03*
X127100000Y-52890000D03*
X127100000Y-50350000D03*
X127100000Y-47810000D03*
X127100000Y-45270000D03*
X127100000Y-42730000D03*
X127100000Y-40190000D03*
X127100000Y-37650000D03*
X127100000Y-35110000D03*
X127100000Y-32570000D03*
X127100000Y-30030000D03*
X127100000Y-27490000D03*
G04 #@! TD*
D12*
G04 #@! TO.C,SW16*
X71710000Y-192250000D03*
X78210000Y-192250000D03*
X71710000Y-196750000D03*
X78210000Y-196750000D03*
G04 #@! TD*
G04 #@! TO.C,SW17*
X81710000Y-116250000D03*
X88210000Y-116250000D03*
X81710000Y-120750000D03*
X88210000Y-120750000D03*
G04 #@! TD*
G04 #@! TO.C,SW38*
X114710000Y-169000000D03*
X121210000Y-169000000D03*
X114710000Y-173500000D03*
X121210000Y-173500000D03*
G04 #@! TD*
G04 #@! TO.C,SW19*
X81710000Y-133750000D03*
X88210000Y-133750000D03*
X81710000Y-138250000D03*
X88210000Y-138250000D03*
G04 #@! TD*
G04 #@! TO.C,SW36*
X114710000Y-145500000D03*
X121210000Y-145500000D03*
X114710000Y-150000000D03*
X121210000Y-150000000D03*
G04 #@! TD*
G04 #@! TO.C,SW14*
X71710000Y-169000000D03*
X78210000Y-169000000D03*
X71710000Y-173500000D03*
X78210000Y-173500000D03*
G04 #@! TD*
G04 #@! TO.C,SW2*
X57210000Y-125250000D03*
X63710000Y-125250000D03*
X57210000Y-129750000D03*
X63710000Y-129750000D03*
G04 #@! TD*
G04 #@! TO.C,SW22*
X86210000Y-169000000D03*
X92710000Y-169000000D03*
X86210000Y-173500000D03*
X92710000Y-173500000D03*
G04 #@! TD*
G04 #@! TO.C,SW12*
X71710000Y-145500000D03*
X78210000Y-145500000D03*
X71710000Y-150000000D03*
X78210000Y-150000000D03*
G04 #@! TD*
G04 #@! TO.C,SW3*
X57210000Y-133750000D03*
X63710000Y-133750000D03*
X57210000Y-138250000D03*
X63710000Y-138250000D03*
G04 #@! TD*
G04 #@! TO.C,SW7*
X57210000Y-180500000D03*
X63710000Y-180500000D03*
X57210000Y-185000000D03*
X63710000Y-185000000D03*
G04 #@! TD*
G04 #@! TO.C,SW29*
X100710000Y-157250000D03*
X107210000Y-157250000D03*
X100710000Y-161750000D03*
X107210000Y-161750000D03*
G04 #@! TD*
G04 #@! TO.C,SW6*
X57210000Y-169000000D03*
X63710000Y-169000000D03*
X57210000Y-173500000D03*
X63710000Y-173500000D03*
G04 #@! TD*
G04 #@! TO.C,SW35*
X114960000Y-131750000D03*
X114960000Y-125250000D03*
X119460000Y-131750000D03*
X119460000Y-125250000D03*
G04 #@! TD*
G04 #@! TO.C,SW10*
X69460000Y-125250000D03*
X75960000Y-125250000D03*
X69460000Y-129750000D03*
X75960000Y-129750000D03*
G04 #@! TD*
G04 #@! TO.C,SW37*
X114710000Y-157250000D03*
X121210000Y-157250000D03*
X114710000Y-161750000D03*
X121210000Y-161750000D03*
G04 #@! TD*
%LPD*%
M02*
