G04 #@! TF.GenerationSoftware,KiCad,Pcbnew,9.0.3-9.0.3-0~ubuntu24.04.1*
G04 #@! TF.CreationDate,2025-09-17T21:15:32+02:00*
G04 #@! TF.ProjectId,PCB_ SEPARATED,5043425f-2053-4455-9041-52415445442e,rev?*
G04 #@! TF.SameCoordinates,Original*
G04 #@! TF.FileFunction,Legend,Bot*
G04 #@! TF.FilePolarity,Positive*
%FSLAX46Y46*%
G04 Gerber Fmt 4.6, Leading zero omitted, Abs format (unit mm)*
G04 Created by KiCad (PCBNEW 9.0.3-9.0.3-0~ubuntu24.04.1) date 2025-09-17 21:15:32*
%MOMM*%
%LPD*%
G01*
G04 APERTURE LIST*
G04 Aperture macros list*
%AMRoundRect*
0 Rectangle with rounded corners*
0 $1 Rounding radius*
0 $2 $3 $4 $5 $6 $7 $8 $9 X,Y pos of 4 corners*
0 Add a 4 corners polygon primitive as box body*
4,1,4,$2,$3,$4,$5,$6,$7,$8,$9,$2,$3,0*
0 Add four circle primitives for the rounded corners*
1,1,$1+$1,$2,$3*
1,1,$1+$1,$4,$5*
1,1,$1+$1,$6,$7*
1,1,$1+$1,$8,$9*
0 Add four rect primitives between the rounded corners*
20,1,$1+$1,$2,$3,$4,$5,0*
20,1,$1+$1,$4,$5,$6,$7,0*
20,1,$1+$1,$6,$7,$8,$9,0*
20,1,$1+$1,$8,$9,$2,$3,0*%
%AMFreePoly0*
4,1,37,0.603843,0.796157,0.639018,0.796157,0.711114,0.766294,0.766294,0.711114,0.796157,0.639018,0.796157,0.603843,0.800000,0.600000,0.800000,-0.600000,0.796157,-0.603843,0.796157,-0.639018,0.766294,-0.711114,0.711114,-0.766294,0.639018,-0.796157,0.603843,-0.796157,0.600000,-0.800000,0.000000,-0.800000,0.000000,-0.796148,-0.078414,-0.796148,-0.232228,-0.765552,-0.377117,-0.705537,
-0.507515,-0.618408,-0.618408,-0.507515,-0.705537,-0.377117,-0.765552,-0.232228,-0.796148,-0.078414,-0.796148,0.078414,-0.765552,0.232228,-0.705537,0.377117,-0.618408,0.507515,-0.507515,0.618408,-0.377117,0.705537,-0.232228,0.765552,-0.078414,0.796148,0.000000,0.796148,0.000000,0.800000,0.600000,0.800000,0.603843,0.796157,0.603843,0.796157,$1*%
%AMFreePoly1*
4,1,37,0.000000,0.796148,0.078414,0.796148,0.232228,0.765552,0.377117,0.705537,0.507515,0.618408,0.618408,0.507515,0.705537,0.377117,0.765552,0.232228,0.796148,0.078414,0.796148,-0.078414,0.765552,-0.232228,0.705537,-0.377117,0.618408,-0.507515,0.507515,-0.618408,0.377117,-0.705537,0.232228,-0.765552,0.078414,-0.796148,0.000000,-0.796148,0.000000,-0.800000,-0.600000,-0.800000,
-0.603843,-0.796157,-0.639018,-0.796157,-0.711114,-0.766294,-0.766294,-0.711114,-0.796157,-0.639018,-0.796157,-0.603843,-0.800000,-0.600000,-0.800000,0.600000,-0.796157,0.603843,-0.796157,0.639018,-0.766294,0.711114,-0.711114,0.766294,-0.639018,0.796157,-0.603843,0.796157,-0.600000,0.800000,0.000000,0.800000,0.000000,0.796148,0.000000,0.796148,$1*%
G04 Aperture macros list end*
%ADD10C,2.000000*%
%ADD11C,2.200000*%
%ADD12C,1.850000*%
%ADD13RoundRect,0.200000X0.600000X-0.600000X0.600000X0.600000X-0.600000X0.600000X-0.600000X-0.600000X0*%
%ADD14C,1.600000*%
%ADD15FreePoly0,90.000000*%
%ADD16FreePoly1,90.000000*%
%ADD17O,3.000000X1.500000*%
G04 APERTURE END LIST*
%LPC*%
D10*
G04 #@! TO.C,SW39*
X114710000Y-180500000D03*
X121210000Y-180500000D03*
X114710000Y-185000000D03*
X121210000Y-185000000D03*
G04 #@! TD*
G04 #@! TO.C,SW30*
X100710000Y-169000000D03*
X107210000Y-169000000D03*
X100710000Y-173500000D03*
X107210000Y-173500000D03*
G04 #@! TD*
G04 #@! TO.C,SW4*
X57210000Y-145500000D03*
X63710000Y-145500000D03*
X57210000Y-150000000D03*
X63710000Y-150000000D03*
G04 #@! TD*
G04 #@! TO.C,SW26*
X98960000Y-131750000D03*
X98960000Y-125250000D03*
X103460000Y-131750000D03*
X103460000Y-125250000D03*
G04 #@! TD*
G04 #@! TO.C,SW25*
X105960000Y-116500000D03*
X112460000Y-116500000D03*
X105960000Y-121000000D03*
X112460000Y-121000000D03*
G04 #@! TD*
G04 #@! TO.C,SW28*
X100710000Y-145500000D03*
X107210000Y-145500000D03*
X100710000Y-150000000D03*
X107210000Y-150000000D03*
G04 #@! TD*
G04 #@! TO.C,SW11*
X69460000Y-133750000D03*
X75960000Y-133750000D03*
X69460000Y-138250000D03*
X75960000Y-138250000D03*
G04 #@! TD*
G04 #@! TO.C,SW5*
X57210000Y-157250000D03*
X63710000Y-157250000D03*
X57210000Y-161750000D03*
X63710000Y-161750000D03*
G04 #@! TD*
G04 #@! TO.C,SW15*
X71710000Y-180500000D03*
X78210000Y-180500000D03*
X71710000Y-185000000D03*
X78210000Y-185000000D03*
G04 #@! TD*
G04 #@! TO.C,SW23*
X86210000Y-180500000D03*
X92710000Y-180500000D03*
X86210000Y-185000000D03*
X92710000Y-185000000D03*
G04 #@! TD*
G04 #@! TO.C,SW8*
X57210000Y-192250000D03*
X63710000Y-192250000D03*
X57210000Y-196750000D03*
X63710000Y-196750000D03*
G04 #@! TD*
G04 #@! TO.C,SW20*
X86210000Y-145500000D03*
X92710000Y-145500000D03*
X86210000Y-150000000D03*
X92710000Y-150000000D03*
G04 #@! TD*
G04 #@! TO.C,SW18*
X81710000Y-125250000D03*
X88210000Y-125250000D03*
X81710000Y-129750000D03*
X88210000Y-129750000D03*
G04 #@! TD*
G04 #@! TO.C,SW13*
X71710000Y-157250000D03*
X78210000Y-157250000D03*
X71710000Y-161750000D03*
X78210000Y-161750000D03*
G04 #@! TD*
G04 #@! TO.C,SW21*
X86210000Y-157250000D03*
X92710000Y-157250000D03*
X86210000Y-161750000D03*
X92710000Y-161750000D03*
G04 #@! TD*
G04 #@! TO.C,SW24*
X86210000Y-192250000D03*
X92710000Y-192250000D03*
X86210000Y-196750000D03*
X92710000Y-196750000D03*
G04 #@! TD*
G04 #@! TO.C,SW32*
X100710000Y-192250000D03*
X107210000Y-192250000D03*
X100710000Y-196750000D03*
X107210000Y-196750000D03*
G04 #@! TD*
G04 #@! TO.C,SW1*
X57210000Y-116250000D03*
X63710000Y-116250000D03*
X57210000Y-120750000D03*
X63710000Y-120750000D03*
G04 #@! TD*
G04 #@! TO.C,SW31*
X100710000Y-180500000D03*
X107210000Y-180500000D03*
X100710000Y-185000000D03*
X107210000Y-185000000D03*
G04 #@! TD*
G04 #@! TO.C,SW40*
X114710000Y-192250000D03*
X121210000Y-192250000D03*
X114710000Y-196750000D03*
X121210000Y-196750000D03*
G04 #@! TD*
G04 #@! TO.C,SW9*
X69460000Y-116250000D03*
X75960000Y-116250000D03*
X69460000Y-120750000D03*
X75960000Y-120750000D03*
G04 #@! TD*
G04 #@! TO.C,SW34*
X111460000Y-125250000D03*
X111460000Y-131750000D03*
X106960000Y-125250000D03*
X106960000Y-131750000D03*
G04 #@! TD*
D11*
G04 #@! TO.C,A1*
X61460000Y-87725000D03*
D12*
X64490000Y-87425000D03*
X64490000Y-82575000D03*
D11*
X61460000Y-82275000D03*
D13*
X61330000Y-93890000D03*
D14*
X63870000Y-93890000D03*
D15*
X66410000Y-93890000D03*
D14*
X68950000Y-93890000D03*
X71490000Y-93890000D03*
X74030000Y-93890000D03*
X76570000Y-93890000D03*
D15*
X79110000Y-93890000D03*
D14*
X81650000Y-93890000D03*
X84190000Y-93890000D03*
X86730000Y-93890000D03*
X89270000Y-93890000D03*
D15*
X91810000Y-93890000D03*
D14*
X94350000Y-93890000D03*
X96890000Y-93890000D03*
X99430000Y-93890000D03*
X101970000Y-93890000D03*
D15*
X104510000Y-93890000D03*
D14*
X107050000Y-93890000D03*
X109590000Y-93890000D03*
X109590000Y-76110000D03*
X107050000Y-76110000D03*
D16*
X104510000Y-76110000D03*
D14*
X101970000Y-76110000D03*
X99430000Y-76110000D03*
X96890000Y-76110000D03*
X94350000Y-76110000D03*
D16*
X91810000Y-76110000D03*
D14*
X89270000Y-76110000D03*
X86730000Y-76110000D03*
X84190000Y-76110000D03*
X81650000Y-76110000D03*
D16*
X79110000Y-76110000D03*
D14*
X76570000Y-76110000D03*
X74030000Y-76110000D03*
X71490000Y-76110000D03*
X68950000Y-76110000D03*
D16*
X66410000Y-76110000D03*
D14*
X63870000Y-76110000D03*
X61330000Y-76110000D03*
G04 #@! TD*
D10*
G04 #@! TO.C,SW27*
X105960000Y-135750000D03*
X112460000Y-135750000D03*
X105960000Y-140250000D03*
X112460000Y-140250000D03*
G04 #@! TD*
D17*
G04 #@! TO.C,U5*
X127100000Y-60510000D03*
X127100000Y-57970000D03*
X127100000Y-55430000D03*
X127100000Y-52890000D03*
X127100000Y-50350000D03*
X127100000Y-47810000D03*
X127100000Y-45270000D03*
X127100000Y-42730000D03*
X127100000Y-40190000D03*
X127100000Y-37650000D03*
X127100000Y-35110000D03*
X127100000Y-32570000D03*
X127100000Y-30030000D03*
X127100000Y-27490000D03*
G04 #@! TD*
D10*
G04 #@! TO.C,SW16*
X71710000Y-192250000D03*
X78210000Y-192250000D03*
X71710000Y-196750000D03*
X78210000Y-196750000D03*
G04 #@! TD*
G04 #@! TO.C,SW17*
X81710000Y-116250000D03*
X88210000Y-116250000D03*
X81710000Y-120750000D03*
X88210000Y-120750000D03*
G04 #@! TD*
G04 #@! TO.C,SW38*
X114710000Y-169000000D03*
X121210000Y-169000000D03*
X114710000Y-173500000D03*
X121210000Y-173500000D03*
G04 #@! TD*
G04 #@! TO.C,SW19*
X81710000Y-133750000D03*
X88210000Y-133750000D03*
X81710000Y-138250000D03*
X88210000Y-138250000D03*
G04 #@! TD*
G04 #@! TO.C,SW36*
X114710000Y-145500000D03*
X121210000Y-145500000D03*
X114710000Y-150000000D03*
X121210000Y-150000000D03*
G04 #@! TD*
G04 #@! TO.C,SW14*
X71710000Y-169000000D03*
X78210000Y-169000000D03*
X71710000Y-173500000D03*
X78210000Y-173500000D03*
G04 #@! TD*
G04 #@! TO.C,SW2*
X57210000Y-125250000D03*
X63710000Y-125250000D03*
X57210000Y-129750000D03*
X63710000Y-129750000D03*
G04 #@! TD*
G04 #@! TO.C,SW22*
X86210000Y-169000000D03*
X92710000Y-169000000D03*
X86210000Y-173500000D03*
X92710000Y-173500000D03*
G04 #@! TD*
G04 #@! TO.C,SW12*
X71710000Y-145500000D03*
X78210000Y-145500000D03*
X71710000Y-150000000D03*
X78210000Y-150000000D03*
G04 #@! TD*
G04 #@! TO.C,SW3*
X57210000Y-133750000D03*
X63710000Y-133750000D03*
X57210000Y-138250000D03*
X63710000Y-138250000D03*
G04 #@! TD*
G04 #@! TO.C,SW7*
X57210000Y-180500000D03*
X63710000Y-180500000D03*
X57210000Y-185000000D03*
X63710000Y-185000000D03*
G04 #@! TD*
G04 #@! TO.C,SW29*
X100710000Y-157250000D03*
X107210000Y-157250000D03*
X100710000Y-161750000D03*
X107210000Y-161750000D03*
G04 #@! TD*
G04 #@! TO.C,SW6*
X57210000Y-169000000D03*
X63710000Y-169000000D03*
X57210000Y-173500000D03*
X63710000Y-173500000D03*
G04 #@! TD*
G04 #@! TO.C,SW35*
X114960000Y-131750000D03*
X114960000Y-125250000D03*
X119460000Y-131750000D03*
X119460000Y-125250000D03*
G04 #@! TD*
G04 #@! TO.C,SW10*
X69460000Y-125250000D03*
X75960000Y-125250000D03*
X69460000Y-129750000D03*
X75960000Y-129750000D03*
G04 #@! TD*
G04 #@! TO.C,SW37*
X114710000Y-157250000D03*
X121210000Y-157250000D03*
X114710000Y-161750000D03*
X121210000Y-161750000D03*
G04 #@! TD*
%LPD*%
M02*
