M48
; DRILL file {KiCad 9.0.3-9.0.3-0~ubuntu24.04.1} date 2025-09-17T21:15:32+0200
; FORMAT={-:-/ absolute / metric / decimal}
; #@! TF.CreationDate,2025-09-17T21:15:32+02:00
; #@! TF.GenerationSoftware,Kicad,Pcbnew,9.0.3-9.0.3-0~ubuntu24.04.1
; #@! TF.FileFunction,Plated,1,2,PTH
FMAT,2
METRIC
; #@! TA.AperFunction,Plated,PTH,ComponentDrill
T1C0.800
; #@! TA.AperFunction,Plated,PTH,ComponentDrill
T2C1.000
; #@! TA.AperFunction,Plated,PTH,ComponentDrill
T3C1.100
%
G90
G05
T1
X127.1Y-27.49
X127.1Y-30.03
X127.1Y-32.57
X127.1Y-35.11
X127.1Y-37.65
X127.1Y-40.19
X127.1Y-42.73
X127.1Y-45.27
X127.1Y-47.81
X127.1Y-50.35
X127.1Y-52.89
X127.1Y-55.43
X127.1Y-57.97
X127.1Y-60.51
T2
X61.33Y-76.11
X61.33Y-93.89
X63.87Y-76.11
X63.87Y-93.89
X66.41Y-76.11
X66.41Y-93.89
X68.95Y-76.11
X68.95Y-93.89
X71.49Y-76.11
X71.49Y-93.89
X74.03Y-76.11
X74.03Y-93.89
X76.57Y-76.11
X76.57Y-93.89
X79.11Y-76.11
X79.11Y-93.89
X81.65Y-76.11
X81.65Y-93.89
X84.19Y-76.11
X84.19Y-93.89
X86.73Y-76.11
X86.73Y-93.89
X89.27Y-76.11
X89.27Y-93.89
X91.81Y-76.11
X91.81Y-93.89
X94.35Y-76.11
X94.35Y-93.89
X96.89Y-76.11
X96.89Y-93.89
X99.43Y-76.11
X99.43Y-93.89
X101.97Y-76.11
X101.97Y-93.89
X104.51Y-76.11
X104.51Y-93.89
X107.05Y-76.11
X107.05Y-93.89
X109.59Y-76.11
X109.59Y-93.89
T3
X57.21Y-116.25
X57.21Y-120.75
X57.21Y-125.25
X57.21Y-129.75
X57.21Y-133.75
X57.21Y-138.25
X57.21Y-145.5
X57.21Y-150.0
X57.21Y-157.25
X57.21Y-161.75
X57.21Y-169.0
X57.21Y-173.5
X57.21Y-180.5
X57.21Y-185.0
X57.21Y-192.25
X57.21Y-196.75
X63.71Y-116.25
X63.71Y-120.75
X63.71Y-125.25
X63.71Y-129.75
X63.71Y-133.75
X63.71Y-138.25
X63.71Y-145.5
X63.71Y-150.0
X63.71Y-157.25
X63.71Y-161.75
X63.71Y-169.0
X63.71Y-173.5
X63.71Y-180.5
X63.71Y-185.0
X63.71Y-192.25
X63.71Y-196.75
X69.46Y-116.25
X69.46Y-120.75
X69.46Y-125.25
X69.46Y-129.75
X69.46Y-133.75
X69.46Y-138.25
X71.71Y-145.5
X71.71Y-150.0
X71.71Y-157.25
X71.71Y-161.75
X71.71Y-169.0
X71.71Y-173.5
X71.71Y-180.5
X71.71Y-185.0
X71.71Y-192.25
X71.71Y-196.75
X75.96Y-116.25
X75.96Y-120.75
X75.96Y-125.25
X75.96Y-129.75
X75.96Y-133.75
X75.96Y-138.25
X78.21Y-145.5
X78.21Y-150.0
X78.21Y-157.25
X78.21Y-161.75
X78.21Y-169.0
X78.21Y-173.5
X78.21Y-180.5
X78.21Y-185.0
X78.21Y-192.25
X78.21Y-196.75
X81.71Y-116.25
X81.71Y-120.75
X81.71Y-125.25
X81.71Y-129.75
X81.71Y-133.75
X81.71Y-138.25
X86.21Y-145.5
X86.21Y-150.0
X86.21Y-157.25
X86.21Y-161.75
X86.21Y-169.0
X86.21Y-173.5
X86.21Y-180.5
X86.21Y-185.0
X86.21Y-192.25
X86.21Y-196.75
X88.21Y-116.25
X88.21Y-120.75
X88.21Y-125.25
X88.21Y-129.75
X88.21Y-133.75
X88.21Y-138.25
X92.71Y-145.5
X92.71Y-150.0
X92.71Y-157.25
X92.71Y-161.75
X92.71Y-169.0
X92.71Y-173.5
X92.71Y-180.5
X92.71Y-185.0
X92.71Y-192.25
X92.71Y-196.75
X98.96Y-125.25
X98.96Y-131.75
X100.71Y-145.5
X100.71Y-150.0
X100.71Y-157.25
X100.71Y-161.75
X100.71Y-169.0
X100.71Y-173.5
X100.71Y-180.5
X100.71Y-185.0
X100.71Y-192.25
X100.71Y-196.75
X103.46Y-125.25
X103.46Y-131.75
X105.96Y-116.5
X105.96Y-121.0
X105.96Y-135.75
X105.96Y-140.25
X106.96Y-125.25
X106.96Y-131.75
X107.21Y-145.5
X107.21Y-150.0
X107.21Y-157.25
X107.21Y-161.75
X107.21Y-169.0
X107.21Y-173.5
X107.21Y-180.5
X107.21Y-185.0
X107.21Y-192.25
X107.21Y-196.75
X111.46Y-125.25
X111.46Y-131.75
X112.46Y-116.5
X112.46Y-121.0
X112.46Y-135.75
X112.46Y-140.25
X114.71Y-145.5
X114.71Y-150.0
X114.71Y-157.25
X114.71Y-161.75
X114.71Y-169.0
X114.71Y-173.5
X114.71Y-180.5
X114.71Y-185.0
X114.71Y-192.25
X114.71Y-196.75
X114.96Y-125.25
X114.96Y-131.75
X119.46Y-125.25
X119.46Y-131.75
X121.21Y-145.5
X121.21Y-150.0
X121.21Y-157.25
X121.21Y-161.75
X121.21Y-169.0
X121.21Y-173.5
X121.21Y-180.5
X121.21Y-185.0
X121.21Y-192.25
X121.21Y-196.75
M30
