%TF.GenerationSoftware,KiCad,Pcbnew,9.0.3-9.0.3-0~ubuntu24.04.1*%
%TF.CreationDate,2025-09-17T21:15:32+02:00*%
%TF.ProjectId,PCB_ SEPARATED,5043425f-2053-4455-9041-52415445442e,rev?*%
%TF.SameCoordinates,Original*%
%TF.FileFunction,Drillmap*%
%TF.FilePolarity,Positive*%
%FSLAX45Y45*%
G04 Gerber Fmt 4.5, Leading zero omitted, Abs format (unit mm)*
G04 Created by KiCad (PCBNEW 9.0.3-9.0.3-0~ubuntu24.04.1) date 2025-09-17 21:15:32*
%MOMM*%
%LPD*%
G01*
G04 APERTURE LIST*
%ADD10C,0.050000*%
%ADD11C,0.200000*%
%ADD12C,0.185000*%
%ADD13C,0.220000*%
G04 APERTURE END LIST*
D10*
X3946000Y-1450000D02*
X13096000Y-1450000D01*
X13096000Y-20200000D01*
X3946000Y-20200000D01*
X3946000Y-1450000D01*
D11*
D12*
X6356500Y-8165000D02*
X6541500Y-8350000D01*
X6541500Y-8165000D02*
X6356500Y-8350000D01*
X6356500Y-8650000D02*
X6541500Y-8835000D01*
X6541500Y-8650000D02*
X6356500Y-8835000D01*
D13*
X6256000Y-8227500D02*
G75*
G02*
X6036000Y-8227500I-110000J0D01*
G01*
X6036000Y-8227500D02*
G75*
G02*
X6256000Y-8227500I110000J0D01*
G01*
X6256000Y-8772500D02*
G75*
G02*
X6036000Y-8772500I-110000J0D01*
G01*
X6036000Y-8772500D02*
G75*
G02*
X6256000Y-8772500I110000J0D01*
G01*
D11*
X4204277Y-20513984D02*
X4204277Y-20313984D01*
X4204277Y-20313984D02*
X4251896Y-20313984D01*
X4251896Y-20313984D02*
X4280467Y-20323508D01*
X4280467Y-20323508D02*
X4299515Y-20342555D01*
X4299515Y-20342555D02*
X4309039Y-20361603D01*
X4309039Y-20361603D02*
X4318563Y-20399698D01*
X4318563Y-20399698D02*
X4318563Y-20428270D01*
X4318563Y-20428270D02*
X4309039Y-20466365D01*
X4309039Y-20466365D02*
X4299515Y-20485412D01*
X4299515Y-20485412D02*
X4280467Y-20504460D01*
X4280467Y-20504460D02*
X4251896Y-20513984D01*
X4251896Y-20513984D02*
X4204277Y-20513984D01*
X4404277Y-20513984D02*
X4404277Y-20380650D01*
X4404277Y-20418746D02*
X4413801Y-20399698D01*
X4413801Y-20399698D02*
X4423324Y-20390174D01*
X4423324Y-20390174D02*
X4442372Y-20380650D01*
X4442372Y-20380650D02*
X4461420Y-20380650D01*
X4528086Y-20513984D02*
X4528086Y-20380650D01*
X4528086Y-20313984D02*
X4518563Y-20323508D01*
X4518563Y-20323508D02*
X4528086Y-20333031D01*
X4528086Y-20333031D02*
X4537610Y-20323508D01*
X4537610Y-20323508D02*
X4528086Y-20313984D01*
X4528086Y-20313984D02*
X4528086Y-20333031D01*
X4651896Y-20513984D02*
X4632848Y-20504460D01*
X4632848Y-20504460D02*
X4623324Y-20485412D01*
X4623324Y-20485412D02*
X4623324Y-20313984D01*
X4756658Y-20513984D02*
X4737610Y-20504460D01*
X4737610Y-20504460D02*
X4728086Y-20485412D01*
X4728086Y-20485412D02*
X4728086Y-20313984D01*
X4985229Y-20513984D02*
X4985229Y-20313984D01*
X4985229Y-20313984D02*
X5051896Y-20456841D01*
X5051896Y-20456841D02*
X5118563Y-20313984D01*
X5118563Y-20313984D02*
X5118563Y-20513984D01*
X5299515Y-20513984D02*
X5299515Y-20409222D01*
X5299515Y-20409222D02*
X5289991Y-20390174D01*
X5289991Y-20390174D02*
X5270944Y-20380650D01*
X5270944Y-20380650D02*
X5232848Y-20380650D01*
X5232848Y-20380650D02*
X5213801Y-20390174D01*
X5299515Y-20504460D02*
X5280467Y-20513984D01*
X5280467Y-20513984D02*
X5232848Y-20513984D01*
X5232848Y-20513984D02*
X5213801Y-20504460D01*
X5213801Y-20504460D02*
X5204277Y-20485412D01*
X5204277Y-20485412D02*
X5204277Y-20466365D01*
X5204277Y-20466365D02*
X5213801Y-20447317D01*
X5213801Y-20447317D02*
X5232848Y-20437793D01*
X5232848Y-20437793D02*
X5280467Y-20437793D01*
X5280467Y-20437793D02*
X5299515Y-20428270D01*
X5394753Y-20380650D02*
X5394753Y-20580650D01*
X5394753Y-20390174D02*
X5413801Y-20380650D01*
X5413801Y-20380650D02*
X5451896Y-20380650D01*
X5451896Y-20380650D02*
X5470944Y-20390174D01*
X5470944Y-20390174D02*
X5480467Y-20399698D01*
X5480467Y-20399698D02*
X5489991Y-20418746D01*
X5489991Y-20418746D02*
X5489991Y-20475889D01*
X5489991Y-20475889D02*
X5480467Y-20494936D01*
X5480467Y-20494936D02*
X5470944Y-20504460D01*
X5470944Y-20504460D02*
X5451896Y-20513984D01*
X5451896Y-20513984D02*
X5413801Y-20513984D01*
X5413801Y-20513984D02*
X5394753Y-20504460D01*
X5575705Y-20494936D02*
X5585229Y-20504460D01*
X5585229Y-20504460D02*
X5575705Y-20513984D01*
X5575705Y-20513984D02*
X5566182Y-20504460D01*
X5566182Y-20504460D02*
X5575705Y-20494936D01*
X5575705Y-20494936D02*
X5575705Y-20513984D01*
X5575705Y-20390174D02*
X5585229Y-20399698D01*
X5585229Y-20399698D02*
X5575705Y-20409222D01*
X5575705Y-20409222D02*
X5566182Y-20399698D01*
X5566182Y-20399698D02*
X5575705Y-20390174D01*
X5575705Y-20390174D02*
X5575705Y-20409222D01*
D12*
X3758500Y-20750000D02*
X3943500Y-20935000D01*
X3943500Y-20750000D02*
X3758500Y-20935000D01*
D11*
X4309039Y-20933984D02*
X4194753Y-20933984D01*
X4251896Y-20933984D02*
X4251896Y-20733984D01*
X4251896Y-20733984D02*
X4232848Y-20762555D01*
X4232848Y-20762555D02*
X4213801Y-20781603D01*
X4213801Y-20781603D02*
X4194753Y-20791127D01*
X4394753Y-20914936D02*
X4404277Y-20924460D01*
X4404277Y-20924460D02*
X4394753Y-20933984D01*
X4394753Y-20933984D02*
X4385229Y-20924460D01*
X4385229Y-20924460D02*
X4394753Y-20914936D01*
X4394753Y-20914936D02*
X4394753Y-20933984D01*
X4518563Y-20819698D02*
X4499515Y-20810174D01*
X4499515Y-20810174D02*
X4489991Y-20800650D01*
X4489991Y-20800650D02*
X4480467Y-20781603D01*
X4480467Y-20781603D02*
X4480467Y-20772079D01*
X4480467Y-20772079D02*
X4489991Y-20753031D01*
X4489991Y-20753031D02*
X4499515Y-20743508D01*
X4499515Y-20743508D02*
X4518563Y-20733984D01*
X4518563Y-20733984D02*
X4556658Y-20733984D01*
X4556658Y-20733984D02*
X4575705Y-20743508D01*
X4575705Y-20743508D02*
X4585229Y-20753031D01*
X4585229Y-20753031D02*
X4594753Y-20772079D01*
X4594753Y-20772079D02*
X4594753Y-20781603D01*
X4594753Y-20781603D02*
X4585229Y-20800650D01*
X4585229Y-20800650D02*
X4575705Y-20810174D01*
X4575705Y-20810174D02*
X4556658Y-20819698D01*
X4556658Y-20819698D02*
X4518563Y-20819698D01*
X4518563Y-20819698D02*
X4499515Y-20829222D01*
X4499515Y-20829222D02*
X4489991Y-20838746D01*
X4489991Y-20838746D02*
X4480467Y-20857793D01*
X4480467Y-20857793D02*
X4480467Y-20895889D01*
X4480467Y-20895889D02*
X4489991Y-20914936D01*
X4489991Y-20914936D02*
X4499515Y-20924460D01*
X4499515Y-20924460D02*
X4518563Y-20933984D01*
X4518563Y-20933984D02*
X4556658Y-20933984D01*
X4556658Y-20933984D02*
X4575705Y-20924460D01*
X4575705Y-20924460D02*
X4585229Y-20914936D01*
X4585229Y-20914936D02*
X4594753Y-20895889D01*
X4594753Y-20895889D02*
X4594753Y-20857793D01*
X4594753Y-20857793D02*
X4585229Y-20838746D01*
X4585229Y-20838746D02*
X4575705Y-20829222D01*
X4575705Y-20829222D02*
X4556658Y-20819698D01*
X4775705Y-20733984D02*
X4680467Y-20733984D01*
X4680467Y-20733984D02*
X4670944Y-20829222D01*
X4670944Y-20829222D02*
X4680467Y-20819698D01*
X4680467Y-20819698D02*
X4699515Y-20810174D01*
X4699515Y-20810174D02*
X4747134Y-20810174D01*
X4747134Y-20810174D02*
X4766182Y-20819698D01*
X4766182Y-20819698D02*
X4775705Y-20829222D01*
X4775705Y-20829222D02*
X4785229Y-20848270D01*
X4785229Y-20848270D02*
X4785229Y-20895889D01*
X4785229Y-20895889D02*
X4775705Y-20914936D01*
X4775705Y-20914936D02*
X4766182Y-20924460D01*
X4766182Y-20924460D02*
X4747134Y-20933984D01*
X4747134Y-20933984D02*
X4699515Y-20933984D01*
X4699515Y-20933984D02*
X4680467Y-20924460D01*
X4680467Y-20924460D02*
X4670944Y-20914936D01*
X4909039Y-20733984D02*
X4928086Y-20733984D01*
X4928086Y-20733984D02*
X4947134Y-20743508D01*
X4947134Y-20743508D02*
X4956658Y-20753031D01*
X4956658Y-20753031D02*
X4966182Y-20772079D01*
X4966182Y-20772079D02*
X4975705Y-20810174D01*
X4975705Y-20810174D02*
X4975705Y-20857793D01*
X4975705Y-20857793D02*
X4966182Y-20895889D01*
X4966182Y-20895889D02*
X4956658Y-20914936D01*
X4956658Y-20914936D02*
X4947134Y-20924460D01*
X4947134Y-20924460D02*
X4928086Y-20933984D01*
X4928086Y-20933984D02*
X4909039Y-20933984D01*
X4909039Y-20933984D02*
X4889991Y-20924460D01*
X4889991Y-20924460D02*
X4880467Y-20914936D01*
X4880467Y-20914936D02*
X4870944Y-20895889D01*
X4870944Y-20895889D02*
X4861420Y-20857793D01*
X4861420Y-20857793D02*
X4861420Y-20810174D01*
X4861420Y-20810174D02*
X4870944Y-20772079D01*
X4870944Y-20772079D02*
X4880467Y-20753031D01*
X4880467Y-20753031D02*
X4889991Y-20743508D01*
X4889991Y-20743508D02*
X4909039Y-20733984D01*
X5061420Y-20933984D02*
X5061420Y-20800650D01*
X5061420Y-20819698D02*
X5070944Y-20810174D01*
X5070944Y-20810174D02*
X5089991Y-20800650D01*
X5089991Y-20800650D02*
X5118563Y-20800650D01*
X5118563Y-20800650D02*
X5137610Y-20810174D01*
X5137610Y-20810174D02*
X5147134Y-20829222D01*
X5147134Y-20829222D02*
X5147134Y-20933984D01*
X5147134Y-20829222D02*
X5156658Y-20810174D01*
X5156658Y-20810174D02*
X5175705Y-20800650D01*
X5175705Y-20800650D02*
X5204277Y-20800650D01*
X5204277Y-20800650D02*
X5223325Y-20810174D01*
X5223325Y-20810174D02*
X5232848Y-20829222D01*
X5232848Y-20829222D02*
X5232848Y-20933984D01*
X5328086Y-20933984D02*
X5328086Y-20800650D01*
X5328086Y-20819698D02*
X5337610Y-20810174D01*
X5337610Y-20810174D02*
X5356658Y-20800650D01*
X5356658Y-20800650D02*
X5385229Y-20800650D01*
X5385229Y-20800650D02*
X5404277Y-20810174D01*
X5404277Y-20810174D02*
X5413801Y-20829222D01*
X5413801Y-20829222D02*
X5413801Y-20933984D01*
X5413801Y-20829222D02*
X5423325Y-20810174D01*
X5423325Y-20810174D02*
X5442372Y-20800650D01*
X5442372Y-20800650D02*
X5470944Y-20800650D01*
X5470944Y-20800650D02*
X5489991Y-20810174D01*
X5489991Y-20810174D02*
X5499515Y-20829222D01*
X5499515Y-20829222D02*
X5499515Y-20933984D01*
X5889991Y-20724460D02*
X5718563Y-20981603D01*
X6147134Y-20733984D02*
X6166182Y-20733984D01*
X6166182Y-20733984D02*
X6185229Y-20743508D01*
X6185229Y-20743508D02*
X6194753Y-20753031D01*
X6194753Y-20753031D02*
X6204277Y-20772079D01*
X6204277Y-20772079D02*
X6213801Y-20810174D01*
X6213801Y-20810174D02*
X6213801Y-20857793D01*
X6213801Y-20857793D02*
X6204277Y-20895889D01*
X6204277Y-20895889D02*
X6194753Y-20914936D01*
X6194753Y-20914936D02*
X6185229Y-20924460D01*
X6185229Y-20924460D02*
X6166182Y-20933984D01*
X6166182Y-20933984D02*
X6147134Y-20933984D01*
X6147134Y-20933984D02*
X6128086Y-20924460D01*
X6128086Y-20924460D02*
X6118563Y-20914936D01*
X6118563Y-20914936D02*
X6109039Y-20895889D01*
X6109039Y-20895889D02*
X6099515Y-20857793D01*
X6099515Y-20857793D02*
X6099515Y-20810174D01*
X6099515Y-20810174D02*
X6109039Y-20772079D01*
X6109039Y-20772079D02*
X6118563Y-20753031D01*
X6118563Y-20753031D02*
X6128086Y-20743508D01*
X6128086Y-20743508D02*
X6147134Y-20733984D01*
X6299515Y-20914936D02*
X6309039Y-20924460D01*
X6309039Y-20924460D02*
X6299515Y-20933984D01*
X6299515Y-20933984D02*
X6289991Y-20924460D01*
X6289991Y-20924460D02*
X6299515Y-20914936D01*
X6299515Y-20914936D02*
X6299515Y-20933984D01*
X6432848Y-20733984D02*
X6451896Y-20733984D01*
X6451896Y-20733984D02*
X6470944Y-20743508D01*
X6470944Y-20743508D02*
X6480467Y-20753031D01*
X6480467Y-20753031D02*
X6489991Y-20772079D01*
X6489991Y-20772079D02*
X6499515Y-20810174D01*
X6499515Y-20810174D02*
X6499515Y-20857793D01*
X6499515Y-20857793D02*
X6489991Y-20895889D01*
X6489991Y-20895889D02*
X6480467Y-20914936D01*
X6480467Y-20914936D02*
X6470944Y-20924460D01*
X6470944Y-20924460D02*
X6451896Y-20933984D01*
X6451896Y-20933984D02*
X6432848Y-20933984D01*
X6432848Y-20933984D02*
X6413801Y-20924460D01*
X6413801Y-20924460D02*
X6404277Y-20914936D01*
X6404277Y-20914936D02*
X6394753Y-20895889D01*
X6394753Y-20895889D02*
X6385229Y-20857793D01*
X6385229Y-20857793D02*
X6385229Y-20810174D01*
X6385229Y-20810174D02*
X6394753Y-20772079D01*
X6394753Y-20772079D02*
X6404277Y-20753031D01*
X6404277Y-20753031D02*
X6413801Y-20743508D01*
X6413801Y-20743508D02*
X6432848Y-20733984D01*
X6566182Y-20733984D02*
X6699515Y-20733984D01*
X6699515Y-20733984D02*
X6613801Y-20933984D01*
X6766182Y-20753031D02*
X6775706Y-20743508D01*
X6775706Y-20743508D02*
X6794753Y-20733984D01*
X6794753Y-20733984D02*
X6842372Y-20733984D01*
X6842372Y-20733984D02*
X6861420Y-20743508D01*
X6861420Y-20743508D02*
X6870944Y-20753031D01*
X6870944Y-20753031D02*
X6880467Y-20772079D01*
X6880467Y-20772079D02*
X6880467Y-20791127D01*
X6880467Y-20791127D02*
X6870944Y-20819698D01*
X6870944Y-20819698D02*
X6756658Y-20933984D01*
X6756658Y-20933984D02*
X6880467Y-20933984D01*
X6994753Y-20819698D02*
X6975706Y-20810174D01*
X6975706Y-20810174D02*
X6966182Y-20800650D01*
X6966182Y-20800650D02*
X6956658Y-20781603D01*
X6956658Y-20781603D02*
X6956658Y-20772079D01*
X6956658Y-20772079D02*
X6966182Y-20753031D01*
X6966182Y-20753031D02*
X6975706Y-20743508D01*
X6975706Y-20743508D02*
X6994753Y-20733984D01*
X6994753Y-20733984D02*
X7032848Y-20733984D01*
X7032848Y-20733984D02*
X7051896Y-20743508D01*
X7051896Y-20743508D02*
X7061420Y-20753031D01*
X7061420Y-20753031D02*
X7070944Y-20772079D01*
X7070944Y-20772079D02*
X7070944Y-20781603D01*
X7070944Y-20781603D02*
X7061420Y-20800650D01*
X7061420Y-20800650D02*
X7051896Y-20810174D01*
X7051896Y-20810174D02*
X7032848Y-20819698D01*
X7032848Y-20819698D02*
X6994753Y-20819698D01*
X6994753Y-20819698D02*
X6975706Y-20829222D01*
X6975706Y-20829222D02*
X6966182Y-20838746D01*
X6966182Y-20838746D02*
X6956658Y-20857793D01*
X6956658Y-20857793D02*
X6956658Y-20895889D01*
X6956658Y-20895889D02*
X6966182Y-20914936D01*
X6966182Y-20914936D02*
X6975706Y-20924460D01*
X6975706Y-20924460D02*
X6994753Y-20933984D01*
X6994753Y-20933984D02*
X7032848Y-20933984D01*
X7032848Y-20933984D02*
X7051896Y-20924460D01*
X7051896Y-20924460D02*
X7061420Y-20914936D01*
X7061420Y-20914936D02*
X7070944Y-20895889D01*
X7070944Y-20895889D02*
X7070944Y-20857793D01*
X7070944Y-20857793D02*
X7061420Y-20838746D01*
X7061420Y-20838746D02*
X7051896Y-20829222D01*
X7051896Y-20829222D02*
X7032848Y-20819698D01*
X7147134Y-20733984D02*
X7147134Y-20772079D01*
X7223325Y-20733984D02*
X7223325Y-20772079D01*
X7518563Y-21010174D02*
X7509039Y-21000650D01*
X7509039Y-21000650D02*
X7489991Y-20972079D01*
X7489991Y-20972079D02*
X7480468Y-20953031D01*
X7480468Y-20953031D02*
X7470944Y-20924460D01*
X7470944Y-20924460D02*
X7461420Y-20876841D01*
X7461420Y-20876841D02*
X7461420Y-20838746D01*
X7461420Y-20838746D02*
X7470944Y-20791127D01*
X7470944Y-20791127D02*
X7480468Y-20762555D01*
X7480468Y-20762555D02*
X7489991Y-20743508D01*
X7489991Y-20743508D02*
X7509039Y-20714936D01*
X7509039Y-20714936D02*
X7518563Y-20705412D01*
X7585229Y-20753031D02*
X7594753Y-20743508D01*
X7594753Y-20743508D02*
X7613801Y-20733984D01*
X7613801Y-20733984D02*
X7661420Y-20733984D01*
X7661420Y-20733984D02*
X7680468Y-20743508D01*
X7680468Y-20743508D02*
X7689991Y-20753031D01*
X7689991Y-20753031D02*
X7699515Y-20772079D01*
X7699515Y-20772079D02*
X7699515Y-20791127D01*
X7699515Y-20791127D02*
X7689991Y-20819698D01*
X7689991Y-20819698D02*
X7575706Y-20933984D01*
X7575706Y-20933984D02*
X7699515Y-20933984D01*
X7937610Y-20933984D02*
X7937610Y-20733984D01*
X8023325Y-20933984D02*
X8023325Y-20829222D01*
X8023325Y-20829222D02*
X8013801Y-20810174D01*
X8013801Y-20810174D02*
X7994753Y-20800650D01*
X7994753Y-20800650D02*
X7966182Y-20800650D01*
X7966182Y-20800650D02*
X7947134Y-20810174D01*
X7947134Y-20810174D02*
X7937610Y-20819698D01*
X8147134Y-20933984D02*
X8128087Y-20924460D01*
X8128087Y-20924460D02*
X8118563Y-20914936D01*
X8118563Y-20914936D02*
X8109039Y-20895889D01*
X8109039Y-20895889D02*
X8109039Y-20838746D01*
X8109039Y-20838746D02*
X8118563Y-20819698D01*
X8118563Y-20819698D02*
X8128087Y-20810174D01*
X8128087Y-20810174D02*
X8147134Y-20800650D01*
X8147134Y-20800650D02*
X8175706Y-20800650D01*
X8175706Y-20800650D02*
X8194753Y-20810174D01*
X8194753Y-20810174D02*
X8204277Y-20819698D01*
X8204277Y-20819698D02*
X8213801Y-20838746D01*
X8213801Y-20838746D02*
X8213801Y-20895889D01*
X8213801Y-20895889D02*
X8204277Y-20914936D01*
X8204277Y-20914936D02*
X8194753Y-20924460D01*
X8194753Y-20924460D02*
X8175706Y-20933984D01*
X8175706Y-20933984D02*
X8147134Y-20933984D01*
X8328087Y-20933984D02*
X8309039Y-20924460D01*
X8309039Y-20924460D02*
X8299515Y-20905412D01*
X8299515Y-20905412D02*
X8299515Y-20733984D01*
X8480468Y-20924460D02*
X8461420Y-20933984D01*
X8461420Y-20933984D02*
X8423325Y-20933984D01*
X8423325Y-20933984D02*
X8404277Y-20924460D01*
X8404277Y-20924460D02*
X8394753Y-20905412D01*
X8394753Y-20905412D02*
X8394753Y-20829222D01*
X8394753Y-20829222D02*
X8404277Y-20810174D01*
X8404277Y-20810174D02*
X8423325Y-20800650D01*
X8423325Y-20800650D02*
X8461420Y-20800650D01*
X8461420Y-20800650D02*
X8480468Y-20810174D01*
X8480468Y-20810174D02*
X8489992Y-20829222D01*
X8489992Y-20829222D02*
X8489992Y-20848270D01*
X8489992Y-20848270D02*
X8394753Y-20867317D01*
X8566182Y-20924460D02*
X8585230Y-20933984D01*
X8585230Y-20933984D02*
X8623325Y-20933984D01*
X8623325Y-20933984D02*
X8642373Y-20924460D01*
X8642373Y-20924460D02*
X8651896Y-20905412D01*
X8651896Y-20905412D02*
X8651896Y-20895889D01*
X8651896Y-20895889D02*
X8642373Y-20876841D01*
X8642373Y-20876841D02*
X8623325Y-20867317D01*
X8623325Y-20867317D02*
X8594753Y-20867317D01*
X8594753Y-20867317D02*
X8575706Y-20857793D01*
X8575706Y-20857793D02*
X8566182Y-20838746D01*
X8566182Y-20838746D02*
X8566182Y-20829222D01*
X8566182Y-20829222D02*
X8575706Y-20810174D01*
X8575706Y-20810174D02*
X8594753Y-20800650D01*
X8594753Y-20800650D02*
X8623325Y-20800650D01*
X8623325Y-20800650D02*
X8642373Y-20810174D01*
X8718563Y-21010174D02*
X8728087Y-21000650D01*
X8728087Y-21000650D02*
X8747134Y-20972079D01*
X8747134Y-20972079D02*
X8756658Y-20953031D01*
X8756658Y-20953031D02*
X8766182Y-20924460D01*
X8766182Y-20924460D02*
X8775706Y-20876841D01*
X8775706Y-20876841D02*
X8775706Y-20838746D01*
X8775706Y-20838746D02*
X8766182Y-20791127D01*
X8766182Y-20791127D02*
X8756658Y-20762555D01*
X8756658Y-20762555D02*
X8747134Y-20743508D01*
X8747134Y-20743508D02*
X8728087Y-20714936D01*
X8728087Y-20714936D02*
X8718563Y-20705412D01*
X9080468Y-21010174D02*
X9070944Y-21000650D01*
X9070944Y-21000650D02*
X9051896Y-20972079D01*
X9051896Y-20972079D02*
X9042373Y-20953031D01*
X9042373Y-20953031D02*
X9032849Y-20924460D01*
X9032849Y-20924460D02*
X9023325Y-20876841D01*
X9023325Y-20876841D02*
X9023325Y-20838746D01*
X9023325Y-20838746D02*
X9032849Y-20791127D01*
X9032849Y-20791127D02*
X9042373Y-20762555D01*
X9042373Y-20762555D02*
X9051896Y-20743508D01*
X9051896Y-20743508D02*
X9070944Y-20714936D01*
X9070944Y-20714936D02*
X9080468Y-20705412D01*
X9156658Y-20800650D02*
X9156658Y-20933984D01*
X9156658Y-20819698D02*
X9166182Y-20810174D01*
X9166182Y-20810174D02*
X9185230Y-20800650D01*
X9185230Y-20800650D02*
X9213801Y-20800650D01*
X9213801Y-20800650D02*
X9232849Y-20810174D01*
X9232849Y-20810174D02*
X9242373Y-20829222D01*
X9242373Y-20829222D02*
X9242373Y-20933984D01*
X9366182Y-20933984D02*
X9347134Y-20924460D01*
X9347134Y-20924460D02*
X9337611Y-20914936D01*
X9337611Y-20914936D02*
X9328087Y-20895889D01*
X9328087Y-20895889D02*
X9328087Y-20838746D01*
X9328087Y-20838746D02*
X9337611Y-20819698D01*
X9337611Y-20819698D02*
X9347134Y-20810174D01*
X9347134Y-20810174D02*
X9366182Y-20800650D01*
X9366182Y-20800650D02*
X9394754Y-20800650D01*
X9394754Y-20800650D02*
X9413801Y-20810174D01*
X9413801Y-20810174D02*
X9423325Y-20819698D01*
X9423325Y-20819698D02*
X9432849Y-20838746D01*
X9432849Y-20838746D02*
X9432849Y-20895889D01*
X9432849Y-20895889D02*
X9423325Y-20914936D01*
X9423325Y-20914936D02*
X9413801Y-20924460D01*
X9413801Y-20924460D02*
X9394754Y-20933984D01*
X9394754Y-20933984D02*
X9366182Y-20933984D01*
X9489992Y-20800650D02*
X9566182Y-20800650D01*
X9518563Y-20733984D02*
X9518563Y-20905412D01*
X9518563Y-20905412D02*
X9528087Y-20924460D01*
X9528087Y-20924460D02*
X9547134Y-20933984D01*
X9547134Y-20933984D02*
X9566182Y-20933984D01*
X9785230Y-20800650D02*
X9785230Y-21000650D01*
X9785230Y-20810174D02*
X9804277Y-20800650D01*
X9804277Y-20800650D02*
X9842373Y-20800650D01*
X9842373Y-20800650D02*
X9861420Y-20810174D01*
X9861420Y-20810174D02*
X9870944Y-20819698D01*
X9870944Y-20819698D02*
X9880468Y-20838746D01*
X9880468Y-20838746D02*
X9880468Y-20895889D01*
X9880468Y-20895889D02*
X9870944Y-20914936D01*
X9870944Y-20914936D02*
X9861420Y-20924460D01*
X9861420Y-20924460D02*
X9842373Y-20933984D01*
X9842373Y-20933984D02*
X9804277Y-20933984D01*
X9804277Y-20933984D02*
X9785230Y-20924460D01*
X9994754Y-20933984D02*
X9975706Y-20924460D01*
X9975706Y-20924460D02*
X9966182Y-20905412D01*
X9966182Y-20905412D02*
X9966182Y-20733984D01*
X10156658Y-20933984D02*
X10156658Y-20829222D01*
X10156658Y-20829222D02*
X10147135Y-20810174D01*
X10147135Y-20810174D02*
X10128087Y-20800650D01*
X10128087Y-20800650D02*
X10089992Y-20800650D01*
X10089992Y-20800650D02*
X10070944Y-20810174D01*
X10156658Y-20924460D02*
X10137611Y-20933984D01*
X10137611Y-20933984D02*
X10089992Y-20933984D01*
X10089992Y-20933984D02*
X10070944Y-20924460D01*
X10070944Y-20924460D02*
X10061420Y-20905412D01*
X10061420Y-20905412D02*
X10061420Y-20886365D01*
X10061420Y-20886365D02*
X10070944Y-20867317D01*
X10070944Y-20867317D02*
X10089992Y-20857793D01*
X10089992Y-20857793D02*
X10137611Y-20857793D01*
X10137611Y-20857793D02*
X10156658Y-20848270D01*
X10223325Y-20800650D02*
X10299515Y-20800650D01*
X10251896Y-20733984D02*
X10251896Y-20905412D01*
X10251896Y-20905412D02*
X10261420Y-20924460D01*
X10261420Y-20924460D02*
X10280468Y-20933984D01*
X10280468Y-20933984D02*
X10299515Y-20933984D01*
X10442373Y-20924460D02*
X10423325Y-20933984D01*
X10423325Y-20933984D02*
X10385230Y-20933984D01*
X10385230Y-20933984D02*
X10366182Y-20924460D01*
X10366182Y-20924460D02*
X10356658Y-20905412D01*
X10356658Y-20905412D02*
X10356658Y-20829222D01*
X10356658Y-20829222D02*
X10366182Y-20810174D01*
X10366182Y-20810174D02*
X10385230Y-20800650D01*
X10385230Y-20800650D02*
X10423325Y-20800650D01*
X10423325Y-20800650D02*
X10442373Y-20810174D01*
X10442373Y-20810174D02*
X10451896Y-20829222D01*
X10451896Y-20829222D02*
X10451896Y-20848270D01*
X10451896Y-20848270D02*
X10356658Y-20867317D01*
X10623325Y-20933984D02*
X10623325Y-20733984D01*
X10623325Y-20924460D02*
X10604277Y-20933984D01*
X10604277Y-20933984D02*
X10566182Y-20933984D01*
X10566182Y-20933984D02*
X10547135Y-20924460D01*
X10547135Y-20924460D02*
X10537611Y-20914936D01*
X10537611Y-20914936D02*
X10528087Y-20895889D01*
X10528087Y-20895889D02*
X10528087Y-20838746D01*
X10528087Y-20838746D02*
X10537611Y-20819698D01*
X10537611Y-20819698D02*
X10547135Y-20810174D01*
X10547135Y-20810174D02*
X10566182Y-20800650D01*
X10566182Y-20800650D02*
X10604277Y-20800650D01*
X10604277Y-20800650D02*
X10623325Y-20810174D01*
X10699516Y-21010174D02*
X10709039Y-21000650D01*
X10709039Y-21000650D02*
X10728087Y-20972079D01*
X10728087Y-20972079D02*
X10737611Y-20953031D01*
X10737611Y-20953031D02*
X10747135Y-20924460D01*
X10747135Y-20924460D02*
X10756658Y-20876841D01*
X10756658Y-20876841D02*
X10756658Y-20838746D01*
X10756658Y-20838746D02*
X10747135Y-20791127D01*
X10747135Y-20791127D02*
X10737611Y-20762555D01*
X10737611Y-20762555D02*
X10728087Y-20743508D01*
X10728087Y-20743508D02*
X10709039Y-20714936D01*
X10709039Y-20714936D02*
X10699516Y-20705412D01*
X3943500Y-21147500D02*
G75*
G02*
X3743500Y-21147500I-100000J0D01*
G01*
X3743500Y-21147500D02*
G75*
G02*
X3943500Y-21147500I100000J0D01*
G01*
X4194753Y-21058031D02*
X4204277Y-21048508D01*
X4204277Y-21048508D02*
X4223324Y-21038984D01*
X4223324Y-21038984D02*
X4270944Y-21038984D01*
X4270944Y-21038984D02*
X4289991Y-21048508D01*
X4289991Y-21048508D02*
X4299515Y-21058031D01*
X4299515Y-21058031D02*
X4309039Y-21077079D01*
X4309039Y-21077079D02*
X4309039Y-21096127D01*
X4309039Y-21096127D02*
X4299515Y-21124698D01*
X4299515Y-21124698D02*
X4185229Y-21238984D01*
X4185229Y-21238984D02*
X4309039Y-21238984D01*
X4394753Y-21219936D02*
X4404277Y-21229460D01*
X4404277Y-21229460D02*
X4394753Y-21238984D01*
X4394753Y-21238984D02*
X4385229Y-21229460D01*
X4385229Y-21229460D02*
X4394753Y-21219936D01*
X4394753Y-21219936D02*
X4394753Y-21238984D01*
X4480467Y-21058031D02*
X4489991Y-21048508D01*
X4489991Y-21048508D02*
X4509039Y-21038984D01*
X4509039Y-21038984D02*
X4556658Y-21038984D01*
X4556658Y-21038984D02*
X4575705Y-21048508D01*
X4575705Y-21048508D02*
X4585229Y-21058031D01*
X4585229Y-21058031D02*
X4594753Y-21077079D01*
X4594753Y-21077079D02*
X4594753Y-21096127D01*
X4594753Y-21096127D02*
X4585229Y-21124698D01*
X4585229Y-21124698D02*
X4470944Y-21238984D01*
X4470944Y-21238984D02*
X4594753Y-21238984D01*
X4718563Y-21038984D02*
X4737610Y-21038984D01*
X4737610Y-21038984D02*
X4756658Y-21048508D01*
X4756658Y-21048508D02*
X4766182Y-21058031D01*
X4766182Y-21058031D02*
X4775705Y-21077079D01*
X4775705Y-21077079D02*
X4785229Y-21115174D01*
X4785229Y-21115174D02*
X4785229Y-21162793D01*
X4785229Y-21162793D02*
X4775705Y-21200889D01*
X4775705Y-21200889D02*
X4766182Y-21219936D01*
X4766182Y-21219936D02*
X4756658Y-21229460D01*
X4756658Y-21229460D02*
X4737610Y-21238984D01*
X4737610Y-21238984D02*
X4718563Y-21238984D01*
X4718563Y-21238984D02*
X4699515Y-21229460D01*
X4699515Y-21229460D02*
X4689991Y-21219936D01*
X4689991Y-21219936D02*
X4680467Y-21200889D01*
X4680467Y-21200889D02*
X4670944Y-21162793D01*
X4670944Y-21162793D02*
X4670944Y-21115174D01*
X4670944Y-21115174D02*
X4680467Y-21077079D01*
X4680467Y-21077079D02*
X4689991Y-21058031D01*
X4689991Y-21058031D02*
X4699515Y-21048508D01*
X4699515Y-21048508D02*
X4718563Y-21038984D01*
X4909039Y-21038984D02*
X4928086Y-21038984D01*
X4928086Y-21038984D02*
X4947134Y-21048508D01*
X4947134Y-21048508D02*
X4956658Y-21058031D01*
X4956658Y-21058031D02*
X4966182Y-21077079D01*
X4966182Y-21077079D02*
X4975705Y-21115174D01*
X4975705Y-21115174D02*
X4975705Y-21162793D01*
X4975705Y-21162793D02*
X4966182Y-21200889D01*
X4966182Y-21200889D02*
X4956658Y-21219936D01*
X4956658Y-21219936D02*
X4947134Y-21229460D01*
X4947134Y-21229460D02*
X4928086Y-21238984D01*
X4928086Y-21238984D02*
X4909039Y-21238984D01*
X4909039Y-21238984D02*
X4889991Y-21229460D01*
X4889991Y-21229460D02*
X4880467Y-21219936D01*
X4880467Y-21219936D02*
X4870944Y-21200889D01*
X4870944Y-21200889D02*
X4861420Y-21162793D01*
X4861420Y-21162793D02*
X4861420Y-21115174D01*
X4861420Y-21115174D02*
X4870944Y-21077079D01*
X4870944Y-21077079D02*
X4880467Y-21058031D01*
X4880467Y-21058031D02*
X4889991Y-21048508D01*
X4889991Y-21048508D02*
X4909039Y-21038984D01*
X5061420Y-21238984D02*
X5061420Y-21105650D01*
X5061420Y-21124698D02*
X5070944Y-21115174D01*
X5070944Y-21115174D02*
X5089991Y-21105650D01*
X5089991Y-21105650D02*
X5118563Y-21105650D01*
X5118563Y-21105650D02*
X5137610Y-21115174D01*
X5137610Y-21115174D02*
X5147134Y-21134222D01*
X5147134Y-21134222D02*
X5147134Y-21238984D01*
X5147134Y-21134222D02*
X5156658Y-21115174D01*
X5156658Y-21115174D02*
X5175705Y-21105650D01*
X5175705Y-21105650D02*
X5204277Y-21105650D01*
X5204277Y-21105650D02*
X5223325Y-21115174D01*
X5223325Y-21115174D02*
X5232848Y-21134222D01*
X5232848Y-21134222D02*
X5232848Y-21238984D01*
X5328086Y-21238984D02*
X5328086Y-21105650D01*
X5328086Y-21124698D02*
X5337610Y-21115174D01*
X5337610Y-21115174D02*
X5356658Y-21105650D01*
X5356658Y-21105650D02*
X5385229Y-21105650D01*
X5385229Y-21105650D02*
X5404277Y-21115174D01*
X5404277Y-21115174D02*
X5413801Y-21134222D01*
X5413801Y-21134222D02*
X5413801Y-21238984D01*
X5413801Y-21134222D02*
X5423325Y-21115174D01*
X5423325Y-21115174D02*
X5442372Y-21105650D01*
X5442372Y-21105650D02*
X5470944Y-21105650D01*
X5470944Y-21105650D02*
X5489991Y-21115174D01*
X5489991Y-21115174D02*
X5499515Y-21134222D01*
X5499515Y-21134222D02*
X5499515Y-21238984D01*
X5889991Y-21029460D02*
X5718563Y-21286603D01*
X6147134Y-21038984D02*
X6166182Y-21038984D01*
X6166182Y-21038984D02*
X6185229Y-21048508D01*
X6185229Y-21048508D02*
X6194753Y-21058031D01*
X6194753Y-21058031D02*
X6204277Y-21077079D01*
X6204277Y-21077079D02*
X6213801Y-21115174D01*
X6213801Y-21115174D02*
X6213801Y-21162793D01*
X6213801Y-21162793D02*
X6204277Y-21200889D01*
X6204277Y-21200889D02*
X6194753Y-21219936D01*
X6194753Y-21219936D02*
X6185229Y-21229460D01*
X6185229Y-21229460D02*
X6166182Y-21238984D01*
X6166182Y-21238984D02*
X6147134Y-21238984D01*
X6147134Y-21238984D02*
X6128086Y-21229460D01*
X6128086Y-21229460D02*
X6118563Y-21219936D01*
X6118563Y-21219936D02*
X6109039Y-21200889D01*
X6109039Y-21200889D02*
X6099515Y-21162793D01*
X6099515Y-21162793D02*
X6099515Y-21115174D01*
X6099515Y-21115174D02*
X6109039Y-21077079D01*
X6109039Y-21077079D02*
X6118563Y-21058031D01*
X6118563Y-21058031D02*
X6128086Y-21048508D01*
X6128086Y-21048508D02*
X6147134Y-21038984D01*
X6299515Y-21219936D02*
X6309039Y-21229460D01*
X6309039Y-21229460D02*
X6299515Y-21238984D01*
X6299515Y-21238984D02*
X6289991Y-21229460D01*
X6289991Y-21229460D02*
X6299515Y-21219936D01*
X6299515Y-21219936D02*
X6299515Y-21238984D01*
X6432848Y-21038984D02*
X6451896Y-21038984D01*
X6451896Y-21038984D02*
X6470944Y-21048508D01*
X6470944Y-21048508D02*
X6480467Y-21058031D01*
X6480467Y-21058031D02*
X6489991Y-21077079D01*
X6489991Y-21077079D02*
X6499515Y-21115174D01*
X6499515Y-21115174D02*
X6499515Y-21162793D01*
X6499515Y-21162793D02*
X6489991Y-21200889D01*
X6489991Y-21200889D02*
X6480467Y-21219936D01*
X6480467Y-21219936D02*
X6470944Y-21229460D01*
X6470944Y-21229460D02*
X6451896Y-21238984D01*
X6451896Y-21238984D02*
X6432848Y-21238984D01*
X6432848Y-21238984D02*
X6413801Y-21229460D01*
X6413801Y-21229460D02*
X6404277Y-21219936D01*
X6404277Y-21219936D02*
X6394753Y-21200889D01*
X6394753Y-21200889D02*
X6385229Y-21162793D01*
X6385229Y-21162793D02*
X6385229Y-21115174D01*
X6385229Y-21115174D02*
X6394753Y-21077079D01*
X6394753Y-21077079D02*
X6404277Y-21058031D01*
X6404277Y-21058031D02*
X6413801Y-21048508D01*
X6413801Y-21048508D02*
X6432848Y-21038984D01*
X6613801Y-21124698D02*
X6594753Y-21115174D01*
X6594753Y-21115174D02*
X6585229Y-21105650D01*
X6585229Y-21105650D02*
X6575706Y-21086603D01*
X6575706Y-21086603D02*
X6575706Y-21077079D01*
X6575706Y-21077079D02*
X6585229Y-21058031D01*
X6585229Y-21058031D02*
X6594753Y-21048508D01*
X6594753Y-21048508D02*
X6613801Y-21038984D01*
X6613801Y-21038984D02*
X6651896Y-21038984D01*
X6651896Y-21038984D02*
X6670944Y-21048508D01*
X6670944Y-21048508D02*
X6680467Y-21058031D01*
X6680467Y-21058031D02*
X6689991Y-21077079D01*
X6689991Y-21077079D02*
X6689991Y-21086603D01*
X6689991Y-21086603D02*
X6680467Y-21105650D01*
X6680467Y-21105650D02*
X6670944Y-21115174D01*
X6670944Y-21115174D02*
X6651896Y-21124698D01*
X6651896Y-21124698D02*
X6613801Y-21124698D01*
X6613801Y-21124698D02*
X6594753Y-21134222D01*
X6594753Y-21134222D02*
X6585229Y-21143746D01*
X6585229Y-21143746D02*
X6575706Y-21162793D01*
X6575706Y-21162793D02*
X6575706Y-21200889D01*
X6575706Y-21200889D02*
X6585229Y-21219936D01*
X6585229Y-21219936D02*
X6594753Y-21229460D01*
X6594753Y-21229460D02*
X6613801Y-21238984D01*
X6613801Y-21238984D02*
X6651896Y-21238984D01*
X6651896Y-21238984D02*
X6670944Y-21229460D01*
X6670944Y-21229460D02*
X6680467Y-21219936D01*
X6680467Y-21219936D02*
X6689991Y-21200889D01*
X6689991Y-21200889D02*
X6689991Y-21162793D01*
X6689991Y-21162793D02*
X6680467Y-21143746D01*
X6680467Y-21143746D02*
X6670944Y-21134222D01*
X6670944Y-21134222D02*
X6651896Y-21124698D01*
X6861420Y-21038984D02*
X6823325Y-21038984D01*
X6823325Y-21038984D02*
X6804277Y-21048508D01*
X6804277Y-21048508D02*
X6794753Y-21058031D01*
X6794753Y-21058031D02*
X6775706Y-21086603D01*
X6775706Y-21086603D02*
X6766182Y-21124698D01*
X6766182Y-21124698D02*
X6766182Y-21200889D01*
X6766182Y-21200889D02*
X6775706Y-21219936D01*
X6775706Y-21219936D02*
X6785229Y-21229460D01*
X6785229Y-21229460D02*
X6804277Y-21238984D01*
X6804277Y-21238984D02*
X6842372Y-21238984D01*
X6842372Y-21238984D02*
X6861420Y-21229460D01*
X6861420Y-21229460D02*
X6870944Y-21219936D01*
X6870944Y-21219936D02*
X6880467Y-21200889D01*
X6880467Y-21200889D02*
X6880467Y-21153270D01*
X6880467Y-21153270D02*
X6870944Y-21134222D01*
X6870944Y-21134222D02*
X6861420Y-21124698D01*
X6861420Y-21124698D02*
X6842372Y-21115174D01*
X6842372Y-21115174D02*
X6804277Y-21115174D01*
X6804277Y-21115174D02*
X6785229Y-21124698D01*
X6785229Y-21124698D02*
X6775706Y-21134222D01*
X6775706Y-21134222D02*
X6766182Y-21153270D01*
X7051896Y-21038984D02*
X7013801Y-21038984D01*
X7013801Y-21038984D02*
X6994753Y-21048508D01*
X6994753Y-21048508D02*
X6985229Y-21058031D01*
X6985229Y-21058031D02*
X6966182Y-21086603D01*
X6966182Y-21086603D02*
X6956658Y-21124698D01*
X6956658Y-21124698D02*
X6956658Y-21200889D01*
X6956658Y-21200889D02*
X6966182Y-21219936D01*
X6966182Y-21219936D02*
X6975706Y-21229460D01*
X6975706Y-21229460D02*
X6994753Y-21238984D01*
X6994753Y-21238984D02*
X7032848Y-21238984D01*
X7032848Y-21238984D02*
X7051896Y-21229460D01*
X7051896Y-21229460D02*
X7061420Y-21219936D01*
X7061420Y-21219936D02*
X7070944Y-21200889D01*
X7070944Y-21200889D02*
X7070944Y-21153270D01*
X7070944Y-21153270D02*
X7061420Y-21134222D01*
X7061420Y-21134222D02*
X7051896Y-21124698D01*
X7051896Y-21124698D02*
X7032848Y-21115174D01*
X7032848Y-21115174D02*
X6994753Y-21115174D01*
X6994753Y-21115174D02*
X6975706Y-21124698D01*
X6975706Y-21124698D02*
X6966182Y-21134222D01*
X6966182Y-21134222D02*
X6956658Y-21153270D01*
X7147134Y-21038984D02*
X7147134Y-21077079D01*
X7223325Y-21038984D02*
X7223325Y-21077079D01*
X7518563Y-21315174D02*
X7509039Y-21305650D01*
X7509039Y-21305650D02*
X7489991Y-21277079D01*
X7489991Y-21277079D02*
X7480468Y-21258031D01*
X7480468Y-21258031D02*
X7470944Y-21229460D01*
X7470944Y-21229460D02*
X7461420Y-21181841D01*
X7461420Y-21181841D02*
X7461420Y-21143746D01*
X7461420Y-21143746D02*
X7470944Y-21096127D01*
X7470944Y-21096127D02*
X7480468Y-21067555D01*
X7480468Y-21067555D02*
X7489991Y-21048508D01*
X7489991Y-21048508D02*
X7509039Y-21019936D01*
X7509039Y-21019936D02*
X7518563Y-21010412D01*
X7585229Y-21058031D02*
X7594753Y-21048508D01*
X7594753Y-21048508D02*
X7613801Y-21038984D01*
X7613801Y-21038984D02*
X7661420Y-21038984D01*
X7661420Y-21038984D02*
X7680468Y-21048508D01*
X7680468Y-21048508D02*
X7689991Y-21058031D01*
X7689991Y-21058031D02*
X7699515Y-21077079D01*
X7699515Y-21077079D02*
X7699515Y-21096127D01*
X7699515Y-21096127D02*
X7689991Y-21124698D01*
X7689991Y-21124698D02*
X7575706Y-21238984D01*
X7575706Y-21238984D02*
X7699515Y-21238984D01*
X7937610Y-21238984D02*
X7937610Y-21038984D01*
X8023325Y-21238984D02*
X8023325Y-21134222D01*
X8023325Y-21134222D02*
X8013801Y-21115174D01*
X8013801Y-21115174D02*
X7994753Y-21105650D01*
X7994753Y-21105650D02*
X7966182Y-21105650D01*
X7966182Y-21105650D02*
X7947134Y-21115174D01*
X7947134Y-21115174D02*
X7937610Y-21124698D01*
X8147134Y-21238984D02*
X8128087Y-21229460D01*
X8128087Y-21229460D02*
X8118563Y-21219936D01*
X8118563Y-21219936D02*
X8109039Y-21200889D01*
X8109039Y-21200889D02*
X8109039Y-21143746D01*
X8109039Y-21143746D02*
X8118563Y-21124698D01*
X8118563Y-21124698D02*
X8128087Y-21115174D01*
X8128087Y-21115174D02*
X8147134Y-21105650D01*
X8147134Y-21105650D02*
X8175706Y-21105650D01*
X8175706Y-21105650D02*
X8194753Y-21115174D01*
X8194753Y-21115174D02*
X8204277Y-21124698D01*
X8204277Y-21124698D02*
X8213801Y-21143746D01*
X8213801Y-21143746D02*
X8213801Y-21200889D01*
X8213801Y-21200889D02*
X8204277Y-21219936D01*
X8204277Y-21219936D02*
X8194753Y-21229460D01*
X8194753Y-21229460D02*
X8175706Y-21238984D01*
X8175706Y-21238984D02*
X8147134Y-21238984D01*
X8328087Y-21238984D02*
X8309039Y-21229460D01*
X8309039Y-21229460D02*
X8299515Y-21210412D01*
X8299515Y-21210412D02*
X8299515Y-21038984D01*
X8480468Y-21229460D02*
X8461420Y-21238984D01*
X8461420Y-21238984D02*
X8423325Y-21238984D01*
X8423325Y-21238984D02*
X8404277Y-21229460D01*
X8404277Y-21229460D02*
X8394753Y-21210412D01*
X8394753Y-21210412D02*
X8394753Y-21134222D01*
X8394753Y-21134222D02*
X8404277Y-21115174D01*
X8404277Y-21115174D02*
X8423325Y-21105650D01*
X8423325Y-21105650D02*
X8461420Y-21105650D01*
X8461420Y-21105650D02*
X8480468Y-21115174D01*
X8480468Y-21115174D02*
X8489992Y-21134222D01*
X8489992Y-21134222D02*
X8489992Y-21153270D01*
X8489992Y-21153270D02*
X8394753Y-21172317D01*
X8566182Y-21229460D02*
X8585230Y-21238984D01*
X8585230Y-21238984D02*
X8623325Y-21238984D01*
X8623325Y-21238984D02*
X8642373Y-21229460D01*
X8642373Y-21229460D02*
X8651896Y-21210412D01*
X8651896Y-21210412D02*
X8651896Y-21200889D01*
X8651896Y-21200889D02*
X8642373Y-21181841D01*
X8642373Y-21181841D02*
X8623325Y-21172317D01*
X8623325Y-21172317D02*
X8594753Y-21172317D01*
X8594753Y-21172317D02*
X8575706Y-21162793D01*
X8575706Y-21162793D02*
X8566182Y-21143746D01*
X8566182Y-21143746D02*
X8566182Y-21134222D01*
X8566182Y-21134222D02*
X8575706Y-21115174D01*
X8575706Y-21115174D02*
X8594753Y-21105650D01*
X8594753Y-21105650D02*
X8623325Y-21105650D01*
X8623325Y-21105650D02*
X8642373Y-21115174D01*
X8718563Y-21315174D02*
X8728087Y-21305650D01*
X8728087Y-21305650D02*
X8747134Y-21277079D01*
X8747134Y-21277079D02*
X8756658Y-21258031D01*
X8756658Y-21258031D02*
X8766182Y-21229460D01*
X8766182Y-21229460D02*
X8775706Y-21181841D01*
X8775706Y-21181841D02*
X8775706Y-21143746D01*
X8775706Y-21143746D02*
X8766182Y-21096127D01*
X8766182Y-21096127D02*
X8756658Y-21067555D01*
X8756658Y-21067555D02*
X8747134Y-21048508D01*
X8747134Y-21048508D02*
X8728087Y-21019936D01*
X8728087Y-21019936D02*
X8718563Y-21010412D01*
X9080468Y-21315174D02*
X9070944Y-21305650D01*
X9070944Y-21305650D02*
X9051896Y-21277079D01*
X9051896Y-21277079D02*
X9042373Y-21258031D01*
X9042373Y-21258031D02*
X9032849Y-21229460D01*
X9032849Y-21229460D02*
X9023325Y-21181841D01*
X9023325Y-21181841D02*
X9023325Y-21143746D01*
X9023325Y-21143746D02*
X9032849Y-21096127D01*
X9032849Y-21096127D02*
X9042373Y-21067555D01*
X9042373Y-21067555D02*
X9051896Y-21048508D01*
X9051896Y-21048508D02*
X9070944Y-21019936D01*
X9070944Y-21019936D02*
X9080468Y-21010412D01*
X9156658Y-21105650D02*
X9156658Y-21238984D01*
X9156658Y-21124698D02*
X9166182Y-21115174D01*
X9166182Y-21115174D02*
X9185230Y-21105650D01*
X9185230Y-21105650D02*
X9213801Y-21105650D01*
X9213801Y-21105650D02*
X9232849Y-21115174D01*
X9232849Y-21115174D02*
X9242373Y-21134222D01*
X9242373Y-21134222D02*
X9242373Y-21238984D01*
X9366182Y-21238984D02*
X9347134Y-21229460D01*
X9347134Y-21229460D02*
X9337611Y-21219936D01*
X9337611Y-21219936D02*
X9328087Y-21200889D01*
X9328087Y-21200889D02*
X9328087Y-21143746D01*
X9328087Y-21143746D02*
X9337611Y-21124698D01*
X9337611Y-21124698D02*
X9347134Y-21115174D01*
X9347134Y-21115174D02*
X9366182Y-21105650D01*
X9366182Y-21105650D02*
X9394754Y-21105650D01*
X9394754Y-21105650D02*
X9413801Y-21115174D01*
X9413801Y-21115174D02*
X9423325Y-21124698D01*
X9423325Y-21124698D02*
X9432849Y-21143746D01*
X9432849Y-21143746D02*
X9432849Y-21200889D01*
X9432849Y-21200889D02*
X9423325Y-21219936D01*
X9423325Y-21219936D02*
X9413801Y-21229460D01*
X9413801Y-21229460D02*
X9394754Y-21238984D01*
X9394754Y-21238984D02*
X9366182Y-21238984D01*
X9489992Y-21105650D02*
X9566182Y-21105650D01*
X9518563Y-21038984D02*
X9518563Y-21210412D01*
X9518563Y-21210412D02*
X9528087Y-21229460D01*
X9528087Y-21229460D02*
X9547134Y-21238984D01*
X9547134Y-21238984D02*
X9566182Y-21238984D01*
X9785230Y-21105650D02*
X9785230Y-21305650D01*
X9785230Y-21115174D02*
X9804277Y-21105650D01*
X9804277Y-21105650D02*
X9842373Y-21105650D01*
X9842373Y-21105650D02*
X9861420Y-21115174D01*
X9861420Y-21115174D02*
X9870944Y-21124698D01*
X9870944Y-21124698D02*
X9880468Y-21143746D01*
X9880468Y-21143746D02*
X9880468Y-21200889D01*
X9880468Y-21200889D02*
X9870944Y-21219936D01*
X9870944Y-21219936D02*
X9861420Y-21229460D01*
X9861420Y-21229460D02*
X9842373Y-21238984D01*
X9842373Y-21238984D02*
X9804277Y-21238984D01*
X9804277Y-21238984D02*
X9785230Y-21229460D01*
X9994754Y-21238984D02*
X9975706Y-21229460D01*
X9975706Y-21229460D02*
X9966182Y-21210412D01*
X9966182Y-21210412D02*
X9966182Y-21038984D01*
X10156658Y-21238984D02*
X10156658Y-21134222D01*
X10156658Y-21134222D02*
X10147135Y-21115174D01*
X10147135Y-21115174D02*
X10128087Y-21105650D01*
X10128087Y-21105650D02*
X10089992Y-21105650D01*
X10089992Y-21105650D02*
X10070944Y-21115174D01*
X10156658Y-21229460D02*
X10137611Y-21238984D01*
X10137611Y-21238984D02*
X10089992Y-21238984D01*
X10089992Y-21238984D02*
X10070944Y-21229460D01*
X10070944Y-21229460D02*
X10061420Y-21210412D01*
X10061420Y-21210412D02*
X10061420Y-21191365D01*
X10061420Y-21191365D02*
X10070944Y-21172317D01*
X10070944Y-21172317D02*
X10089992Y-21162793D01*
X10089992Y-21162793D02*
X10137611Y-21162793D01*
X10137611Y-21162793D02*
X10156658Y-21153270D01*
X10223325Y-21105650D02*
X10299515Y-21105650D01*
X10251896Y-21038984D02*
X10251896Y-21210412D01*
X10251896Y-21210412D02*
X10261420Y-21229460D01*
X10261420Y-21229460D02*
X10280468Y-21238984D01*
X10280468Y-21238984D02*
X10299515Y-21238984D01*
X10442373Y-21229460D02*
X10423325Y-21238984D01*
X10423325Y-21238984D02*
X10385230Y-21238984D01*
X10385230Y-21238984D02*
X10366182Y-21229460D01*
X10366182Y-21229460D02*
X10356658Y-21210412D01*
X10356658Y-21210412D02*
X10356658Y-21134222D01*
X10356658Y-21134222D02*
X10366182Y-21115174D01*
X10366182Y-21115174D02*
X10385230Y-21105650D01*
X10385230Y-21105650D02*
X10423325Y-21105650D01*
X10423325Y-21105650D02*
X10442373Y-21115174D01*
X10442373Y-21115174D02*
X10451896Y-21134222D01*
X10451896Y-21134222D02*
X10451896Y-21153270D01*
X10451896Y-21153270D02*
X10356658Y-21172317D01*
X10623325Y-21238984D02*
X10623325Y-21038984D01*
X10623325Y-21229460D02*
X10604277Y-21238984D01*
X10604277Y-21238984D02*
X10566182Y-21238984D01*
X10566182Y-21238984D02*
X10547135Y-21229460D01*
X10547135Y-21229460D02*
X10537611Y-21219936D01*
X10537611Y-21219936D02*
X10528087Y-21200889D01*
X10528087Y-21200889D02*
X10528087Y-21143746D01*
X10528087Y-21143746D02*
X10537611Y-21124698D01*
X10537611Y-21124698D02*
X10547135Y-21115174D01*
X10547135Y-21115174D02*
X10566182Y-21105650D01*
X10566182Y-21105650D02*
X10604277Y-21105650D01*
X10604277Y-21105650D02*
X10623325Y-21115174D01*
X10699516Y-21315174D02*
X10709039Y-21305650D01*
X10709039Y-21305650D02*
X10728087Y-21277079D01*
X10728087Y-21277079D02*
X10737611Y-21258031D01*
X10737611Y-21258031D02*
X10747135Y-21229460D01*
X10747135Y-21229460D02*
X10756658Y-21181841D01*
X10756658Y-21181841D02*
X10756658Y-21143746D01*
X10756658Y-21143746D02*
X10747135Y-21096127D01*
X10747135Y-21096127D02*
X10737611Y-21067555D01*
X10737611Y-21067555D02*
X10728087Y-21048508D01*
X10728087Y-21048508D02*
X10709039Y-21019936D01*
X10709039Y-21019936D02*
X10699516Y-21010412D01*
M02*
